<svg width="247" height="147" viewBox="0 0 247 147" fill="none" xmlns="http://www.w3.org/2000/svg">
<path d="M140.535 14.6353V9.63557H129.326L125.45 7.40228C124.901 7.15443 124.302 7.03837 123.7 7.06339C123.099 7.08841 122.511 7.2538 121.985 7.54636L118.383 9.62837H107.152V14.765C107.152 14.961 107.208 15.1531 107.314 15.3181C107.42 15.483 107.572 15.6136 107.75 15.6943L122.237 24.0583C122.786 24.3062 123.385 24.4222 123.987 24.3972C124.588 24.3722 125.176 24.2068 125.702 23.9143L139.692 15.8312C139.93 15.7313 140.136 15.5661 140.285 15.3545C140.434 15.143 140.521 14.8937 140.535 14.6353Z" fill="#173D7A"/>
<path d="M123.843 7.04932C123.193 7.05788 122.555 7.22611 121.985 7.53921L118.383 9.62122H107.152V14.7578C107.152 14.9539 107.208 15.146 107.314 15.3109C107.42 15.4758 107.572 15.6065 107.75 15.6871L122.237 24.0512C122.732 24.3067 123.287 24.426 123.843 24.397V7.04932Z" fill="url(#paint0_linear)"/>
<path d="M108.42 9.62109H107.152V14.7577C107.152 14.9538 107.208 15.1459 107.314 15.3108C107.42 15.4757 107.572 15.6064 107.75 15.687L108.42 16.076V9.62109Z" fill="#5793CE"/>
<path d="M122.488 24.1591C123.38 24.4941 124.363 24.4941 125.255 24.1591V18.3237H122.488V24.1591Z" fill="#5793CE"/>
<path d="M122.237 18.929L107.75 10.565C106.864 10.0535 106.972 9.12412 107.995 8.56219L121.985 0.486299C122.511 0.193744 123.098 0.0283518 123.7 0.00333403C124.302 -0.0216837 124.901 0.0943685 125.45 0.342217L139.936 8.70627C140.83 9.21777 140.714 10.1471 139.691 10.709L125.702 18.7849C125.175 19.0775 124.588 19.2429 123.986 19.2679C123.385 19.2929 122.785 19.1769 122.237 18.929Z" fill="url(#paint1_linear)"/>
<path d="M139.691 9.7293L125.702 17.8052C125.176 18.0988 124.588 18.2642 123.986 18.288C123.384 18.3118 122.784 18.1932 122.237 17.9421L107.75 9.58522C107.574 9.48801 107.421 9.35264 107.303 9.18899C107.228 9.30518 107.179 9.43687 107.16 9.5744C107.142 9.71193 107.155 9.85181 107.198 9.98377C107.241 10.1157 107.312 10.2364 107.408 10.337C107.504 10.4376 107.62 10.5155 107.75 10.565L122.237 18.929C122.786 19.1769 123.385 19.2929 123.986 19.2679C124.588 19.2429 125.175 19.0775 125.702 18.785L139.691 10.7091C140.484 10.248 140.729 9.60683 140.412 9.10254C140.225 9.36536 139.978 9.58013 139.691 9.7293V9.7293Z" fill="white"/>
<path d="M135.204 15.9536C135.194 16.157 135.136 16.355 135.034 16.5316C134.933 16.7082 134.791 16.8582 134.621 16.9694C134.296 17.1567 134.037 16.9694 134.037 16.6308C134.047 16.4274 134.105 16.2294 134.207 16.0528C134.308 15.8763 134.45 15.7262 134.621 15.615C134.945 15.4277 135.204 15.579 135.204 15.9536Z" fill="#92D2C0"/>
<path d="M137.09 14.8657C137.079 15.0696 137.019 15.2678 136.917 15.4444C136.814 15.6209 136.671 15.7707 136.5 15.8815C136.175 16.0688 135.916 15.9175 135.916 15.5429C135.926 15.3396 135.984 15.1415 136.086 14.9649C136.187 14.7884 136.329 14.6383 136.5 14.5271C136.824 14.3398 137.09 14.4911 137.09 14.8657Z" fill="#92D2C0"/>
<path d="M138.971 13.7778C138.959 13.9808 138.9 14.1782 138.799 14.3545C138.698 14.5308 138.557 14.6811 138.388 14.7936C138.063 14.9809 137.797 14.8296 137.797 14.455C137.808 14.2511 137.868 14.0529 137.971 13.8763C138.073 13.6998 138.216 13.55 138.388 13.4392C138.705 13.2591 138.971 13.4104 138.971 13.7778Z" fill="#92D2C0"/>
<path d="M123.087 13.7419L116.315 9.83007C115.897 9.59233 115.948 9.16728 116.43 8.89352L122.971 5.11133C123.219 4.97548 123.495 4.89893 123.778 4.88768C124.06 4.87643 124.342 4.93079 124.599 5.04649L131.371 8.95837C131.789 9.20331 131.738 9.62115 131.256 9.8949L124.715 13.6699C124.468 13.8085 124.192 13.8872 123.909 13.8997C123.626 13.9123 123.345 13.8582 123.087 13.7419V13.7419Z" fill="#5793CE"/>
<path d="M123.742 10.4643L122.798 9.92394C122.741 9.92394 122.748 9.83748 122.798 9.79426L123.699 9.27556C123.735 9.25778 123.774 9.24854 123.814 9.24854C123.854 9.24854 123.894 9.25778 123.929 9.27556L124.866 9.82308C124.923 9.82308 124.916 9.90953 124.866 9.95275L123.965 10.4715C123.93 10.488 123.892 10.4961 123.853 10.4948C123.814 10.4935 123.776 10.4831 123.742 10.4643V10.4643Z" fill="#D4ECFF"/>
<path d="M116.315 9.83031L116.416 9.75828L122.957 5.98328C123.204 5.84522 123.48 5.7668 123.762 5.75429C124.045 5.74178 124.327 5.79552 124.585 5.91123L131.342 9.8159C131.724 9.54214 131.745 9.16753 131.342 8.9442L124.57 5.03232C124.313 4.91662 124.031 4.86227 123.749 4.87352C123.466 4.88477 123.19 4.96132 122.942 5.09717L116.401 8.87936C115.948 9.16753 115.897 9.59257 116.315 9.83031Z" fill="#396CAA"/>
<path d="M219.062 68.7245C218.855 68.7248 218.651 68.6701 218.471 68.566L201.413 58.7179C201.141 58.5612 200.942 58.3028 200.86 57.9995C200.778 57.6962 200.82 57.3728 200.977 57.1005C201.134 56.8283 201.392 56.6294 201.696 56.5476C201.999 56.4659 202.322 56.508 202.594 56.6647L219.653 66.52C219.878 66.6501 220.054 66.8508 220.153 67.0911C220.253 67.3313 220.27 67.5977 220.203 67.8488C220.136 68.1 219.987 68.3219 219.781 68.4802C219.575 68.6386 219.322 68.7244 219.062 68.7245V68.7245Z" fill="url(#paint2_linear)"/>
<path d="M184.476 48.7544C184.269 48.7547 184.065 48.7 183.886 48.5959L166.366 38.5101C166.229 38.434 166.108 38.3313 166.011 38.2081C165.914 38.0849 165.843 37.9436 165.801 37.7924C165.759 37.6412 165.747 37.4833 165.767 37.3276C165.787 37.172 165.838 37.0219 165.916 36.8861C165.995 36.7502 166.099 36.6314 166.224 36.5364C166.349 36.4415 166.492 36.3723 166.643 36.3331C166.795 36.2938 166.953 36.2851 167.109 36.3076C167.264 36.3301 167.413 36.3833 167.548 36.4641L185.067 46.55C185.292 46.68 185.468 46.8808 185.568 47.121C185.667 47.3613 185.685 47.6276 185.617 47.8788C185.55 48.1299 185.402 48.3519 185.195 48.5102C184.989 48.6685 184.736 48.7544 184.476 48.7544V48.7544Z" fill="url(#paint3_linear)"/>
<path d="M149.438 28.5251C149.231 28.5254 149.027 28.4707 148.847 28.3666L131.789 18.5185C131.523 18.359 131.331 18.1015 131.253 17.8015C131.176 17.5016 131.219 17.1832 131.374 16.9149C131.529 16.6466 131.783 16.4499 132.082 16.3671C132.38 16.2844 132.699 16.3222 132.97 16.4725L150.029 26.3206C150.3 26.4773 150.498 26.7354 150.579 27.038C150.66 27.3406 150.618 27.6631 150.461 27.9344C150.358 28.115 150.21 28.2649 150.03 28.3687C149.85 28.4726 149.646 28.5266 149.438 28.5251V28.5251Z" fill="url(#paint4_linear)"/>
<path d="M69.3608 80.2801L113.779 54.626L63.713 56.9817L60.601 59.9571L59.9238 64.4237L60.4209 67.4566L61.9049 71.138L63.396 74.0196L65.0601 76.1881L69.3608 80.2801Z" fill="url(#paint5_linear)"/>
<path d="M106.691 31.2338L106.922 31.1042C108.694 30.1532 111.107 30.3261 113.758 31.8246L174.428 66.8585C174.164 67.0567 173.922 67.2838 173.708 67.5357L171.475 66.2606L159.228 92.9161L152.867 101.561L148.725 103.002L144.569 101.374L124.398 89.9047L84.3092 67.0602L69.6352 58.2495L65.8028 57.032L62.3594 56.8231L106.691 31.2338Z" fill="#D4ECFF"/>
<path d="M154.632 96.4317C154.632 90.1569 150.208 82.4916 144.77 79.3506V80.4312C149.69 83.3129 153.695 90.2073 153.695 95.8914C153.695 101.576 149.69 103.888 144.77 101.05L69.3606 57.5075C66.6448 55.937 64.1739 55.7929 62.3945 56.7871L106.69 31.205L106.921 31.0754C108.693 30.1244 111.106 30.2973 113.757 31.7958L174.427 66.8297C174.161 67.0258 173.919 67.2532 173.707 67.5069L171.474 66.2606L159.228 92.9161L154.149 99.8465C154.505 98.7444 154.668 97.5892 154.632 96.4317Z" fill="url(#paint6_linear)"/>
<path d="M154.632 95.8337C154.632 95.9418 154.632 96.0426 154.632 96.1507C154.451 92.7396 153.418 89.4281 151.628 86.5187L151.88 86.353C153.575 89.2339 154.521 92.4933 154.632 95.8337Z" fill="white"/>
<path d="M69.3606 56.8953L144.77 100.437C149.574 103.211 153.508 101.071 153.688 95.6826C153.688 95.7474 153.688 95.8195 153.688 95.8843C153.688 101.568 149.683 103.881 144.762 101.043L69.3606 57.5076C66.6448 55.9371 64.1739 55.793 62.3945 56.7872L64.5557 55.5553C66.255 55.5136 67.9281 55.9802 69.3606 56.8953V56.8953Z" fill="white"/>
<path d="M159.17 92.3108L171.417 65.6553L173.715 66.988C173.805 66.8774 173.901 66.7716 174.003 66.6711L174.414 66.9088C174.147 67.1049 173.905 67.3323 173.693 67.586L171.474 66.2604L159.228 92.9159L154.149 99.8463C154.262 99.5255 154.356 99.1983 154.43 98.8666L159.17 92.3108Z" fill="white"/>
<path d="M62.3809 56.2254L62.3885 56.2178L62.3809 56.2254Z" fill="#D4ECFF"/>
<path d="M189.188 53.6963C194.627 56.8373 199.05 64.5026 199.05 70.7774C199.05 73.8104 198.013 75.9716 196.334 77.0451L196.032 77.2252L151.779 102.793L154.487 97.9012L154.17 93.0095L153.313 90.2575L152.009 87.3254C152.009 87.3254 150.929 85.3227 150.857 85.2794C150.785 85.2362 149.257 83.2479 149.257 83.2479L147.766 81.6918L146.117 80.6688L144.77 79.3504L189.188 53.6963Z" fill="url(#paint7_linear)"/>
<path d="M69.361 80.2873V79.2283C64.4408 76.3898 60.4355 69.4522 60.4355 63.7681C60.4355 58.084 64.4408 55.7714 69.361 58.6171L144.77 102.159C150.209 105.3 154.632 102.743 154.632 96.4607C154.632 90.1786 150.209 82.5206 144.77 79.3796V80.4602C149.69 83.3419 153.695 90.2363 153.695 95.9204C153.695 101.604 149.69 103.917 144.77 101.079L69.361 57.5077C63.9221 54.3666 59.499 56.9169 59.499 63.199C59.499 69.481 63.9221 77.1463 69.361 80.2873Z" fill="#173D7A"/>
<path d="M139.663 72.9607L106.115 53.4014L104.825 54.1434L138.373 73.7028L139.663 72.9607Z" fill="#5793CE"/>
<path d="M139.094 66.1235L111.748 50.1807L110.459 50.9227L137.804 66.8583L139.094 66.1235Z" fill="#5793CE"/>
<path d="M134.339 66.6062L108.931 51.7944L107.642 52.5293L133.049 67.3411L134.339 66.6062Z" fill="#5793CE"/>
<path d="M142.479 71.3538L136.277 67.7373L134.987 68.4721L141.19 72.0886L142.479 71.3538Z" fill="#5793CE"/>
<path d="M245.998 76.4619V71.4622H234.788L230.913 69.2289C230.364 68.9811 229.765 68.865 229.163 68.8901C228.562 68.9151 227.974 69.0805 227.448 69.373L223.846 71.455H212.615V76.5916C212.615 76.7877 212.671 76.9798 212.777 77.1447C212.883 77.3096 213.034 77.4403 213.213 77.521L227.7 85.885C228.249 86.1329 228.848 86.2489 229.45 86.2239C230.051 86.1989 230.639 86.0335 231.165 85.7409L245.155 77.665C245.394 77.5646 245.601 77.3983 245.75 77.1854C245.899 76.9725 245.985 76.7216 245.998 76.4619V76.4619Z" fill="#173D7A"/>
<path d="M213.883 71.4473H212.615V76.5838C212.615 76.7799 212.671 76.972 212.777 77.1369C212.883 77.3019 213.034 77.4325 213.213 77.5132L213.883 77.9022V71.4473Z" fill="#5793CE"/>
<path d="M227.923 85.9858C228.815 86.3207 229.797 86.3207 230.689 85.9858V80.1504H227.923V85.9858Z" fill="#5793CE"/>
<path d="M227.7 80.7552L213.213 72.3911C212.327 71.8796 212.435 70.9503 213.465 70.3884L227.448 62.3125C227.974 62.0199 228.562 61.8545 229.163 61.8295C229.765 61.8045 230.364 61.9205 230.913 62.1684L245.4 70.5324C246.293 71.0439 246.178 71.9733 245.155 72.5352L231.165 80.6111C230.639 80.9036 230.051 81.069 229.449 81.0941C228.848 81.1191 228.249 81.003 227.7 80.7552V80.7552Z" fill="url(#paint8_linear)"/>
<path d="M245.154 71.5555L231.165 79.6242C230.639 79.92 230.052 80.0873 229.449 80.1124C228.847 80.1374 228.248 80.0195 227.7 79.7683L213.213 71.4114C213.036 71.3142 212.884 71.1788 212.766 71.0152C212.69 71.1314 212.642 71.263 212.623 71.4006C212.605 71.5381 212.618 71.678 212.661 71.8099C212.703 71.9419 212.775 72.0626 212.871 72.1632C212.966 72.2638 213.083 72.3416 213.213 72.3912L227.7 80.7552C228.248 81.0031 228.848 81.1191 229.449 81.0941C230.051 81.0691 230.638 80.9037 231.165 80.6111L245.154 72.5353C245.947 72.0742 246.192 71.433 245.875 70.9287C245.687 71.1915 245.441 71.4063 245.154 71.5555V71.5555Z" fill="white"/>
<path d="M240.667 77.7872C240.657 77.9906 240.599 78.1886 240.497 78.3652C240.396 78.5417 240.254 78.6918 240.084 78.803C239.759 78.9903 239.5 78.803 239.5 78.4644C239.51 78.261 239.568 78.063 239.67 77.8864C239.771 77.7098 239.913 77.5598 240.084 77.4486C240.408 77.2541 240.667 77.4054 240.667 77.7872Z" fill="#D4ECFF"/>
<path d="M242.554 76.6923C242.543 76.8962 242.483 77.0944 242.38 77.2709C242.278 77.4475 242.135 77.5972 241.963 77.7081C241.639 77.8954 241.38 77.7441 241.38 77.3695C241.39 77.1661 241.448 76.9681 241.55 76.7915C241.651 76.6149 241.793 76.4649 241.963 76.3537C242.288 76.1664 242.554 76.3465 242.554 76.6923Z" fill="#D4ECFF"/>
<path d="M244.434 75.6259C244.422 75.8288 244.363 76.0263 244.262 76.2026C244.161 76.3788 244.02 76.5292 243.85 76.6417C243.526 76.829 243.26 76.6777 243.26 76.3031C243.271 76.0992 243.331 75.9009 243.433 75.7244C243.536 75.5479 243.679 75.3981 243.85 75.2873C244.167 75.0783 244.434 75.2296 244.434 75.6259Z" fill="#D4ECFF"/>
<path d="M228.557 75.5686L221.778 71.6567C221.36 71.419 221.411 70.9939 221.893 70.7202L228.434 66.938C228.682 66.8021 228.958 66.7256 229.241 66.7143C229.523 66.7031 229.804 66.7575 230.062 66.8732L236.834 70.785C237.252 71.03 237.201 71.4478 236.719 71.7216L230.178 75.5038C229.932 75.6412 229.657 75.7186 229.375 75.7299C229.093 75.7412 228.813 75.6859 228.557 75.5686V75.5686Z" fill="#5793CE"/>
<path d="M229.205 72.2904L228.261 71.7501C228.204 71.7501 228.211 71.6637 228.261 71.6204L229.162 71.1017C229.198 71.084 229.237 71.0747 229.277 71.0747C229.317 71.0747 229.356 71.084 229.392 71.1017L230.329 71.6492C230.386 71.6492 230.379 71.7357 230.329 71.7789L229.428 72.2976C229.393 72.3142 229.355 72.3222 229.316 72.321C229.277 72.3197 229.239 72.3092 229.205 72.2904V72.2904Z" fill="#D4ECFF"/>
<path d="M221.778 71.6565L221.879 71.5844L228.42 67.8095C228.667 67.6714 228.943 67.593 229.226 67.5805C229.508 67.568 229.79 67.6217 230.048 67.7374L236.805 71.6421C237.187 71.3683 237.209 70.9937 236.805 70.7704L230.034 66.8585C229.776 66.7428 229.495 66.6884 229.212 66.6997C228.93 66.7109 228.654 66.7875 228.406 66.9233L221.901 70.7199C221.411 70.9937 221.361 71.4188 221.778 71.6565Z" fill="#396CAA"/>
<path d="M134.122 130.147C133.862 130.147 133.61 130.061 133.403 129.903C133.197 129.745 133.049 129.523 132.982 129.272C132.914 129.02 132.932 128.754 133.031 128.514C133.131 128.274 133.307 128.073 133.532 127.943L150.583 118.087C150.854 117.931 151.177 117.888 151.479 117.969C151.782 118.05 152.04 118.248 152.197 118.52C152.275 118.654 152.326 118.802 152.347 118.956C152.368 119.11 152.358 119.267 152.318 119.417C152.277 119.567 152.208 119.708 152.113 119.831C152.018 119.954 151.9 120.057 151.765 120.133L134.735 129.989C134.549 130.097 134.337 130.151 134.122 130.147Z" fill="url(#paint9_linear)"/>
<path d="M168.701 110.206C168.441 110.206 168.188 110.12 167.982 109.962C167.775 109.804 167.627 109.582 167.56 109.331C167.492 109.079 167.51 108.813 167.609 108.573C167.709 108.333 167.885 108.132 168.11 108.002L185.629 97.916C185.764 97.8379 185.912 97.7871 186.066 97.7664C186.22 97.7457 186.377 97.7555 186.527 97.7953C186.677 97.8351 186.818 97.9041 186.941 97.9984C187.065 98.0926 187.169 98.2103 187.247 98.3446C187.325 98.479 187.376 98.6274 187.396 98.7813C187.417 98.9353 187.407 99.0919 187.367 99.2421C187.328 99.3923 187.259 99.5331 187.164 99.6566C187.07 99.7802 186.952 99.8839 186.818 99.962L169.291 110.048C169.112 110.153 168.908 110.208 168.701 110.206V110.206Z" fill="url(#paint10_linear)"/>
<path d="M203.747 89.9476C203.487 89.9476 203.235 89.8617 203.028 89.7034C202.822 89.5451 202.674 89.3231 202.607 89.072C202.539 88.8208 202.557 88.5545 202.656 88.3142C202.756 88.074 202.932 87.8733 203.157 87.7432L220.215 77.8878C220.488 77.7312 220.813 77.6894 221.117 77.7718C221.421 77.8543 221.679 78.0541 221.836 78.3273C221.993 78.6005 222.034 78.9248 221.952 79.2288C221.87 79.5328 221.67 79.7916 221.397 79.9482L204.338 89.8036C204.157 89.9026 203.954 89.9523 203.747 89.9476V89.9476Z" fill="url(#paint11_linear)"/>
<path d="M28.2133 68.7245C27.9533 68.7244 27.7006 68.6385 27.4943 68.4802C27.2881 68.3219 27.1398 68.1 27.0725 67.8488C27.0052 67.5976 27.0226 67.3313 27.1221 67.0911C27.2215 66.8508 27.3975 66.6501 27.6226 66.52L44.6883 56.6647C44.9606 56.508 45.2839 56.4659 45.5872 56.5476C45.8905 56.6294 46.1489 56.8283 46.3055 57.1005C46.4622 57.3728 46.5043 57.6962 46.4226 57.9995C46.3408 58.3028 46.142 58.5612 45.8697 58.7179L28.84 68.566C28.6501 68.6764 28.4329 68.7313 28.2133 68.7245V68.7245Z" fill="url(#paint12_linear)"/>
<path d="M62.7919 48.7543C62.5844 48.755 62.3804 48.7007 62.2007 48.5969C62.021 48.4931 61.872 48.3436 61.7689 48.1635C61.6142 47.8918 61.5729 47.57 61.6538 47.2679C61.7347 46.9658 61.9313 46.7078 62.2011 46.5498L79.7207 36.4639C79.992 36.3073 80.3144 36.2648 80.617 36.3459C80.9196 36.427 81.1776 36.6249 81.3343 36.8962C81.4128 37.0303 81.464 37.1786 81.4847 37.3326C81.5055 37.4866 81.4955 37.6432 81.4553 37.7933C81.4151 37.9434 81.3455 38.0841 81.2505 38.2071C81.1556 38.3301 81.0371 38.433 80.9021 38.5099L63.3826 48.5958C63.2031 48.6998 62.9993 48.7545 62.7919 48.7543V48.7543Z" fill="url(#paint13_linear)"/>
<path d="M97.8305 28.525C97.5705 28.5249 97.3178 28.4391 97.1115 28.2807C96.9053 28.1224 96.757 27.9005 96.6897 27.6493C96.6224 27.3982 96.6398 27.1318 96.7393 26.8916C96.8387 26.6513 97.0147 26.4506 97.2398 26.3205L114.305 16.4724C114.44 16.3916 114.589 16.3384 114.744 16.3159C114.9 16.2934 115.058 16.3021 115.21 16.3414C115.362 16.3806 115.504 16.4498 115.629 16.5447C115.754 16.6397 115.858 16.7585 115.937 16.8944C116.015 17.0302 116.066 17.1803 116.086 17.3359C116.106 17.4916 116.094 17.6495 116.052 17.8007C116.01 17.9519 115.939 18.0932 115.842 18.2164C115.745 18.3396 115.624 18.4423 115.487 18.5184L98.4212 28.3665C98.2421 28.4716 98.0381 28.5263 97.8305 28.525V28.525Z" fill="url(#paint14_linear)"/>
<path d="M34.3862 76.3462V71.3465H23.1771L19.3015 69.142C18.7527 68.8942 18.1535 68.7781 17.5519 68.8031C16.9503 68.8282 16.3628 68.9935 15.8365 69.2861L12.2346 71.3753H1.00394V76.5119C1.00236 76.7082 1.05808 76.9007 1.16429 77.0658C1.2705 77.2308 1.42257 77.3613 1.60185 77.4412L16.0886 85.7837C16.637 86.0332 17.2364 86.1502 17.8383 86.1252C18.4403 86.1001 19.0279 85.9338 19.5536 85.6396L33.5433 77.5637C33.7853 77.4622 33.9932 77.2937 34.1425 77.078C34.2918 76.8623 34.3764 76.6084 34.3862 76.3462V76.3462Z" fill="#173D7A"/>
<path d="M16.6912 69.1758C16.0413 69.1878 15.4039 69.3558 14.8326 69.6657L11.2307 71.7549H3.26907e-05V76.8915C-0.00154732 77.0878 0.0541783 77.2802 0.160385 77.4453C0.266592 77.6104 0.418665 77.7409 0.597946 77.8208L15.0847 86.1777C15.5799 86.4338 16.1344 86.5531 16.6912 86.5235V69.1758Z" fill="url(#paint15_linear)"/>
<path d="M1.26789 71.748H3.26907e-05V76.8846C-0.00154732 77.0809 0.0541783 77.2734 0.160385 77.4385C0.266592 77.6036 0.418665 77.7341 0.597946 77.814L1.26789 78.203V71.748Z" fill="#5793CE"/>
<path d="M15.3086 86.2856C16.2003 86.6206 17.1832 86.6206 18.0748 86.2856V80.4502H15.3086V86.2856Z" fill="#5793CE"/>
<path d="M16.0892 80.669L1.60245 72.305C0.709183 71.7935 0.82444 70.9002 1.84737 70.3022L15.8731 62.2263C16.3983 61.9305 16.9861 61.7632 17.5883 61.7382C18.1906 61.7131 18.7902 61.831 19.3381 62.0823L33.8249 70.4391C34.711 70.9578 34.6029 71.8799 33.5799 72.4419L19.5902 80.5178C19.0612 80.8207 18.4672 80.9925 17.8581 81.0188C17.249 81.0451 16.6425 80.9252 16.0892 80.669V80.669Z" fill="url(#paint16_linear)"/>
<path d="M33.544 71.4618L19.5543 79.5377C19.028 79.8303 18.4405 79.9957 17.8389 80.0207C17.2373 80.0457 16.6381 79.9297 16.0893 79.6818L1.60254 71.3034C1.42605 71.2061 1.27346 71.0708 1.15591 70.9071C1.0801 71.0233 1.03126 71.155 1.01298 71.2925C0.994707 71.4301 1.00745 71.5699 1.05028 71.7019C1.09311 71.8339 1.16495 71.9546 1.26051 72.0551C1.35608 72.1557 1.47295 72.2336 1.60254 72.2831L16.0893 80.6688C16.6372 80.92 17.2369 81.0379 17.8391 81.0129C18.4414 80.9879 19.0291 80.8206 19.5543 80.5247L33.544 72.4488C34.3364 71.9877 34.5814 71.3466 34.2644 70.8423C34.0762 71.1025 33.8294 71.3147 33.544 71.4618V71.4618Z" fill="white"/>
<path d="M29.0557 77.6863C29.0455 77.8896 28.9874 78.0877 28.8859 78.2643C28.7845 78.4408 28.6427 78.5909 28.4722 78.7021C28.148 78.8894 27.8887 78.7021 27.8887 78.3635C27.8988 78.1601 27.957 77.9621 28.0584 77.7855C28.1599 77.6089 28.3016 77.4589 28.4722 77.3477C28.7964 77.1676 29.0557 77.3117 29.0557 77.6863Z" fill="#D4ECFF"/>
<path d="M30.9365 76.5984C30.9264 76.8018 30.8682 76.9999 30.7668 77.1764C30.6654 77.353 30.5236 77.503 30.353 77.6142C30.0289 77.8015 29.7695 77.6502 29.7695 77.2756C29.7791 77.0731 29.837 76.8758 29.9386 76.7003C30.0401 76.5248 30.1822 76.3763 30.353 76.267C30.6772 76.0797 30.9365 76.231 30.9365 76.5984Z" fill="#D4ECFF"/>
<path d="M32.8236 75.5181C32.8107 75.7198 32.7513 75.9158 32.6501 76.0907C32.5488 76.2657 32.4085 76.4149 32.2401 76.5266C31.916 76.714 31.6494 76.5627 31.6494 76.188C31.6621 75.9854 31.7221 75.7886 31.8247 75.6134C31.9273 75.4382 32.0696 75.2896 32.2401 75.1795C32.5571 74.9922 32.8236 75.1434 32.8236 75.5181Z" fill="#D4ECFF"/>
<path d="M15.9353 75.876L9.16376 71.9569C8.74594 71.7192 8.79637 71.3014 9.27902 71.0204L15.82 67.2454C16.067 67.1074 16.3428 67.0289 16.6255 67.0164C16.9082 67.0039 17.1899 67.0577 17.4481 67.1734L24.2196 71.0924C24.6374 71.3302 24.587 71.748 24.1044 72.029L17.5634 75.804C17.3164 75.942 17.0405 76.0205 16.7579 76.033C16.4752 76.0455 16.1935 75.9917 15.9353 75.876V75.876Z" fill="#5793CE"/>
<path d="M16.5897 72.5978L15.646 72.0575C15.5884 72.0215 15.5956 71.9639 15.646 71.9278L16.5465 71.4019C16.5811 71.3842 16.6193 71.375 16.6582 71.375C16.697 71.375 16.7353 71.3842 16.7698 71.4019L17.7135 71.9422C17.7711 71.9422 17.7639 72.0359 17.7135 72.0719L16.813 72.5906C16.7791 72.6095 16.7411 72.6199 16.7023 72.6212C16.6634 72.6224 16.6249 72.6144 16.5897 72.5978V72.5978Z" fill="#D4ECFF"/>
<path d="M9.16261 71.9567L9.26347 71.8919L15.8045 68.1097C16.0519 67.9722 16.328 67.8947 16.6108 67.8835C16.8936 67.8722 17.175 67.9275 17.4325 68.0448L24.1897 71.9423C24.5715 71.6685 24.5931 71.2939 24.1897 71.0778L17.4181 67.1587C17.1599 67.043 16.8782 66.9893 16.5956 67.0018C16.3129 67.0143 16.0371 67.0927 15.7901 67.2308L9.24906 71.0058C8.79522 71.3011 8.7448 71.6974 9.16261 71.9567Z" fill="#396CAA"/>
<path d="M113.059 131.005C112.852 131.004 112.648 130.949 112.469 130.846L95.4101 121.013C95.2729 120.936 95.1523 120.834 95.0552 120.711C94.9581 120.587 94.8866 120.446 94.8447 120.295C94.8028 120.144 94.7914 119.986 94.8112 119.83C94.831 119.674 94.8817 119.524 94.9601 119.389C95.0385 119.253 95.1432 119.134 95.2681 119.039C95.393 118.944 95.5355 118.875 95.6874 118.835C95.8392 118.796 95.9974 118.788 96.1526 118.81C96.3079 118.833 96.4571 118.886 96.5915 118.967L113.657 128.822C113.928 128.979 114.126 129.237 114.207 129.539C114.289 129.842 114.246 130.164 114.089 130.436C113.981 130.611 113.829 130.755 113.649 130.855C113.468 130.954 113.265 131.006 113.059 131.005V131.005Z" fill="url(#paint17_linear)"/>
<path d="M78.4812 111.034C78.2737 111.035 78.0699 110.98 77.8905 110.876L60.3709 100.79C60.1053 100.63 59.9131 100.373 59.8355 100.073C59.7579 99.7731 59.8013 99.4547 59.9562 99.1864C60.1111 98.9181 60.3652 98.7214 60.6638 98.6386C60.9623 98.5559 61.2814 98.5937 61.5523 98.744L79.0719 108.83C79.3432 108.987 79.5411 109.245 79.6221 109.547C79.7032 109.85 79.6607 110.172 79.5041 110.444C79.4016 110.624 79.2527 110.774 79.0729 110.878C78.8931 110.982 78.6888 111.036 78.4812 111.034V111.034Z" fill="url(#paint18_linear)"/>
<path d="M43.4421 90.8053C43.2347 90.8055 43.0309 90.7509 42.8514 90.6468L25.7929 80.7986C25.6558 80.7226 25.5351 80.6199 25.438 80.4967C25.3409 80.3735 25.2694 80.2322 25.2275 80.081C25.1856 79.9298 25.1742 79.7718 25.194 79.6162C25.2139 79.4606 25.2645 79.3105 25.3429 79.1746C25.4213 79.0388 25.5261 78.9199 25.6509 78.825C25.7758 78.73 25.9183 78.6609 26.0702 78.6216C26.222 78.5823 26.3802 78.5737 26.5354 78.5962C26.6907 78.6187 26.8399 78.6719 26.9743 78.7527L44.0328 88.5936C44.258 88.7237 44.4339 88.9244 44.5334 89.1646C44.6328 89.4049 44.6502 89.6712 44.5829 89.9224C44.5156 90.1735 44.3674 90.3955 44.1611 90.5538C43.9549 90.7121 43.7021 90.798 43.4421 90.7981V90.8053Z" fill="url(#paint19_linear)"/>
<path d="M140.535 136.235V131.235H129.326L125.45 129.002C124.902 128.752 124.302 128.636 123.7 128.661C123.098 128.686 122.511 128.852 121.985 129.146L118.383 131.228H107.152V136.372C107.152 136.568 107.208 136.76 107.314 136.925C107.42 137.09 107.572 137.221 107.75 137.301L122.237 145.665C122.786 145.913 123.385 146.029 123.987 146.004C124.588 145.979 125.176 145.814 125.702 145.521L139.692 137.445C139.933 137.344 140.14 137.177 140.289 136.963C140.438 136.748 140.523 136.496 140.535 136.235V136.235Z" fill="#173D7A"/>
<path d="M123.843 128.649C123.193 128.657 122.555 128.826 121.985 129.139L118.383 131.221H107.152V136.365C107.152 136.561 107.208 136.753 107.314 136.918C107.42 137.083 107.572 137.213 107.75 137.294L122.237 145.658C122.732 145.913 123.287 146.033 123.843 146.004V128.649Z" fill="url(#paint20_linear)"/>
<path d="M108.42 131.221H107.152V136.364C107.152 136.561 107.208 136.753 107.314 136.918C107.42 137.082 107.572 137.213 107.75 137.294L108.42 137.683V131.221Z" fill="#5793CE"/>
<path d="M122.488 145.759C123.38 146.094 124.363 146.094 125.255 145.759V139.887H122.488V145.759Z" fill="#5793CE"/>
<path d="M122.236 140.529L107.749 132.165C106.863 131.653 106.971 130.724 108.001 130.162L121.984 122.086C122.51 121.793 123.098 121.628 123.699 121.603C124.301 121.578 124.9 121.694 125.449 121.942L139.936 130.306C140.829 130.817 140.714 131.747 139.691 132.309L125.701 140.385C125.175 140.677 124.587 140.842 123.986 140.867C123.384 140.893 122.785 140.776 122.236 140.529V140.529Z" fill="url(#paint21_linear)"/>
<path d="M139.691 131.329L125.702 139.398C125.177 139.693 124.589 139.861 123.987 139.886C123.384 139.911 122.785 139.793 122.237 139.542L107.75 131.185C107.574 131.088 107.421 130.952 107.303 130.789C107.228 130.905 107.179 131.036 107.16 131.174C107.142 131.312 107.155 131.451 107.198 131.583C107.241 131.715 107.312 131.836 107.408 131.937C107.504 132.037 107.62 132.115 107.75 132.165L122.237 140.529C122.786 140.776 123.385 140.893 123.986 140.868C124.588 140.843 125.175 140.677 125.702 140.385L139.691 132.309C140.484 131.848 140.729 131.206 140.412 130.702C140.225 130.965 139.978 131.18 139.691 131.329V131.329Z" fill="white"/>
<path d="M135.204 137.582C135.194 137.785 135.136 137.984 135.034 138.16C134.933 138.337 134.791 138.487 134.621 138.598C134.296 138.778 134.037 138.598 134.037 138.259C134.047 138.056 134.105 137.858 134.207 137.681C134.308 137.505 134.45 137.355 134.621 137.244C134.945 137.027 135.204 137.179 135.204 137.582Z" fill="#D4ECFF"/>
<path d="M137.09 136.465C137.079 136.669 137.019 136.867 136.917 137.044C136.814 137.22 136.671 137.37 136.5 137.481C136.175 137.668 135.916 137.517 135.916 137.143C135.926 136.939 135.984 136.741 136.086 136.565C136.187 136.388 136.329 136.238 136.5 136.127C136.824 135.939 137.09 136.091 137.09 136.465Z" fill="#D4ECFF"/>
<path d="M138.971 135.377C138.959 135.58 138.9 135.778 138.799 135.954C138.698 136.13 138.557 136.281 138.388 136.393C138.063 136.581 137.797 136.393 137.797 136.055C137.808 135.851 137.868 135.652 137.971 135.476C138.073 135.299 138.216 135.15 138.388 135.039C138.705 134.852 138.971 135.003 138.971 135.377Z" fill="#D4ECFF"/>
<path d="M123.094 135.342L116.315 131.43C115.897 131.192 115.948 130.767 116.43 130.493L122.971 126.711C123.219 126.575 123.495 126.499 123.778 126.487C124.06 126.476 124.342 126.53 124.599 126.646L131.378 130.558C131.789 130.803 131.738 131.221 131.256 131.495L124.715 135.277C124.469 135.414 124.194 135.492 123.912 135.503C123.63 135.514 123.35 135.459 123.094 135.342V135.342Z" fill="#5793CE"/>
<path d="M123.742 132.063L122.798 131.523C122.741 131.523 122.748 131.437 122.798 131.393L123.699 130.875C123.735 130.857 123.774 130.848 123.814 130.848C123.854 130.848 123.894 130.857 123.929 130.875L124.866 131.422C124.923 131.422 124.916 131.509 124.866 131.552L123.965 132.071C123.93 132.087 123.892 132.095 123.853 132.094C123.814 132.093 123.776 132.082 123.742 132.063V132.063Z" fill="#D4ECFF"/>
<path d="M116.316 131.429L116.417 131.357L122.958 127.582C123.205 127.444 123.48 127.366 123.763 127.353C124.046 127.341 124.327 127.395 124.586 127.51L131.343 131.415C131.725 131.141 131.746 130.767 131.343 130.543L124.564 126.631C124.306 126.516 124.025 126.461 123.742 126.473C123.46 126.484 123.184 126.56 122.936 126.696L116.395 130.478C115.948 130.767 115.898 131.192 116.316 131.429Z" fill="#396CAA"/>
<defs>
<linearGradient id="paint0_linear" x1="107.152" y1="15.7232" x2="123.843" y2="15.7232" gradientUnits="userSpaceOnUse">
<stop stop-color="#699DD1"/>
<stop offset="1" stop-color="#173D7A"/>
</linearGradient>
<linearGradient id="paint1_linear" x1="107.152" y1="9.63562" x2="140.534" y2="9.63562" gradientUnits="userSpaceOnUse">
<stop stop-color="#E9F6FF"/>
<stop offset="1" stop-color="#D4ECFF"/>
</linearGradient>
<linearGradient id="paint2_linear" x1="9810.42" y1="2621.48" x2="10334.3" y2="2621.48" gradientUnits="userSpaceOnUse">
<stop stop-color="#699DD1"/>
<stop offset="1" stop-color="#173D7A"/>
</linearGradient>
<linearGradient id="paint3_linear" x1="9042.82" y1="2304.34" x2="9592.05" y2="2304.34" gradientUnits="userSpaceOnUse">
<stop stop-color="#699DD1"/>
<stop offset="1" stop-color="#173D7A"/>
</linearGradient>
<linearGradient id="paint4_linear" x1="7855.54" y1="1896.98" x2="8378.66" y2="1896.98" gradientUnits="userSpaceOnUse">
<stop stop-color="#699DD1"/>
<stop offset="1" stop-color="#173D7A"/>
</linearGradient>
<linearGradient id="paint5_linear" x1="4464.75" y1="2456.88" x2="8490.98" y2="2456.88" gradientUnits="userSpaceOnUse">
<stop stop-color="#699DD1"/>
<stop offset="1" stop-color="#173D7A"/>
</linearGradient>
<linearGradient id="paint6_linear" x1="33961.3" y1="15474.6" x2="51386.9" y2="15474.6" gradientUnits="userSpaceOnUse">
<stop stop-color="#E9F6FF"/>
<stop offset="1" stop-color="#D4ECFF"/>
</linearGradient>
<linearGradient id="paint7_linear" x1="22775.9" y1="11426.9" x2="26865.9" y2="11426.9" gradientUnits="userSpaceOnUse">
<stop stop-color="#699DD1"/>
<stop offset="1" stop-color="#173D7A"/>
</linearGradient>
<linearGradient id="paint8_linear" x1="17277.4" y1="4344.28" x2="18824.6" y2="4344.28" gradientUnits="userSpaceOnUse">
<stop stop-color="#E9F6FF"/>
<stop offset="1" stop-color="#D4ECFF"/>
</linearGradient>
<linearGradient id="paint9_linear" x1="7909.34" y1="3724.76" x2="8432.8" y2="3724.76" gradientUnits="userSpaceOnUse">
<stop stop-color="#699DD1"/>
<stop offset="1" stop-color="#173D7A"/>
</linearGradient>
<linearGradient id="paint10_linear" x1="9087.16" y1="3425.76" x2="9636.25" y2="3425.76" gradientUnits="userSpaceOnUse">
<stop stop-color="#699DD1"/>
<stop offset="1" stop-color="#173D7A"/>
</linearGradient>
<linearGradient id="paint11_linear" x1="9860.92" y1="3002.59" x2="10384.7" y2="3002.59" gradientUnits="userSpaceOnUse">
<stop stop-color="#699DD1"/>
<stop offset="1" stop-color="#173D7A"/>
</linearGradient>
<linearGradient id="paint12_linear" x1="4952.63" y1="2621.6" x2="5476.5" y2="2621.6" gradientUnits="userSpaceOnUse">
<stop stop-color="#699DD1"/>
<stop offset="1" stop-color="#173D7A"/>
</linearGradient>
<linearGradient id="paint13_linear" x1="6055.83" y1="2302.45" x2="6604.57" y2="2302.45" gradientUnits="userSpaceOnUse">
<stop stop-color="#699DD1"/>
<stop offset="1" stop-color="#173D7A"/>
</linearGradient>
<linearGradient id="paint14_linear" x1="6905.22" y1="1900.1" x2="7429.68" y2="1900.1" gradientUnits="userSpaceOnUse">
<stop stop-color="#699DD1"/>
<stop offset="1" stop-color="#173D7A"/>
</linearGradient>
<linearGradient id="paint15_linear" x1="3627.99" y1="4069.53" x2="4014.72" y2="4069.53" gradientUnits="userSpaceOnUse">
<stop stop-color="#699DD1"/>
<stop offset="1" stop-color="#173D7A"/>
</linearGradient>
<linearGradient id="paint16_linear" x1="7266.13" y1="4345.3" x2="8815.02" y2="4345.3" gradientUnits="userSpaceOnUse">
<stop stop-color="#E9F6FF"/>
<stop offset="1" stop-color="#D4ECFF"/>
</linearGradient>
<linearGradient id="paint17_linear" x1="6854.02" y1="3736.8" x2="7378.48" y2="3736.8" gradientUnits="userSpaceOnUse">
<stop stop-color="#699DD1"/>
<stop offset="1" stop-color="#173D7A"/>
</linearGradient>
<linearGradient id="paint18_linear" x1="5998.3" y1="3438.25" x2="6546.56" y2="3438.25" gradientUnits="userSpaceOnUse">
<stop stop-color="#699DD1"/>
<stop offset="1" stop-color="#173D7A"/>
</linearGradient>
<linearGradient id="paint19_linear" x1="4903.31" y1="3018.9" x2="5427.37" y2="3018.9" gradientUnits="userSpaceOnUse">
<stop stop-color="#699DD1"/>
<stop offset="1" stop-color="#173D7A"/>
</linearGradient>
<linearGradient id="paint20_linear" x1="6194.57" y1="5573.17" x2="6581.31" y2="5573.17" gradientUnits="userSpaceOnUse">
<stop stop-color="#699DD1"/>
<stop offset="1" stop-color="#173D7A"/>
</linearGradient>
<linearGradient id="paint21_linear" x1="12284" y1="6002.98" x2="13831.2" y2="6002.98" gradientUnits="userSpaceOnUse">
<stop stop-color="#E9F6FF"/>
<stop offset="1" stop-color="#D4ECFF"/>
</linearGradient>
</defs>
</svg>
