<svg xmlns="http://www.w3.org/2000/svg" viewBox="0 0 193.23 161.28"><defs><style>.cls-1{isolation:isolate;}.cls-2{fill:#6b99d1;opacity:0.15;mix-blend-mode:multiply;}.cls-3{fill:#ffa8a7;}.cls-4{fill:#e4f2f2;}.cls-5{fill:#2d2979;}.cls-6{fill:#7fa8e6;}.cls-7{fill:#6795d6;}.cls-8{fill:#f28f8f;}.cls-9{fill:#f5fbfb;}.cls-10{fill:#c8dbda;}.cls-11{fill:#3a2c6d;}.cls-12{fill:#c8e2ff;}.cls-13{fill:#a5cbfa;}.cls-14{fill:#031f60;}.cls-15{fill:#1e3779;}.cls-16{fill:#344593;}.cls-17{fill:#2b3d89;}.cls-18{fill:#dceeff;}.cls-19{opacity:0.4;}.cls-20{fill:#fafdff;}.cls-21{fill:#7aa3e5;}.cls-22{fill:#57f7e0;}.cls-23{fill:#6cffe6;}.cls-24{fill:#abffef;}.cls-25{fill:#fff;}</style></defs><g class="cls-1"><g id="Layer_2" data-name="Layer 2"><g id="Objects"><path class="cls-2" d="M7,105.67,15.09,101c5.51-3.18,13.11-3.94,17-1.71s2.56,6.63-2.95,9.81L21,113.77c-5.51,3.18-13.11,3.94-17,1.7S1.46,108.85,7,105.67Z"/><path class="cls-3" d="M39.29,46.34a22.32,22.32,0,0,0-2.69-.85,8.71,8.71,0,0,1-2.64-.7c-.91-.4-2.89-3.16-4.41-5.65a23.51,23.51,0,0,1-3.13-8.85c-.21-3.25-.06-9.79-.23-12s-1.09-3-2.29-3.52c-1.42-.66-2.55-.36-2.7,2.9s-.21,9.56.73,13.92a30.41,30.41,0,0,0,3.77,9.2,35.59,35.59,0,0,0,5.43,6.64A30.29,30.29,0,0,1,33,49.86a10,10,0,0,0,3.67,3c1.26.51,1.79.5,2,.29s.13-.58-.42-.88a8.32,8.32,0,0,1-2.41-1.68s1.16.71,1.89,1.08a8.37,8.37,0,0,0,2.05.71c.7.12,1.43-.61.89-.93s-1-.41-2.12-1A8.08,8.08,0,0,1,37,49.45a16.09,16.09,0,0,0,2.28.81,3.36,3.36,0,0,0,1.92.05c.33-.09.62-.64-.1-1a12.19,12.19,0,0,1-2.75-1c-.85-.52-1.37-1-1.18-1.06s.66.28,1.52.34,1.67-.37,1.66-.83S40.12,46.53,39.29,46.34Z"/><path class="cls-4" d="M22,14.49c-1.34,1-1.87,2.79-1.48,8.26a45.43,45.43,0,0,0,2.47,13.11,28.1,28.1,0,0,0,7.17,10.69,5.71,5.71,0,0,1,2.72-3S29,38.31,27.75,35s-1.34-8.66-1.35-11.67.33-5.77-.88-7.47S22.45,14.13,22,14.49Z"/><path class="cls-5" d="M20,95.6a12.68,12.68,0,0,1-.22,1.59,6.55,6.55,0,0,0-.11,2.47c.16.57,1.55,1.32,2.47,1.4a5.56,5.56,0,0,1,2.92,1.61A5.26,5.26,0,0,0,29.14,104c1.26-.2,2.68-.57,3-1.1s-.17-1.09-2.93-2.86-4.6-2.83-5.53-4.55Z"/><path class="cls-5" d="M8.58,99.73a4.66,4.66,0,0,0-.66,3,16.86,16.86,0,0,1-.2,4.18,7.61,7.61,0,0,0,1.34,4.65,2,2,0,0,0,3.4-.56,7.89,7.89,0,0,0,.34-5c-.45-1.76.15-3.11-.15-4.29a9.87,9.87,0,0,0-.71-2Z"/><path class="cls-6" d="M8.58,51c.07,2,.69,10.58,1,15.13s.34,10.14.34,10.14-.79,3.31-1.3,7.21,0,16.21,0,16.21a3.13,3.13,0,0,0,3.36,0S14,89.88,15,85.44s1.14-7,1.64-9.74c.61-3.33,1.92-18.86,1.92-18.86l.53,0L20.5,74.4a19.72,19.72,0,0,0-.89,4C19.24,81.23,20,95.6,20,95.6a3.48,3.48,0,0,0,3.62-.15s3.51-19,3.51-21.92c0-1.92-.33-27.16-.33-27.16Z"/><path class="cls-7" d="M18.57,56.84a24.49,24.49,0,0,0,4.58-2.43,19.75,19.75,0,0,1-2.39,2.17c-.79.49-.55,14.2-.55,14.2L19.1,56.87Z"/><path class="cls-3" d="M13.33,12.76s.23,4.31.13,4.7-2,1.64-2.53,2.1,3,3.94,4.7,4.73,7.17-1.29,7.26-4-.93-4.92-1.76-5S13.33,12.76,13.33,12.76Z"/><path class="cls-8" d="M20.43,17.7c.57-.51-.09-1.65-.48-2.44-1.79-.54-6.62-2.5-6.62-2.5s.05,1,.08,1.68h0a2.83,2.83,0,0,0,1.16,2.13,8,8,0,0,0,1.92,1.13C17.2,18,19.12,18.88,20.43,17.7Z"/><path class="cls-9" d="M12.85,18.2s3.13,4.67,7.51,5.11c1.38-1.36,1.5-6.19-.41-7.74,0,0,1.76-1.41,3-1.14a6.2,6.2,0,0,1,2.7,3.44,28.52,28.52,0,0,1,1.54,10c-.08,4.58,0,18.58,0,18.58s-.61,3-4.57,5.16S15.69,54,13,53.41c-2.21-.52-4-1.3-4.81-2.9.2-3.22,1.64-11.6,1.1-15.63S7.91,27.82,7.69,24.56s.43-3.2,2.07-4.36A25.73,25.73,0,0,1,12.85,18.2Z"/><path class="cls-3" d="M10.64,57.1a21.54,21.54,0,0,0-2.11-1.89A6.09,6.09,0,0,1,6.45,53.5c-.59-.89-1-3.91-1.26-6.81a28.74,28.74,0,0,1,1-9.65c1.18-3.73,3.68-8.77,4.49-10.89S10.94,23,10.09,22c-1-1.2-2.74-1.14-4.27,1.75A60.65,60.65,0,0,0,1.1,36.33a30.26,30.26,0,0,0-.55,9.93,35.53,35.53,0,0,0,2.07,8.33c.27.8.27,1.45.61,3a10,10,0,0,0,2,4.32c.91,1,1.4,1.22,1.68,1.12s.37-.47,0-1a8.29,8.29,0,0,1-1.46-2.55s.74,1.14,1.25,1.79a8.1,8.1,0,0,0,1.55,1.52c.57.41,1.55.06,1.2-.46s-.77-.82-1.5-1.78A7.94,7.94,0,0,1,7,59,15.74,15.74,0,0,0,8.7,60.67a3.46,3.46,0,0,0,1.71.87c.33.06.83-.32.31-.9a12.9,12.9,0,0,1-2-2.13c-.54-.82-.8-1.48-.61-1.46s.48.54,1.23,1,1.66.37,1.86-.05S11.31,57.63,10.64,57.1Z"/><path class="cls-4" d="M8.87,20.8c-1.62.28-3.22,2.06-5.26,7.14A45.58,45.58,0,0,0,.09,40.82,27.55,27.55,0,0,0,2.17,53.71a5.7,5.7,0,0,1,3.88-1.87,61.83,61.83,0,0,1-.55-9.92A35.47,35.47,0,0,1,8.87,31.14c1.31-2.71,2.71-4.9,2.39-7.26S9.48,20.69,8.87,20.8Z"/><path class="cls-4" d="M20.36,23.31a24.87,24.87,0,0,0,.37-3.19,10.19,10.19,0,0,0-1.21-3.45V15.46a2.89,2.89,0,0,1,1.6,1,6.74,6.74,0,0,1,1.58,4.75A5.57,5.57,0,0,1,20.36,23.31Z"/><path class="cls-9" d="M20.36,23.31c.31-.62.92-2.69,1.22-3,.57-.19,1.12.94,1.12.94A3,3,0,0,1,22,23.14,1.37,1.37,0,0,1,20.36,23.31Z"/><path class="cls-10" d="M21.58,20.31c-.3.31-.91,2.38-1.22,3a9.66,9.66,0,0,1,.66-1c.33-.42.72-1.21,1.68-1.06C22.7,21.25,22.15,20.12,21.58,20.31Z"/><path class="cls-4" d="M13.49,16.7c.08.66,3.59,3.28,4.43,3.62s2.44,3,2.44,3a3.48,3.48,0,0,0-3.2,1.25s-5-2.1-5.8-5.46c0,0,.93-1.8,1.07-2.26s.51-1,1-1Z"/><path class="cls-9" d="M17.16,24.56s.37-2.58.91-2.81,2.29,1.56,2.29,1.56A4.82,4.82,0,0,1,17.16,24.56Z"/><path class="cls-10" d="M18.07,21.75c-.54.23-.91,2.81-.91,2.81A10.68,10.68,0,0,1,19,23.14a3.3,3.3,0,0,1,1.36.17S18.6,21.52,18.07,21.75Z"/><path class="cls-3" d="M23.11,6.32h0C22.59,3,20.18.43,16.72.62a6.67,6.67,0,0,0-6.29,7,6.6,6.6,0,0,0,2.9,5.1,6.67,6.67,0,0,0,.54,1.47c1.22,1.43,4.92,2.31,6,2.16a3.16,3.16,0,0,0,2.75-2.25C23.75,11.49,23.39,8,23.11,6.32Z"/><path class="cls-11" d="M22.6,3.62A6.57,6.57,0,0,0,15.7.75a6.67,6.67,0,0,0-4.19,2.88c-1.33.52-1.29,2.45-1.26,3.05a7.51,7.51,0,0,0,3.08,6.07c-.07-.22-1.81-2.83,0-3.4a2.17,2.17,0,0,1,.38,1.36s.88-.08.68-1.12c0-.3-.1-.56-.15-.8a3.06,3.06,0,0,1,.51-2.31A2.7,2.7,0,0,0,15.2,4.3a9,9,0,0,0,5.06.39A4.56,4.56,0,0,0,22.6,3.62Z"/><path class="cls-11" d="M11.51,3.63S11.1,2.31,12.79,1c2-1.53,4.87-1.19,7.86,0,1.92.77,4.88-.17,4.31,2C24.12,6.26,17.9,6.54,15.2,4.3A7.05,7.05,0,0,0,11.51,3.63Z"/><path class="cls-3" d="M13.33,12.73s-.15.36-.8.39c-1.21.06-2.63-2.19-1.66-3.72a1.58,1.58,0,0,1,2.44-.05Z"/><path class="cls-2" d="M192.17,99.45,127,61.84a5.63,5.63,0,0,0-5.09,0L21.06,120.12c-1.4.82-1.4,2.13,0,2.94L86.2,160.67a5.66,5.66,0,0,0,5.1,0l100.87-58.28C193.58,101.58,193.58,100.26,192.17,99.45Z"/><path class="cls-12" d="M193.23,92.19h0V86.44l-2.51-1.88L129,55.82c-5.38-3.1-7.66-3.1-9.06-2.29L34.94,102.62,20,107.14v5.75h0a1.77,1.77,0,0,0,1,1.45L86.2,152a5.66,5.66,0,0,0,5.1,0L192.17,93.69A1.79,1.79,0,0,0,193.23,92.19Z"/><path class="cls-13" d="M20,107.14v5.75h0a1.77,1.77,0,0,0,1,1.45L86.2,152a5.2,5.2,0,0,0,2.55.61l-.07-35.39-36.6-24.5-17.14,9.93Z"/><path class="cls-14" d="M187,86.58,162,72.22a3.77,3.77,0,0,0-3.4,0l-.59.34a3.75,3.75,0,0,1-3.39,0l-12.53-7.23a1,1,0,0,1,0-2l.59-.34a1,1,0,0,0,0-2L124.14,50.31a3.75,3.75,0,0,0-3.39,0L26.16,105c-.94.55-.94,1.42,0,2L89,143.21a3.69,3.69,0,0,0,3.39,0L187,88.54A1,1,0,0,0,187,86.58Z"/><polygon class="cls-15" points="160.33 71.24 188.72 87.54 186.81 91.08 160.33 75.84 160.33 71.24"/><polygon class="cls-15" points="122.44 53.93 122.44 49.33 144.41 62.05 140.42 64.35 122.44 53.93"/><path class="cls-16" d="M92.4,143.21l94.24-54.47L162,74.58a3.77,3.77,0,0,0-3.4,0l-.59.34a3.75,3.75,0,0,1-3.39,0l-12.53-7.24a1,1,0,0,1,0-2l.34-.19-.34-.2a1,1,0,0,1,0-2l.24-.14L124.14,52.67a3.75,3.75,0,0,0-3.39,0L26.5,107.14,89,143.21A3.69,3.69,0,0,0,92.4,143.21Z"/><path class="cls-17" d="M162,74.58a3.77,3.77,0,0,0-3.4,0l-.59.34a3.75,3.75,0,0,1-3.39,0l-12.53-7.24a1,1,0,0,1,0-2l.34-.19-.34-.2a1,1,0,0,1,0-2l.24-.14L124.14,52.67a3.48,3.48,0,0,0-1.7-.41s11.61,13.3,10,36.52c-1,14.5-27.59,46.95-38,53.26l92.2-53.3Z"/><path class="cls-15" d="M141.42,64.35V66.7a1.19,1.19,0,0,0,.7,1l12.53,7.24a3.51,3.51,0,0,0,1.79.4v-3Z"/><path class="cls-18" d="M192.17,85,127,47.38a5.63,5.63,0,0,0-5.09,0L21.06,105.67c-1.4.81-1.4,2.12,0,2.94l65.14,37.6a5.66,5.66,0,0,0,5.1,0L192.17,87.93C193.58,87.12,193.58,85.8,192.17,85ZM187,88.54,92.4,143.21a3.69,3.69,0,0,1-3.39,0L26.16,106.94c-.94-.54-.94-1.41,0-2l94.59-54.67a3.75,3.75,0,0,1,3.39,0l18.57,10.76a1,1,0,0,1,0,2l-.59.34a1,1,0,0,0,0,2l12.53,7.23a3.75,3.75,0,0,0,3.39,0l.59-.34a3.77,3.77,0,0,1,3.4,0L187,86.58A1,1,0,0,1,187,88.54Z"/><g class="cls-19"><polygon class="cls-20" points="58.13 86.51 65.9 82.02 62 82.02 54.22 86.51 58.13 86.51"/><polygon class="cls-20" points="87.36 69.61 102.89 60.63 99.01 60.63 83.46 69.61 87.36 69.61"/><polygon class="cls-20" points="35.58 99.54 51.12 90.56 47.21 90.56 31.67 99.54 35.58 99.54"/><polygon class="cls-20" points="127.87 52.47 133.36 55.66 141.36 55.66 135.85 52.47 127.87 52.47"/><path class="cls-20" d="M150,60.63h-8l.76.44a1,1,0,0,1,0,2l-.59.34a1,1,0,0,0,0,2l7.42,4.28h16Z"/><polygon class="cls-20" points="45.59 118.16 37.81 113.67 29.82 113.67 37.6 118.16 45.59 118.16"/><polygon class="cls-20" points="111.5 55.66 117.01 52.47 113.13 52.47 107.62 55.66 111.5 55.66"/><polygon class="cls-20" points="183.5 90.56 167.96 99.54 172.08 99.54 187.63 90.56 183.5 90.56"/><path class="cls-20" d="M192.17,85,187,82h-8l7.8,4.49h6.37A1.75,1.75,0,0,0,192.17,85Z"/><polygon class="cls-20" points="143.52 113.67 135.75 118.16 139.86 118.16 147.63 113.67 143.52 113.67"/><polygon class="cls-20" points="128.75 122.21 113.21 131.19 117.3 131.19 132.85 122.21 128.75 122.21"/><polygon class="cls-20" points="68.17 131.19 52.61 122.21 44.62 122.21 60.18 131.19 68.17 131.19"/><polygon class="cls-20" points="86.6 141.83 79.01 137.44 71.01 137.44 78.6 141.83 86.6 141.83"/><polygon class="cls-20" points="102.39 137.44 94.8 141.83 98.89 141.83 106.48 137.44 102.39 137.44"/></g><path class="cls-14" d="M148.09,64.19l6.08,3.5c.52.31.61.74.21,1a1.91,1.91,0,0,1-1.68-.12L146.62,65c-.52-.3-.62-.74-.21-1A1.87,1.87,0,0,1,148.09,64.19Z"/><path class="cls-21" d="M48.8,127.8c0-.66,1.39-.39,3.09.6s3.09,2.31,3.09,3v1.19L48.8,129Z"/><path class="cls-21" d="M56.9,133.29a.86.86,0,0,0,.39.68c.21.12.39,0,.39-.23a.89.89,0,0,0-.39-.68C57.07,132.94,56.9,133,56.9,133.29Z"/><path class="cls-21" d="M58.82,134.4a.88.88,0,0,0,.39.68c.22.12.4,0,.4-.23a.86.86,0,0,0-.4-.67C59,134.05,58.82,134.15,58.82,134.4Z"/><path class="cls-21" d="M60.75,135.52a.86.86,0,0,0,.39.67c.22.13.39,0,.39-.22a.86.86,0,0,0-.39-.68C60.93,135.17,60.75,135.27,60.75,135.52Z"/><path class="cls-21" d="M62.68,136.63a.89.89,0,0,0,.39.68c.22.12.39,0,.39-.23a.86.86,0,0,0-.39-.68C62.86,136.28,62.68,136.38,62.68,136.63Z"/><path class="cls-21" d="M64.61,137.74a.85.85,0,0,0,.39.68c.22.13.39,0,.39-.22a.85.85,0,0,0-.39-.68C64.78,137.39,64.61,137.49,64.61,137.74Z"/><path class="cls-21" d="M66.54,138.86a.83.83,0,0,0,.39.67c.21.13.39,0,.39-.22a.89.89,0,0,0-.39-.68C66.71,138.51,66.54,138.61,66.54,138.86Z"/><path class="cls-21" d="M68.47,140a.86.86,0,0,0,.39.68c.21.12.39,0,.39-.23a.86.86,0,0,0-.39-.67C68.64,139.62,68.47,139.72,68.47,140Z"/><path class="cls-21" d="M56.85,131.28a.86.86,0,0,0,.39.68c.21.12.39,0,.39-.23a.89.89,0,0,0-.39-.68C57,130.93,56.85,131,56.85,131.28Z"/><path class="cls-21" d="M58.77,132.39a.89.89,0,0,0,.39.68c.22.12.4,0,.4-.23a.84.84,0,0,0-.4-.67C59,132,58.77,132.14,58.77,132.39Z"/><path class="cls-21" d="M60.7,133.51a.86.86,0,0,0,.39.67c.22.13.39,0,.39-.22a.85.85,0,0,0-.39-.68C60.88,133.16,60.7,133.26,60.7,133.51Z"/><path class="cls-21" d="M62.63,134.62a.89.89,0,0,0,.39.68c.22.12.39,0,.39-.23a.86.86,0,0,0-.39-.68C62.81,134.27,62.63,134.37,62.63,134.62Z"/><path class="cls-21" d="M64.56,135.73a.88.88,0,0,0,.39.68c.22.12.39,0,.39-.23a.83.83,0,0,0-.39-.67C64.74,135.38,64.56,135.48,64.56,135.73Z"/><path class="cls-21" d="M66.49,136.85a.83.83,0,0,0,.39.67c.21.13.39,0,.39-.22a.89.89,0,0,0-.39-.68C66.66,136.5,66.49,136.6,66.49,136.85Z"/><path class="cls-21" d="M68.42,138a.86.86,0,0,0,.39.68c.21.12.39,0,.39-.23a.89.89,0,0,0-.39-.68C68.59,137.61,68.42,137.71,68.42,138Z"/><path class="cls-21" d="M34.21,120.19a.89.89,0,0,0,.39.68c.22.12.39,0,.39-.23a.86.86,0,0,0-.39-.68C34.39,119.84,34.21,119.94,34.21,120.19Z"/><path class="cls-21" d="M36.14,121.3a.89.89,0,0,0,.39.68c.22.12.39,0,.39-.23a.83.83,0,0,0-.39-.67C36.32,121,36.14,121.05,36.14,121.3Z"/><path class="cls-21" d="M38.07,122.41a.85.85,0,0,0,.39.68c.22.13.39,0,.39-.22a.85.85,0,0,0-.39-.68C38.24,122.06,38.07,122.17,38.07,122.41Z"/><path class="cls-21" d="M40,123.53a.86.86,0,0,0,.39.68c.21.12.39,0,.39-.23a.89.89,0,0,0-.39-.68C40.17,123.18,40,123.28,40,123.53Z"/><path class="cls-21" d="M41.93,124.64a.86.86,0,0,0,.39.68c.21.12.39,0,.39-.23a.86.86,0,0,0-.39-.67C42.1,124.29,41.93,124.39,41.93,124.64Z"/><path class="cls-21" d="M43.86,125.76a.85.85,0,0,0,.39.67c.21.13.39,0,.39-.22a.88.88,0,0,0-.39-.68C44,125.4,43.86,125.51,43.86,125.76Z"/><path class="cls-21" d="M45.78,126.87a.89.89,0,0,0,.39.68c.22.12.39,0,.39-.23a.86.86,0,0,0-.39-.68C46,126.52,45.78,126.62,45.78,126.87Z"/><path class="cls-21" d="M34.16,118.18a.86.86,0,0,0,.39.67c.22.13.39,0,.39-.22a.86.86,0,0,0-.39-.68C34.34,117.83,34.16,117.93,34.16,118.18Z"/><path class="cls-21" d="M36.09,119.29a.89.89,0,0,0,.39.68c.22.12.39,0,.39-.23a.86.86,0,0,0-.39-.68C36.27,118.94,36.09,119,36.09,119.29Z"/><path class="cls-21" d="M38,120.4a.85.85,0,0,0,.39.68c.22.13.39,0,.39-.22a.85.85,0,0,0-.39-.68C38.19,120.05,38,120.15,38,120.4Z"/><path class="cls-21" d="M40,121.52a.83.83,0,0,0,.39.67c.21.13.39,0,.39-.22a.89.89,0,0,0-.39-.68C40.12,121.17,40,121.27,40,121.52Z"/><path class="cls-21" d="M41.88,122.63a.86.86,0,0,0,.39.68c.21.12.39,0,.39-.23a.86.86,0,0,0-.39-.67C42.05,122.28,41.88,122.38,41.88,122.63Z"/><path class="cls-21" d="M43.81,123.74a.85.85,0,0,0,.39.68c.21.13.39,0,.39-.22a.88.88,0,0,0-.39-.68C44,123.39,43.81,123.5,43.81,123.74Z"/><path class="cls-21" d="M45.73,124.86a.89.89,0,0,0,.39.68c.22.12.39,0,.39-.23a.86.86,0,0,0-.39-.68C45.91,124.51,45.73,124.61,45.73,124.86Z"/><path class="cls-14" d="M155.09,69a.44.44,0,0,0,0,.83,1.57,1.57,0,0,0,1.43,0,.44.44,0,0,0,0-.83A1.63,1.63,0,0,0,155.09,69Z"/><polygon class="cls-22" points="120.53 85.02 136.45 94.23 136.45 43.66 120.53 34.46 120.53 85.02"/><polygon class="cls-23" points="136.45 94.23 148.39 87.33 148.39 36.77 136.45 43.66 136.45 94.23"/><polygon class="cls-24" points="148.39 36.77 132.47 27.56 120.53 34.46 136.45 43.66 148.39 36.77"/><path class="cls-25" d="M136.45,94.23a2.34,2.34,0,0,1-.38-1.58V87.91l0-6.32,0-12.65.1-12.64.19-12.64.19,12.64.1,12.64,0,12.65,0,6.32v4.74A2.34,2.34,0,0,1,136.45,94.23Z"/><path class="cls-25" d="M148.39,36.77c.06.4,0,.48-.19.54l-.37.21-.75.43-1.5.85c-1,.56-2,1.13-3,1.67-2,1.09-4,2.18-6.12,3.19,1.91-1.28,3.87-2.5,5.82-3.7,1-.61,2-1.18,3-1.78l1.48-.87.75-.43.37-.22C148,36.57,148.08,36.51,148.39,36.77Z"/><polygon class="cls-22" points="100.63 96.47 116.54 105.7 116.55 61.99 100.63 52.76 100.63 96.47"/><polygon class="cls-23" points="116.54 105.7 128.49 98.81 128.49 55.1 116.55 61.99 116.54 105.7"/><polygon class="cls-24" points="128.49 55.1 112.56 45.87 100.63 52.76 116.55 61.99 128.49 55.1"/><path class="cls-25" d="M116.54,105.7a1.78,1.78,0,0,1-.37-1.36v-4.1l0-5.46,0-10.93.11-10.93L116.55,62l.18,10.93.11,10.93,0,10.93,0,5.46v4.1A1.75,1.75,0,0,1,116.54,105.7Z"/><path class="cls-25" d="M128.49,55.1c.06.4-.06.48-.19.54l-.37.21-.75.43-1.5.85c-1,.56-2,1.13-3,1.67-2,1.09-4,2.18-6.11,3.19,1.91-1.28,3.86-2.49,5.82-3.7,1-.61,2-1.18,2.95-1.78l1.49-.87.74-.43.38-.22C128,54.9,128.17,54.84,128.49,55.1Z"/><polygon class="cls-22" points="80.72 108 96.64 117.19 96.64 85.02 80.72 75.83 80.72 108"/><polygon class="cls-23" points="96.64 117.19 108.59 110.3 108.58 78.12 96.64 85.02 96.64 117.19"/><polygon class="cls-24" points="108.58 78.12 92.66 68.93 80.72 75.83 96.64 85.02 108.58 78.12"/><path class="cls-25" d="M96.64,117.19a1,1,0,0,1-.37-1v-3l0-4,0-8c.06-5.37.13-10.73.29-16.09.16,5.36.23,10.72.3,16.09l0,8,0,4v3A1,1,0,0,1,96.64,117.19Z"/><path class="cls-25" d="M108.58,78.12c.07.4,0,.49-.18.54l-.38.22-.75.42-1.49.86c-1,.55-2,1.13-3,1.67-2,1.09-4.05,2.18-6.12,3.19,1.91-1.29,3.87-2.5,5.83-3.7,1-.61,2-1.19,3-1.78l1.49-.87.74-.44L108,78C108.14,77.93,108.27,77.87,108.58,78.12Z"/><polygon class="cls-22" points="60.82 119.49 76.77 128.69 76.77 105.7 60.82 96.51 60.82 119.49"/><polygon class="cls-23" points="76.77 128.69 88.71 121.79 88.71 98.81 76.77 105.7 76.77 128.69"/><polygon class="cls-24" points="88.71 98.81 72.76 89.62 60.82 96.51 76.77 105.7 88.71 98.81"/><path class="cls-25" d="M76.77,128.69a.66.66,0,0,1-.38-.72v-5c0-1.91,0-3.83.06-5.74.06-3.83.13-7.67.29-11.5.16,3.83.23,7.67.29,11.5,0,1.91,0,3.83,0,5.74l0,2.88V128A.67.67,0,0,1,76.77,128.69Z"/><path class="cls-25" d="M88.71,98.81c.06.4,0,.48-.19.54l-.37.21-.75.43-1.5.85c-1,.56-2,1.13-3,1.67-2,1.1-4,2.18-6.12,3.19,1.91-1.28,3.86-2.49,5.82-3.7,1-.61,2-1.18,3-1.78L87,99.35l.75-.43.37-.22C88.26,98.61,88.4,98.55,88.71,98.81Z"/></g></g></g></svg>