<svg xmlns="http://www.w3.org/2000/svg" xmlns:xlink="http://www.w3.org/1999/xlink" viewBox="0 0 365.24 355.97"><defs><style>.cls-1{isolation:isolate;}.cls-2{fill:#8686f2;mix-blend-mode:lighten;}.cls-10,.cls-11,.cls-12,.cls-13,.cls-14,.cls-15,.cls-16,.cls-23,.cls-24,.cls-3,.cls-31,.cls-4,.cls-46,.cls-5{opacity:0.5;}.cls-3{fill:url(#Áåçûìÿííûé_ãðàäèåíò_209);}.cls-4{fill:url(#Áåçûìÿííûé_ãðàäèåíò_254);}.cls-5{fill:url(#Áåçûìÿííûé_ãðàäèåíò_209-2);}.cls-6{fill:url(#Áåçûìÿííûé_ãðàäèåíò_18);}.cls-7{fill:#bcbeff;}.cls-8{fill:#fff;}.cls-9{fill:#0f054c;}.cls-10{fill:url(#Áåçûìÿííûé_ãðàäèåíò_254-2);}.cls-11{fill:url(#Áåçûìÿííûé_ãðàäèåíò_254-3);}.cls-12{fill:url(#Áåçûìÿííûé_ãðàäèåíò_254-4);}.cls-13{fill:url(#Áåçûìÿííûé_ãðàäèåíò_254-5);}.cls-14,.cls-17,.cls-25,.cls-33,.cls-34,.cls-35,.cls-36{fill:#42e8e0;}.cls-15{fill:url(#Áåçûìÿííûé_ãðàäèåíò_254-6);}.cls-16{fill:url(#Áåçûìÿííûé_ãðàäèåíò_254-7);}.cls-17{opacity:0.8;}.cls-18,.cls-41{opacity:0.11;}.cls-19{fill:url(#Áåçûìÿííûé_ãðàäèåíò_209-3);}.cls-20{fill:url(#Áåçûìÿííûé_ãðàäèåíò_209-4);}.cls-21{fill:url(#Áåçûìÿííûé_ãðàäèåíò_209-5);}.cls-22{fill:url(#Áåçûìÿííûé_ãðàäèåíò_209-6);}.cls-23{fill:url(#Áåçûìÿííûé_ãðàäèåíò_209-7);}.cls-26{fill:url(#Áåçûìÿííûé_ãðàäèåíò_209-9);}.cls-27{fill:url(#Áåçûìÿííûé_ãðàäèåíò_209-10);}.cls-28{fill:url(#Áåçûìÿííûé_ãðàäèåíò_209-11);}.cls-29{fill:url(#Áåçûìÿííûé_ãðàäèåíò_209-12);}.cls-30{fill:url(#Áåçûìÿííûé_ãðàäèåíò_209-13);}.cls-31{fill:url(#Áåçûìÿííûé_ãðàäèåíò_209-14);}.cls-32{fill:url(#Áåçûìÿííûé_ãðàäèåíò_209-16);}.cls-33{opacity:0.5;}.cls-34{opacity:0.75;}.cls-35{opacity:0.88;}.cls-36{opacity:0.97;}.cls-37{fill:url(#Áåçûìÿííûé_ãðàäèåíò_209-17);}.cls-38{fill:url(#Áåçûìÿííûé_ãðàäèåíò_209-18);}.cls-39{fill:url(#Áåçûìÿííûé_ãðàäèåíò_209-19);}.cls-40{fill:url(#Áåçûìÿííûé_ãðàäèåíò_209-20);}.cls-41{fill:url(#Áåçûìÿííûé_ãðàäèåíò_209-21);}.cls-42{fill:url(#Áåçûìÿííûé_ãðàäèåíò_209-22);}.cls-43{fill:url(#Áåçûìÿííûé_ãðàäèåíò_209-23);}.cls-44{fill:url(#Áåçûìÿííûé_ãðàäèåíò_209-24);}.cls-45{fill:url(#Áåçûìÿííûé_ãðàäèåíò_209-25);}.cls-46{fill:url(#Áåçûìÿííûé_ãðàäèåíò_209-26);}.cls-47{fill:url(#Áåçûìÿííûé_ãðàäèåíò_209-28);}.cls-48{fill:#180d5b;opacity:0.2;}.cls-49{fill:#160a5b;}.cls-50{fill:#24126a;}.cls-51{fill:#453c9e;}.cls-52{fill:url(#Áåçûìÿííûé_ãðàäèåíò_209-29);}.cls-53{fill:url(#Áåçûìÿííûé_ãðàäèåíò_209-30);}.cls-54{fill:#f0f6ff;}.cls-55{fill:#fcd1c5;}.cls-56{fill:#4846a5;}.cls-57{fill:#aa8383;}.cls-58{fill:#c4ccd6;}.cls-59{fill:#e2b1a6;}.cls-60{fill:url(#Áåçûìÿííûé_ãðàäèåíò_209-31);}.cls-61{fill:#936d6d;}</style><linearGradient id="Áåçûìÿííûé_ãðàäèåíò_209" x1="215.22" y1="273.46" x2="261.71" y2="273.46" gradientUnits="userSpaceOnUse"><stop offset="0" stop-color="#5761d7"/><stop offset="0.07" stop-color="#5472d8"/><stop offset="0.28" stop-color="#4e9cdb"/><stop offset="0.48" stop-color="#49bddd"/><stop offset="0.67" stop-color="#45d5df"/><stop offset="0.85" stop-color="#43e3e0"/><stop offset="1" stop-color="#42e8e0"/></linearGradient><linearGradient id="Áåçûìÿííûé_ãðàäèåíò_254" x1="339" y1="273.39" x2="385.22" y2="273.39" gradientUnits="userSpaceOnUse"><stop offset="0" stop-color="#42e8e0"/><stop offset="0.15" stop-color="#43e3e0"/><stop offset="0.33" stop-color="#45d5df"/><stop offset="0.52" stop-color="#49bddd"/><stop offset="0.72" stop-color="#4e9cdb"/><stop offset="0.93" stop-color="#5472d8"/><stop offset="1" stop-color="#5761d7"/></linearGradient><linearGradient id="Áåçûìÿííûé_ãðàäèåíò_209-2" x1="212.87" y1="349.66" x2="387.02" y2="349.66" xlink:href="#Áåçûìÿííûé_ãðàäèåíò_209"/><linearGradient id="Áåçûìÿííûé_ãðàäèåíò_18" x1="68.63" y1="178.76" x2="264.11" y2="178.76" gradientUnits="userSpaceOnUse"><stop offset="0" stop-color="#5761d7"/><stop offset="0.16" stop-color="#5e67da"/><stop offset="0.41" stop-color="#727ae2"/><stop offset="0.69" stop-color="#9297ee"/><stop offset="1" stop-color="#bcbeff"/></linearGradient><linearGradient id="Áåçûìÿííûé_ãðàäèåíò_254-2" x1="123.95" y1="152.34" x2="241.28" y2="152.34" xlink:href="#Áåçûìÿííûé_ãðàäèåíò_254"/><linearGradient id="Áåçûìÿííûé_ãðàäèåíò_254-3" x1="182.62" y1="131.14" x2="241.28" y2="131.14" xlink:href="#Áåçûìÿííûé_ãðàäèåíò_254"/><linearGradient id="Áåçûìÿííûé_ãðàäèåíò_254-4" x1="123.95" y1="131.14" x2="182.62" y2="131.14" xlink:href="#Áåçûìÿííûé_ãðàäèåíò_254"/><linearGradient id="Áåçûìÿííûé_ãðàäèåíò_254-5" x1="123.95" y1="143.8" x2="241.28" y2="143.8" xlink:href="#Áåçûìÿííûé_ãðàäèåíò_254"/><linearGradient id="Áåçûìÿííûé_ãðàäèåíò_254-6" x1="182.62" y1="165.01" x2="241.28" y2="165.01" xlink:href="#Áåçûìÿííûé_ãðàäèåíò_254"/><linearGradient id="Áåçûìÿííûé_ãðàäèåíò_254-7" x1="123.95" y1="165.01" x2="182.62" y2="165.01" xlink:href="#Áåçûìÿííûé_ãðàäèåíò_254"/><linearGradient id="Áåçûìÿííûé_ãðàäèåíò_209-3" x1="117.47" y1="305.48" x2="247.02" y2="305.48" xlink:href="#Áåçûìÿííûé_ãðàäèåíò_209"/><linearGradient id="Áåçûìÿííûé_ãðàäèåíò_209-4" x1="117.47" y1="295.51" x2="247.02" y2="295.51" xlink:href="#Áåçûìÿííûé_ãðàäèåíò_209"/><linearGradient id="Áåçûìÿííûé_ãðàäèåíò_209-5" x1="117.47" y1="285.55" x2="247.02" y2="285.55" xlink:href="#Áåçûìÿííûé_ãðàäèåíò_209"/><linearGradient id="Áåçûìÿííûé_ãðàäèåíò_209-6" x1="117.47" y1="275.58" x2="247.02" y2="275.58" xlink:href="#Áåçûìÿííûé_ãðàäèåíò_209"/><linearGradient id="Áåçûìÿííûé_ãðàäèåíò_209-7" x1="117.47" y1="285.6" x2="247.02" y2="285.6" xlink:href="#Áåçûìÿííûé_ãðàäèåíò_209"/><linearGradient id="Áåçûìÿííûé_ãðàäèåíò_209-9" x1="117.47" y1="293.54" x2="247.02" y2="293.54" xlink:href="#Áåçûìÿííûé_ãðàäèåíò_209"/><linearGradient id="Áåçûìÿííûé_ãðàäèåíò_209-10" x1="353.15" y1="305.48" x2="482.71" y2="305.48" xlink:href="#Áåçûìÿííûé_ãðàäèåíò_209"/><linearGradient id="Áåçûìÿííûé_ãðàäèåíò_209-11" x1="353.15" y1="295.51" x2="482.71" y2="295.51" xlink:href="#Áåçûìÿííûé_ãðàäèåíò_209"/><linearGradient id="Áåçûìÿííûé_ãðàäèåíò_209-12" x1="353.15" y1="285.55" x2="482.71" y2="285.55" xlink:href="#Áåçûìÿííûé_ãðàäèåíò_209"/><linearGradient id="Áåçûìÿííûé_ãðàäèåíò_209-13" x1="353.15" y1="275.58" x2="482.71" y2="275.58" xlink:href="#Áåçûìÿííûé_ãðàäèåíò_209"/><linearGradient id="Áåçûìÿííûé_ãðàäèåíò_209-14" x1="353.15" y1="285.6" x2="482.71" y2="285.6" xlink:href="#Áåçûìÿííûé_ãðàäèåíò_209"/><linearGradient id="Áåçûìÿííûé_ãðàäèåíò_209-16" x1="353.15" y1="293.54" x2="482.71" y2="293.54" xlink:href="#Áåçûìÿííûé_ãðàäèåíò_209"/><linearGradient id="Áåçûìÿííûé_ãðàäèåíò_209-17" x1="158.93" y1="376.63" x2="280.74" y2="376.63" gradientTransform="matrix(-1, 0, 0, 1, 519.67, 0)" xlink:href="#Áåçûìÿííûé_ãðàäèåíò_209"/><linearGradient id="Áåçûìÿííûé_ãðàäèåíò_209-18" x1="158.93" y1="367.26" x2="280.74" y2="367.26" gradientTransform="matrix(-1, 0, 0, 1, 519.67, 0)" xlink:href="#Áåçûìÿííûé_ãðàäèåíò_209"/><linearGradient id="Áåçûìÿííûé_ãðàäèåíò_209-19" x1="158.93" y1="357.89" x2="280.74" y2="357.89" gradientTransform="matrix(-1, 0, 0, 1, 519.67, 0)" xlink:href="#Áåçûìÿííûé_ãðàäèåíò_209"/><linearGradient id="Áåçûìÿííûé_ãðàäèåíò_209-20" x1="158.93" y1="348.52" x2="280.74" y2="348.52" gradientTransform="matrix(-1, 0, 0, 1, 519.67, 0)" xlink:href="#Áåçûìÿííûé_ãðàäèåíò_209"/><linearGradient id="Áåçûìÿííûé_ãðàäèåíò_209-21" x1="158.93" y1="362.57" x2="280.74" y2="362.57" gradientTransform="matrix(-1, 0, 0, 1, 519.67, 0)" xlink:href="#Áåçûìÿííûé_ãðàäèåíò_209"/><linearGradient id="Áåçûìÿííûé_ãðàäèåíò_209-22" x1="145.99" y1="332.61" x2="293.68" y2="332.61" gradientTransform="matrix(-1, 0, 0, 1, 519.67, 0)" xlink:href="#Áåçûìÿííûé_ãðàäèåíò_209"/><linearGradient id="Áåçûìÿííûé_ãðàäèåíò_209-23" x1="145.99" y1="321.25" x2="293.68" y2="321.25" gradientTransform="matrix(-1, 0, 0, 1, 519.67, 0)" xlink:href="#Áåçûìÿííûé_ãðàäèåíò_209"/><linearGradient id="Áåçûìÿííûé_ãðàäèåíò_209-24" x1="145.99" y1="309.89" x2="293.68" y2="309.89" gradientTransform="matrix(-1, 0, 0, 1, 519.67, 0)" xlink:href="#Áåçûìÿííûé_ãðàäèåíò_209"/><linearGradient id="Áåçûìÿííûé_ãðàäèåíò_209-25" x1="145.99" y1="298.53" x2="293.68" y2="298.53" gradientTransform="matrix(-1, 0, 0, 1, 519.67, 0)" xlink:href="#Áåçûìÿííûé_ãðàäèåíò_209"/><linearGradient id="Áåçûìÿííûé_ãðàäèåíò_209-26" x1="145.99" y1="315.57" x2="293.68" y2="315.57" gradientTransform="matrix(-1, 0, 0, 1, 519.67, 0)" xlink:href="#Áåçûìÿííûé_ãðàäèåíò_209"/><linearGradient id="Áåçûìÿííûé_ãðàäèåíò_209-28" x1="145.99" y1="319.01" x2="293.68" y2="319.01" gradientTransform="matrix(-1, 0, 0, 1, 519.67, 0)" xlink:href="#Áåçûìÿííûé_ãðàäèåíò_209"/><linearGradient id="Áåçûìÿííûé_ãðàäèåíò_209-29" x1="158.11" y1="260.63" x2="173.7" y2="260.63" gradientTransform="matrix(-1, 0.06, 0.06, 1, 475.44, -53.73)" xlink:href="#Áåçûìÿííûé_ãðàäèåíò_209"/><linearGradient id="Áåçûìÿííûé_ãðàäèåíò_209-30" x1="180.14" y1="265.69" x2="212.75" y2="265.69" gradientTransform="matrix(-1, 0.06, 0.06, 1, 475.44, -53.73)" xlink:href="#Áåçûìÿííûé_ãðàäèåíò_209"/><linearGradient id="Áåçûìÿííûé_ãðàäèåíò_209-31" x1="165.16" y1="224.35" x2="218.19" y2="224.35" gradientTransform="matrix(-1, 0.06, 0.06, 1, 475.44, -53.73)" xlink:href="#Áåçûìÿííûé_ãðàäèåíò_209"/></defs><g class="cls-1"><g id="Ñëîé_1" data-name="Ñëîé 1"><path class="cls-2" d="M300.08,282.35a6.51,6.51,0,0,1-3.19-.75l-71.82-41.46a2.54,2.54,0,0,1-1.44-2.17,3.28,3.28,0,0,1,1.92-2.66l70.86-40.92a7.93,7.93,0,0,1,7.25-.27l71.82,41.46a2.54,2.54,0,0,1,1.44,2.17,3.28,3.28,0,0,1-1.92,2.66l-70.86,40.92A8.38,8.38,0,0,1,300.08,282.35Zm-2.64-1.71a6.94,6.94,0,0,0,6.15-.28l70.86-40.91a2.3,2.3,0,0,0,1.36-1.7,1.51,1.51,0,0,0-.88-1.2L303.1,195.08a7,7,0,0,0-6.14.28L226.1,236.27a2.3,2.3,0,0,0-1.36,1.7,1.51,1.51,0,0,0,.88,1.2Z" transform="translate(-117.47 -55.18)"/><path class="cls-3" d="M215.78,287.12a.56.56,0,0,1-.28-1l45.37-26.2a.56.56,0,0,1,.56,1L216.06,287A.6.6,0,0,1,215.78,287.12Z" transform="translate(-117.47 -55.18)"/><path class="cls-4" d="M384.67,287a.57.57,0,0,1-.28-.08l-45.11-26a.56.56,0,1,1,.55-1L385,285.93a.56.56,0,0,1,.2.76A.55.55,0,0,1,384.67,287Z" transform="translate(-117.47 -55.18)"/><path class="cls-5" d="M300.09,374.46a10.59,10.59,0,0,1-5.29-1.41c-18.49-10.72-80.08-46.33-81.55-47a.55.55,0,0,1-.36-.69.59.59,0,0,1,.71-.37c1,.28,81,46.61,81.76,47.07a9.48,9.48,0,0,0,9.47,0l81.35-47.15a.56.56,0,0,1,.76.2.54.54,0,0,1-.2.76L305.39,373A10.56,10.56,0,0,1,300.09,374.46Z" transform="translate(-117.47 -55.18)"/><polygon class="cls-6" points="258.89 152.33 258.89 161.15 182.62 205.18 106.34 161.15 106.34 152.33 258.89 152.33"/><polygon class="cls-7" points="182.62 196.37 106.34 152.33 182.62 108.3 258.89 152.33 182.62 196.37"/><polygon class="cls-8" points="182.62 195.34 107.23 151.82 106.34 152.33 182.62 196.37 258.89 152.33 258 151.82 182.62 195.34"/><polygon class="cls-9" points="182.62 186.21 123.95 152.34 182.62 118.47 241.28 152.34 182.62 186.21"/><polygon class="cls-10" points="182.62 186.21 123.95 152.34 182.62 118.47 241.28 152.34 182.62 186.21"/><polygon class="cls-11" points="182.62 109.93 241.28 143.8 241.28 152.34 182.62 118.47 182.62 109.93"/><polygon class="cls-12" points="182.62 118.47 123.95 152.34 123.95 143.8 182.62 109.93 182.62 118.47"/><polygon class="cls-13" points="182.62 177.67 123.95 143.8 182.62 109.93 241.28 143.8 182.62 177.67"/><polygon class="cls-14" points="182.62 157.34 159.18 143.8 182.62 130.27 206.06 143.8 182.62 157.34"/><polygon class="cls-14" points="182.62 131.51 204.98 144.43 206.06 143.8 182.62 130.27 159.18 143.8 160.25 144.43 182.62 131.51"/><polygon class="cls-15" points="182.62 177.67 182.62 186.21 241.28 152.34 241.28 143.8 182.62 177.67"/><polygon class="cls-16" points="123.95 143.8 123.95 152.34 182.62 186.21 182.62 177.67 123.95 143.8"/><polygon class="cls-17" points="182.62 176.74 124.76 143.34 123.95 143.8 182.62 177.67 241.28 143.8 240.48 143.34 182.62 176.74"/><g class="cls-18"><path class="cls-19" d="M187.25,270.09a9.93,9.93,0,0,0-9.92,0l-59.16,34.07a1.4,1.4,0,0,0,0,2.42L177.82,341a8.73,8.73,0,0,0,8.76,0l59.74-34.4a1.39,1.39,0,0,0,0-2.42Z" transform="translate(-117.47 -55.18)"/></g><g class="cls-18"><path class="cls-20" d="M187.25,260.13a9.91,9.91,0,0,0-9.92,0L118.17,294.2a1.4,1.4,0,0,0,0,2.42l59.65,34.44a8.78,8.78,0,0,0,8.76,0l59.74-34.41a1.39,1.39,0,0,0,0-2.42Z" transform="translate(-117.47 -55.18)"/></g><g class="cls-18"><path class="cls-21" d="M187.25,250.16a9.93,9.93,0,0,0-9.92,0l-59.16,34.08a1.4,1.4,0,0,0,0,2.42l59.65,34.44a8.73,8.73,0,0,0,8.76,0l59.74-34.41a1.39,1.39,0,0,0,0-2.42Z" transform="translate(-117.47 -55.18)"/></g><g class="cls-18"><path class="cls-22" d="M187.25,240.19a9.93,9.93,0,0,0-9.92,0l-59.16,34.08a1.39,1.39,0,0,0,0,2.41l59.65,34.45a8.78,8.78,0,0,0,8.76,0l59.74-34.41a1.39,1.39,0,0,0,0-2.42Z" transform="translate(-117.47 -55.18)"/></g><path class="cls-23" d="M246.32,274.3l-59.07-34.11a9.93,9.93,0,0,0-9.92,0l-59.16,34.08a1.36,1.36,0,0,0-.7,1.21v20a1.38,1.38,0,0,0,.7,1.21l59.65,34.44a8.73,8.73,0,0,0,8.76,0l59.74-34.41a1.35,1.35,0,0,0,.7-1.2v-20h0A1.38,1.38,0,0,0,246.32,274.3Z" transform="translate(-117.47 -55.18)"/><g class="cls-18"><path class="cls-22" d="M187.25,240.19a9.93,9.93,0,0,0-9.92,0l-59.16,34.08a1.39,1.39,0,0,0,0,2.41l59.65,34.45a8.78,8.78,0,0,0,8.76,0l59.74-34.41a1.39,1.39,0,0,0,0-2.42Z" transform="translate(-117.47 -55.18)"/></g><g class="cls-24"><path class="cls-25" d="M184.37,259.73a4.22,4.22,0,0,0-4.21,0L153.66,275a.62.62,0,0,0,0,1.08l26.61,15.37a3.9,3.9,0,0,0,3.91,0l26.66-15.35a.63.63,0,0,0,0-1.08Z" transform="translate(-117.47 -55.18)"/></g><path class="cls-25" d="M153.66,276l26.5-15.27a4.2,4.2,0,0,1,4.21,0L210.84,276l.06.06a.61.61,0,0,0-.06-1l-26.47-15.28a4.22,4.22,0,0,0-4.21,0L153.66,275a.61.61,0,0,0-.06,1Z" transform="translate(-117.47 -55.18)"/><path class="cls-26" d="M246.32,275.34l-59.74,34.41a8.78,8.78,0,0,1-8.76,0l-59.65-34.44a1.44,1.44,0,0,1-.52-.52,1.39,1.39,0,0,0,.52,1.89l59.65,34.45a8.78,8.78,0,0,0,8.76,0l59.74-34.41a1.39,1.39,0,0,0,.52-1.9A1.3,1.3,0,0,1,246.32,275.34Z" transform="translate(-117.47 -55.18)"/><g class="cls-18"><path class="cls-27" d="M422.94,270.09a10,10,0,0,0-9.93,0l-59.16,34.07a1.4,1.4,0,0,0,0,2.42L413.5,341a8.73,8.73,0,0,0,8.76,0L482,306.62a1.4,1.4,0,0,0,0-2.42Z" transform="translate(-117.47 -55.18)"/></g><g class="cls-18"><path class="cls-28" d="M422.94,260.13a9.92,9.92,0,0,0-9.93,0L353.85,294.2a1.4,1.4,0,0,0,0,2.42l59.65,34.44a8.78,8.78,0,0,0,8.76,0L482,296.65a1.4,1.4,0,0,0,0-2.42Z" transform="translate(-117.47 -55.18)"/></g><g class="cls-18"><path class="cls-29" d="M422.94,250.16a10,10,0,0,0-9.93,0l-59.16,34.08a1.4,1.4,0,0,0,0,2.42l59.65,34.44a8.73,8.73,0,0,0,8.76,0L482,286.68a1.4,1.4,0,0,0,0-2.42Z" transform="translate(-117.47 -55.18)"/></g><g class="cls-18"><path class="cls-30" d="M422.94,240.19a10,10,0,0,0-9.93,0l-59.16,34.08a1.39,1.39,0,0,0,0,2.41l59.65,34.45a8.78,8.78,0,0,0,8.76,0L482,276.72a1.4,1.4,0,0,0,0-2.42Z" transform="translate(-117.47 -55.18)"/></g><path class="cls-31" d="M482,274.3l-59.07-34.11a10,10,0,0,0-9.93,0l-59.16,34.08a1.38,1.38,0,0,0-.7,1.21v20a1.4,1.4,0,0,0,.7,1.21l59.65,34.44a8.73,8.73,0,0,0,8.76,0L482,296.75a1.37,1.37,0,0,0,.7-1.2v-20h0A1.4,1.4,0,0,0,482,274.3Z" transform="translate(-117.47 -55.18)"/><g class="cls-18"><path class="cls-30" d="M422.94,240.19a10,10,0,0,0-9.93,0l-59.16,34.08a1.39,1.39,0,0,0,0,2.41l59.65,34.45a8.78,8.78,0,0,0,8.76,0L482,276.72a1.4,1.4,0,0,0,0-2.42Z" transform="translate(-117.47 -55.18)"/></g><g class="cls-24"><path class="cls-25" d="M420.05,259.73a4.2,4.2,0,0,0-4.2,0L389.34,275a.62.62,0,0,0,0,1.08L416,291.44a3.9,3.9,0,0,0,3.91,0l26.66-15.35a.62.62,0,0,0,0-1.08Z" transform="translate(-117.47 -55.18)"/></g><path class="cls-25" d="M389.34,276l26.51-15.27a4.18,4.18,0,0,1,4.2,0L446.52,276s0,0,.06.06a.61.61,0,0,0-.06-1l-26.47-15.28a4.2,4.2,0,0,0-4.2,0L389.34,275a.61.61,0,0,0-.06,1Z" transform="translate(-117.47 -55.18)"/><path class="cls-32" d="M482,275.34l-59.75,34.41a8.78,8.78,0,0,1-8.76,0l-59.65-34.44a1.44,1.44,0,0,1-.52-.52,1.39,1.39,0,0,0,.52,1.89l59.65,34.45a8.78,8.78,0,0,0,8.76,0L482,276.72a1.41,1.41,0,0,0,.52-1.9A1.37,1.37,0,0,1,482,275.34Z" transform="translate(-117.47 -55.18)"/><path class="cls-33" d="M466.66,192V156.55c-.82-12.08-5.6-23.59-13.62-34.11v35.43c8,10.53,12.8,22,13.62,34.11ZM448.94,152.9V117.46a101.33,101.33,0,0,0-9.38-9.24v35.43a101.41,101.41,0,0,1,9.38,9.25Zm-15.19-14V103.5a137.35,137.35,0,0,0-11.95-8.14V130.8a137.28,137.28,0,0,1,11.95,8.13Zm-20-2.23V80.33c32.64,17.32,53,42.08,53,69.49v56.37c0-27.4-20.38-52.17-53-69.49Z" transform="translate(-117.47 -55.18)"/><path class="cls-33" d="M354.07,109.64V99.46q-3.74-.72-7.55-1.33v10.18q3.81.61,7.55,1.33ZM340.49,97.23v-9q-3.87-.54-7.82-1v9q3.94.43,7.82,1Zm26.65,5.09V90q-3.58-.89-7.25-1.68v12.28q3.66.8,7.25,1.68Zm-40.7-6.66V77.52q-4-.34-8-.57V95.08c2.7.15,5.38.35,8,.58Zm-29.18-1V76.5q-4.1.06-8.15.24V94.87q4-.16,8.15-.24Zm-14.49.59V72.41q-4,.27-8,.64v22.8c2.64-.24,5.29-.46,8-.63ZM312,94.78V68.69c-2.44-.08-4.9-.14-7.37-.16h-.87V94.61h.87c2.47,0,4.93.08,7.37.16ZM268.64,96.5V63.87q-3.9.45-7.74,1V97.52q3.84-.55,7.74-1ZM244.29,61.08a276.58,276.58,0,0,1,60.33-5.88c28.34.28,54.88,4.64,77.95,12.09v56.38c-23.07-7.45-49.61-11.81-77.95-12.1a277.2,277.2,0,0,0-60.33,5.88V61.08Z" transform="translate(-117.47 -55.18)"/><path class="cls-33" d="M148.37,137.54V126.19a68.46,68.46,0,0,0-8,15.13v33.61a68.62,68.62,0,0,1,8-15.12V148.46c1-1.41,2-2.79,3.1-4.17v6.12a91.63,91.63,0,0,1,6.78-7.6v-6.12c10.64-10.7,24.8-20.09,41.57-27.65V98.12q-4.48,2-8.7,4.21-2.12,1.1-4.16,2.23a128.88,128.88,0,0,0-27.75,20.26l-1,1v-6.12a90.16,90.16,0,0,0-6.78,7.61v6.12q-1.64,2.06-3.1,4.16Zm-10.21-.35c6.41-27.51,33.36-51.21,71.59-65.95v56.37c-38.23,14.75-65.18,38.44-71.59,66V137.19Z" transform="translate(-117.47 -55.18)"/><path class="cls-34" d="M158.25,125.77l1-1v10.92a121.47,121.47,0,0,1,19.85-15.57q3.81-2.43,7.9-4.7V104.56q2-1.14,4.16-2.23v10.91c2.81-1.45,5.71-2.86,8.7-4.2v0c-16.77,7.56-30.93,16.95-41.57,27.65V125.77Zm-9.88,11.77q1.47-2.1,3.1-4.16v10.91c-1.09,1.38-2.12,2.76-3.1,4.17V137.54Z" transform="translate(-117.47 -55.18)"/><path class="cls-35" d="M191.12,102.33q4.22-2.19,8.7-4.21V109c-3,1.34-5.89,2.75-8.7,4.2V102.33Z" transform="translate(-117.47 -55.18)"/><path class="cls-35" d="M159.21,124.82a122,122,0,0,1,19.85-15.57v10.92a121.47,121.47,0,0,0-19.85,15.57V124.82Z" transform="translate(-117.47 -55.18)"/><path class="cls-36" d="M179.06,109.25q3.81-2.41,7.9-4.69v10.91q-4.08,2.28-7.9,4.7V109.25Z" transform="translate(-117.47 -55.18)"/><path class="cls-34" d="M140.36,141.32a68.46,68.46,0,0,1,8-15.13v11.35a68.46,68.46,0,0,0-8,15.13v10.91a68.4,68.4,0,0,1,8-15.12v11.35a68.62,68.62,0,0,0-8,15.12V141.32Z" transform="translate(-117.47 -55.18)"/><path class="cls-35" d="M140.36,152.67a68.46,68.46,0,0,1,8-15.13v10.92a68.4,68.4,0,0,0-8,15.12V152.67Z" transform="translate(-117.47 -55.18)"/><path class="cls-34" d="M151.47,144.29a91.63,91.63,0,0,1,6.78-7.6v6.12a91.63,91.63,0,0,0-6.78,7.6v-6.12Zm0-17a90.16,90.16,0,0,1,6.78-7.61v6.12a91.74,91.74,0,0,0-6.78,7.61v-6.12Z" transform="translate(-117.47 -55.18)"/><path class="cls-35" d="M151.47,133.38a91.74,91.74,0,0,1,6.78-7.61v10.92a91.63,91.63,0,0,0-6.78,7.6V133.38Z" transform="translate(-117.47 -55.18)"/><path class="cls-34" d="M453,122.44c8,10.52,12.8,22,13.62,34.11V192c-.82-12.07-5.6-23.58-13.62-34.11V122.44Z" transform="translate(-117.47 -55.18)"/><path class="cls-25" d="M439.56,108.22a101.33,101.33,0,0,1,9.38,9.24V152.9a101.41,101.41,0,0,0-9.38-9.25V108.22Z" transform="translate(-117.47 -55.18)"/><path class="cls-34" d="M421.8,95.36a137.35,137.35,0,0,1,11.95,8.14v35.43a137.28,137.28,0,0,0-11.95-8.13V95.36Z" transform="translate(-117.47 -55.18)"/><path class="cls-34" d="M359.89,88.36q3.66.8,7.25,1.68v12.28q-3.58-.88-7.25-1.68V88.36Z" transform="translate(-117.47 -55.18)"/><path class="cls-34" d="M346.52,98.13q3.81.62,7.55,1.33v10.18q-3.74-.72-7.55-1.33V98.13Z" transform="translate(-117.47 -55.18)"/><path class="cls-34" d="M332.67,87.25q3.94.44,7.82,1v9q-3.87-.54-7.82-1v-9Z" transform="translate(-117.47 -55.18)"/><path class="cls-34" d="M318.4,77q4.05.22,8,.57V95.66c-2.66-.23-5.34-.43-8-.58V77Z" transform="translate(-117.47 -55.18)"/><path class="cls-34" d="M303.75,68.52h.87c2.47,0,4.93.08,7.37.16V94.78c-2.44-.08-4.9-.14-7.37-.16h-.87V68.52Z" transform="translate(-117.47 -55.18)"/><path class="cls-25" d="M289.11,76.74q4-.18,8.15-.24V94.63q-4.1.08-8.15.24V76.74Z" transform="translate(-117.47 -55.18)"/><path class="cls-34" d="M274.81,73.05q4-.37,8-.64V95.22c-2.67.17-5.32.39-8,.63V73.05Z" transform="translate(-117.47 -55.18)"/><path class="cls-25" d="M260.9,64.89q3.84-.57,7.74-1V96.5q-3.9.47-7.74,1V64.89Z" transform="translate(-117.47 -55.18)"/><g class="cls-18"><path class="cls-37" d="M295.13,343.36a9.34,9.34,0,0,1,9.33,0l55.62,32a1.31,1.31,0,0,1,0,2.28L304,410.05a8.25,8.25,0,0,1-8.24,0L239.59,377.7a1.32,1.32,0,0,1,0-2.28Z" transform="translate(-117.47 -55.18)"/></g><g class="cls-18"><path class="cls-38" d="M295.13,334a9.34,9.34,0,0,1,9.33,0l55.62,32a1.31,1.31,0,0,1,0,2.28L304,400.68a8.25,8.25,0,0,1-8.24,0l-56.17-32.35a1.32,1.32,0,0,1,0-2.28Z" transform="translate(-117.47 -55.18)"/></g><g class="cls-18"><path class="cls-39" d="M295.13,324.62a9.34,9.34,0,0,1,9.33,0l55.62,32a1.31,1.31,0,0,1,0,2.28L304,391.31a8.25,8.25,0,0,1-8.24,0L239.59,359a1.32,1.32,0,0,1,0-2.28Z" transform="translate(-117.47 -55.18)"/></g><g class="cls-18"><path class="cls-40" d="M295.13,315.25a9.34,9.34,0,0,1,9.33,0l55.62,32a1.31,1.31,0,0,1,0,2.28L304,381.94a8.25,8.25,0,0,1-8.24,0l-56.17-32.35a1.32,1.32,0,0,1,0-2.28Z" transform="translate(-117.47 -55.18)"/></g><path class="cls-41" d="M239.59,347.31l55.54-32.06a9.34,9.34,0,0,1,9.33,0l55.62,32a1.3,1.3,0,0,1,.66,1.14v28.11a1.31,1.31,0,0,1-.66,1.14L304,410.05a8.25,8.25,0,0,1-8.24,0L239.59,377.7a1.33,1.33,0,0,1-.65-1.14V348.45h0A1.33,1.33,0,0,1,239.59,347.31Z" transform="translate(-117.47 -55.18)"/><g class="cls-18"><path class="cls-42" d="M294.13,292.27a11.33,11.33,0,0,1,11.32,0l67.44,38.85a1.59,1.59,0,0,1,0,2.75l-68,39.27a10,10,0,0,1-10,0l-68.11-39.23a1.6,1.6,0,0,1,0-2.76Z" transform="translate(-117.47 -55.18)"/></g><g class="cls-18"><path class="cls-43" d="M294.13,280.91a11.33,11.33,0,0,1,11.32,0l67.44,38.84a1.6,1.6,0,0,1,0,2.76l-68,39.26a10,10,0,0,1-10,0l-68.11-39.22a1.6,1.6,0,0,1,0-2.76Z" transform="translate(-117.47 -55.18)"/></g><g class="cls-18"><path class="cls-44" d="M294.13,269.55a11.35,11.35,0,0,1,11.32,0l67.44,38.85a1.6,1.6,0,0,1,0,2.76l-68,39.26a10,10,0,0,1-10,0l-68.11-39.22a1.6,1.6,0,0,1,0-2.76Z" transform="translate(-117.47 -55.18)"/></g><g class="cls-18"><path class="cls-45" d="M294.13,258.19a11.35,11.35,0,0,1,11.32,0L372.89,297a1.6,1.6,0,0,1,0,2.76l-68,39.26a10,10,0,0,1-10,0l-68.11-39.22a1.6,1.6,0,0,1,0-2.76Z" transform="translate(-117.47 -55.18)"/></g><path class="cls-46" d="M226.79,297.07l67.34-38.88a11.35,11.35,0,0,1,11.32,0L372.89,297a1.57,1.57,0,0,1,.79,1.38v34.08a1.56,1.56,0,0,1-.79,1.38l-68,39.27a10,10,0,0,1-10,0l-68.11-39.23a1.58,1.58,0,0,1-.8-1.38V298.45h0A1.57,1.57,0,0,1,226.79,297.07Z" transform="translate(-117.47 -55.18)"/><g class="cls-18"><path class="cls-45" d="M294.13,258.19a11.35,11.35,0,0,1,11.32,0L372.89,297a1.6,1.6,0,0,1,0,2.76l-68,39.26a10,10,0,0,1-10,0l-68.11-39.22a1.6,1.6,0,0,1,0-2.76Z" transform="translate(-117.47 -55.18)"/></g><path class="cls-47" d="M226.79,298.26l68.11,39.22a10,10,0,0,0,10,0l68-39.26a1.59,1.59,0,0,0,.59-.59,1.59,1.59,0,0,1-.59,2.16l-68,39.26a10,10,0,0,1-10,0l-68.11-39.22a1.6,1.6,0,0,1-.59-2.17A1.54,1.54,0,0,0,226.79,298.26Z" transform="translate(-117.47 -55.18)"/><ellipse class="cls-48" cx="182.37" cy="243.35" rx="37.13" ry="21.44"/><path class="cls-49" d="M314,280.35s.9.95,1.84,2a24.63,24.63,0,0,0,4.68,3.34c1.1.69,6.17,4.53,7.23,8.31s-2.56,4.29-6.27,3.63-7.16-4.08-8.17-5.31a35,35,0,0,0-9.06-6.39c-4.55-2.35-1.8-5.51-1.8-5.51Z" transform="translate(-117.47 -55.18)"/><path class="cls-49" d="M280.22,291.59a14,14,0,0,0-1,3.89c-.21,2.19-.52,6.93-.63,8.32a11.7,11.7,0,0,0,2.28,8c2.44,3.25,3.7,4.53,6.95,3.25s3.17-6.72,2.59-9.52a80.28,80.28,0,0,1-1.05-9.73,2,2,0,0,0-.18-1.08Z" transform="translate(-117.47 -55.18)"/><path class="cls-50" d="M325.17,216.09s-.68,25-6.51,38.24a96.74,96.74,0,0,0-4.72,25.57,4.93,4.93,0,0,1-.4,4.33c-1.36,1.95-9.91,3.73-11.32-2.66s-.87-18.34.68-23.32-.55-18.72-.55-18.72S300,241,297,250.89s-5.31,13.63-6.37,16.36-2,19.45-1.35,27.61c0,0-6.92,1-8.92-2.32s-2.67-20.42-2.17-25.88,2.79-22.94,2.48-28.35-1.44-9.8-.2-15.2,37.75-17.4,37.75-17.4Z" transform="translate(-117.47 -55.18)"/><path class="cls-49" d="M280.62,238.31c-.31-5.4-1.44-9.8-.2-15.2.46-2,5.91-5,12.53-7.9,11.18-1,25.36-2.21,26.33-2.06a37.14,37.14,0,0,1,5.11,1.78l.78,1.16s0,1.52-.19,4c-2.61.78-7.62,0-7.62,0-.71,1.76-5.06,8-10.48,10.67s-21.27,1.77-22.18,2.79-1.08,14.7-1,16.44-1.5,12.68-3,22.36.76,21.1.83,21.47a3.89,3.89,0,0,1-1.27-1.25c-2-3.31-2.67-20.42-2.17-25.88S280.93,243.72,280.62,238.31Z" transform="translate(-117.47 -55.18)"/><path class="cls-51" d="M313,134.39s8.1,1.85,10.82,2.49a1.39,1.39,0,0,1,1,.86c.79,2,2.76,8.18,1.27,17.21a85.91,85.91,0,0,0-1.24,18.59l3.74,19.5s4.71,18.58,4.31,19.08-10.85,8.46-14.11,7.34-2.19-3-2.19-3-2.65,13.47-14.35,13.34-21.26-.09-23.25-4.82.55-24.62,2.61-32.49,7-23.57,7-23.57l-17.14-19L286,138.79s3.5-6.5,4.93-7.32,2.19-.13,2.19-.13Z" transform="translate(-117.47 -55.18)"/><path class="cls-52" d="M318.53,215.17c0,.68.38,1.68,2.48,2.4,2.28.78,7.84-2.6,11.49-5.15-1.82,1.52-10.79,8.06-13.77,7a5.27,5.27,0,0,1-1.47-.73A25.1,25.1,0,0,0,318.53,215.17Z" transform="translate(-117.47 -55.18)"/><path class="cls-53" d="M279,223.43c2.1,5,12.18,4.95,24.53,5.09a13.27,13.27,0,0,0,7.68-2.22,12.5,12.5,0,0,1-9.05,3.53c-11.7-.13-21.26-.09-23.25-4.83-.65-1.55-.81-4.74-.67-8.6C278.24,219.54,278.46,222.07,279,223.43Z" transform="translate(-117.47 -55.18)"/><path class="cls-54" d="M291.28,131.3s-3,3.62,1.31,8.51A117.45,117.45,0,0,1,303.69,156c2.43,4.21,4.67,6.45,5.94,10.07,0,0,.18-4.3.35-10.93.16-6.26.24-12.76,0-14.4C309.37,137.41,294.59,129.66,291.28,131.3Z" transform="translate(-117.47 -55.18)"/><path class="cls-55" d="M302.47,142.19s1.54,1,2.06.88a10,10,0,0,0,2.23-1.73s4.25-.08,4.71-1.9a38.86,38.86,0,0,1,1.2-4.6c.43-.94,2.26-5.48,2.28-7.32s-.06-5.14.74-6.88,1.86-19.18-15-18.68-11.6,18-11.6,18-1.23.52-.49,2.77.91,2.49,1.29,3.6a5,5,0,0,0,1.64,2.74l.28,2.07a8.34,8.34,0,0,0,1.29,6.25C295.22,140.43,302.47,142.19,302.47,142.19Z" transform="translate(-117.47 -55.18)"/><path class="cls-50" d="M324.24,137.08s1.79.27,7.62,14.92c3.25,8.17,8.26,16.64,9.32,22.72s.47,12.57-.73,13-22.08,8.27-28.63,10.74A.62.62,0,0,1,311,198l-1.81-10.11,13-5a18.45,18.45,0,0,1,4.8-4.15s-2.61-4.8-2.44-6.11-.23-14.86,1.29-20.38S324.24,137.08,324.24,137.08Z" transform="translate(-117.47 -55.18)"/><path class="cls-55" d="M316.63,175.8s1.79-1.2,2.23-1.37,2.84-1,3.29-1.19a8.66,8.66,0,0,1,2.43,0,.77.77,0,0,1,.6.4c.55,1,2.09,4,1.91,5.14,0,0-4.32,2.73-4.8,3.95l-.69.15S318.7,176.7,316.63,175.8Z" transform="translate(-117.47 -55.18)"/><path class="cls-50" d="M281.55,192.52c.5-1.9,1.16-4.24,1.87-6.72l26.3,11.28a27.72,27.72,0,0,1-21.66,9.06,18.1,18.1,0,0,1-8.55-2.71A105.28,105.28,0,0,1,281.55,192.52Z" transform="translate(-117.47 -55.18)"/><path class="cls-50" d="M271.38,150s6.93,1,12.54,9.84A134.82,134.82,0,0,1,293.61,179l.19,1.15a4.68,4.68,0,0,0,6.52,3.51C306.23,181,315,177,316.63,175.8a15.09,15.09,0,0,1,6.67,9.74c1.14,5.46.85,5.48.85,5.48s-23.35,10.9-32.37,10.79-20.46-29.76-21.72-35.89S267.41,151.71,271.38,150Z" transform="translate(-117.47 -55.18)"/><path class="cls-56" d="M271.38,150s6.93,1,12.54,9.84A134.82,134.82,0,0,1,293.61,179l.19,1.15a4.68,4.68,0,0,0,6.52,3.51C306.23,181,315,177,316.63,175.8a15.09,15.09,0,0,1,6.67,9.74c1.14,5.46.85,5.48.85,5.48s-23.35,10.9-32.37,10.79-20.46-29.76-21.72-35.89S267.41,151.71,271.38,150Z" transform="translate(-117.47 -55.18)"/><path class="cls-51" d="M297,185s-2.94,2.75-4.22,1.24-.91-1.67-.91-1.67-2.65,0-3-1.69-1.63-.78-1.71-2.63,2.15-1.47,2.15-1.47Z" transform="translate(-117.47 -55.18)"/><path class="cls-55" d="M300.52,183.54s-.81-.75-1.85-1.63-2.74-4.55-3-4.87-3.81-3-5.51-3.07-.44,1.85-.05,2.12,2.05,1.09,2.05,1.09,1.71,1.44,1.9,1.65-4.74-.34-5.52.14a1.34,1.34,0,0,0,0,2.09,1.94,1.94,0,0,0,1,.33,1.72,1.72,0,0,0,.93,2.17c1.48.69,1.82.31,1.82.31s.13,2.57,2.58,2.06Z" transform="translate(-117.47 -55.18)"/><path class="cls-57" d="M316.07,111.73s2.19,7-3.59,5-11-5.32-12.83-4c-1.39,1-1.32,3.92-1.21,5.28a2.09,2.09,0,0,1-.35,1.31l-1.72,2.49a2,2,0,0,0-.33.95l-.12,1.73a.87.87,0,0,1-.82.81l-.39,0a.87.87,0,0,1-.91-.72l-.45-2.54s-1.36-3.43-4.23-2.08c0,0-1.93-2.59-1.29-8.12s3.12-11.27,14-12.19S316.07,111.73,316.07,111.73Z" transform="translate(-117.47 -55.18)"/><path class="cls-58" d="M299.49,148.35l1.62-1.26a8.86,8.86,0,0,1,2.09,2.57c.58,1.33,0,5.53,0,5.53l.5.85.61-1.11.51-5s-.55-3.68-.6-3.77a31.24,31.24,0,0,0-3.13.33A6.31,6.31,0,0,0,299.49,148.35Z" transform="translate(-117.47 -55.18)"/><path class="cls-58" d="M307.29,143.4a5.55,5.55,0,0,1,2.52.77s-1.82.09-2.11.12S307.29,143.4,307.29,143.4Z" transform="translate(-117.47 -55.18)"/><path class="cls-50" d="M304,143.79l-2.91,2.73a6.57,6.57,0,0,1,3.26,3.46s3.17.59,3.46-.56,0-4,.37-5.32S304,143.79,304,143.79Z" transform="translate(-117.47 -55.18)"/><path class="cls-50" d="M307.68,149.35a16.33,16.33,0,0,0,1.14,3.37c.59,1,1.19,2.09,1.19,2.09l-.07,14s-5.14-10.59-6.25-12.74c0,0,.17-5.1.65-6.06S307.68,149.35,307.68,149.35Z" transform="translate(-117.47 -55.18)"/><path class="cls-59" d="M293.89,128.71c3.37,9.74,12.87,12.63,12.87,12.63a10,10,0,0,1-2.23,1.73c-.52.08-2.06-.88-2.06-.88s-7.25-1.76-9.34-4.83a8.34,8.34,0,0,1-1.29-6.25l-.28-2.07A2.28,2.28,0,0,0,293.89,128.71Z" transform="translate(-117.47 -55.18)"/><path class="cls-50" d="M286.17,140.11s1.33,4.6,1.5,4.77a20.93,20.93,0,0,0,3.35-.19l-1.54,2.92s16,17.14,19.29,26.36a195,195,0,0,0-20.87-25.64l1.88-2.86-3.27.64Z" transform="translate(-117.47 -55.18)"/><path class="cls-50" d="M312.42,136.05l.85,1-1,.93,3,2.67s.9,18.75-2.71,31.17c0,0,4.9-11.39,3.79-31.68l-3.2-2.17,1.05-1Z" transform="translate(-117.47 -55.18)"/><path class="cls-49" d="M302.35,239.53l-.11.08,4.14-4.4c-1.91,2.69.29,15,.52,17.86s-2.21,8.66-3.13,15.49,1,16.58,1,16.61a5.26,5.26,0,0,1-2.52-3.6c-1.41-6.39-.87-18.34.68-23.32S302.35,239.53,302.35,239.53Z" transform="translate(-117.47 -55.18)"/><path class="cls-60" d="M291.78,201.81c-9-.11-20.46-29.76-21.72-35.89-.21-1-.42-2.1-.62-3.19,0,.09,2.37,6.49,4.63,12.16s14.32,23.05,20.48,24.17c5.55,1,25.53-8.3,29.4-10.15.35,2.09.2,2.11.2,2.11S300.8,201.92,291.78,201.81Z" transform="translate(-117.47 -55.18)"/><path class="cls-61" d="M294.71,125.27a.87.87,0,0,1-.91-.72l-.45-2.54s-1.36-3.43-4.23-2.08c0,0-1.82-2.46-1.33-7.68,3.2,4.8,10.3,7,10.3,7l-1.72,2.49a2,2,0,0,0-.33.95l-.12,1.73a.87.87,0,0,1-.82.81Z" transform="translate(-117.47 -55.18)"/><path class="cls-33" d="M189.1,267.06v-9.53q2.86,1.53,5.86,3v9.53q-3-1.46-5.86-3Zm-18.75-11.91V237.6c1.58,1.19,3.21,2.37,4.9,3.52v17.55q-2.53-1.73-4.9-3.52Zm8.94,6.18v-20.7q2.63,1.67,5.39,3.26V264.6q-2.76-1.61-5.39-3.27Zm-24-19.77v-23c1.21,1.34,2.49,2.66,3.81,4v23c-1.32-1.3-2.6-2.62-3.81-4Zm7,7V223.67q2.11,1.91,4.37,3.75V252.3q-2.25-1.85-4.37-3.75Zm-17.93-22v-27q1.22,2.19,2.61,4.33v27q-1.39-2.15-2.61-4.33Zm4.9,7.67v-35.1q1.53,2.1,3.23,4.16v35.1q-1.69-2.06-3.23-4.16Zm-8.64-15.63V178.94q.89,2.26,2,4.49v39.64q-1.06-2.22-2-4.49ZM207,227.37c-37.72-15.19-63.77-39.2-69.23-66.7v56.38c5.46,27.5,31.51,51.5,69.23,66.7V227.37Z" transform="translate(-117.47 -55.18)"/><path class="cls-33" d="M317.58,290V277.28q9.74-.54,19.12-1.7V288.3q-9.37,1.15-19.12,1.7Zm-30.5.05V266.88q5.84.3,11.78.35,4.06,0,8.08,0v23.18q-4,.08-8.08,0-5.94-.06-11.78-.36Zm-29.39-3V251.58c6.14,1,12.44,1.75,18.86,2.31v35.44c-6.42-.57-12.72-1.34-18.86-2.32Zm89.06-.15V249.44q9.15-1.49,17.86-3.55v37.42q-8.7,2.07-17.86,3.55Zm32.9-53.54c-24,7.4-51.59,11.47-80.79,11.18a274.08,274.08,0,0,1-57.66-6.56v56.38a275.4,275.4,0,0,0,57.66,6.56c29.2.29,56.76-3.79,80.79-11.18V233.32Z" transform="translate(-117.47 -55.18)"/><path class="cls-33" d="M420.15,249.45V238.53c26.31-15.53,43.43-36.24,46.23-59.29v10.92c-2.8,23-19.92,43.75-46.23,59.29Zm46.61-41.57V151.5c-.84,27.58-22.15,52.19-55.48,69.16V277c33.33-17,54.64-41.59,55.48-69.16Z" transform="translate(-117.47 -55.18)"/><path class="cls-34" d="M466.38,179.24c-2.8,23-19.92,43.76-46.23,59.29v10.92c26.31-15.54,43.43-36.25,46.23-59.29V179.24Z" transform="translate(-117.47 -55.18)"/><path class="cls-25" d="M276.55,253.89c-6.42-.56-12.72-1.34-18.86-2.31V287c6.14,1,12.44,1.75,18.86,2.32V253.89Z" transform="translate(-117.47 -55.18)"/><path class="cls-25" d="M336.7,275.58q-9.37,1.16-19.12,1.7V290q9.74-.54,19.12-1.7V275.58Z" transform="translate(-117.47 -55.18)"/><path class="cls-25" d="M364.61,245.89q-8.7,2.06-17.86,3.55v37.42q9.15-1.49,17.86-3.55V245.89Z" transform="translate(-117.47 -55.18)"/><path class="cls-34" d="M306.94,267.2q-4,.07-8.08,0-5.94-.06-11.78-.35v23.17q5.84.3,11.78.36,4.06,0,8.08,0V267.2Z" transform="translate(-117.47 -55.18)"/><path class="cls-25" d="M142.61,183.43q-1.06-2.22-2-4.49v39.64q.89,2.26,2,4.49V183.43Z" transform="translate(-117.47 -55.18)"/><path class="cls-25" d="M147,203.89q-1.39-2.14-2.61-4.33v27q1.22,2.19,2.61,4.33v-27Z" transform="translate(-117.47 -55.18)"/><path class="cls-34" d="M152.53,203.27q-1.69-2.06-3.23-4.16v35.1q1.53,2.1,3.23,4.16v-35.1Z" transform="translate(-117.47 -55.18)"/><path class="cls-25" d="M159.11,222.55c-1.32-1.3-2.6-2.62-3.81-4v23c1.21,1.34,2.49,2.66,3.81,4v-23Z" transform="translate(-117.47 -55.18)"/><path class="cls-34" d="M166.7,227.42q-2.25-1.84-4.37-3.75v24.88q2.11,1.9,4.37,3.75V227.42Z" transform="translate(-117.47 -55.18)"/><path class="cls-34" d="M175.25,241.12c-1.69-1.15-3.32-2.33-4.9-3.52v17.55q2.37,1.8,4.9,3.52V241.12Z" transform="translate(-117.47 -55.18)"/><path class="cls-34" d="M184.68,243.89q-2.76-1.59-5.39-3.26v20.7q2.63,1.67,5.39,3.27V243.89Z" transform="translate(-117.47 -55.18)"/><path class="cls-34" d="M195,260.52q-3-1.45-5.86-3v9.53q2.86,1.53,5.86,3v-9.53Z" transform="translate(-117.47 -55.18)"/></g></g></svg>