<svg xmlns="http://www.w3.org/2000/svg" viewBox="0 0 125.33 90.78"><defs><style>.cls-1{isolation:isolate;}.cls-2{fill:#6b99d1;opacity:0.15;mix-blend-mode:multiply;}.cls-3{fill:#dceeff;}.cls-4{fill:#fff;}.cls-5{fill:#c8e2ff;}.cls-6{fill:#a5cbfa;}.cls-7{fill:#ffa8a7;}.cls-8{fill:#f5fbfb;}.cls-9{fill:#6a89ce;}.cls-10{fill:#2d2979;}.cls-11{fill:#c4d9ff;}.cls-12{fill:#aacaf9;}.cls-13{fill:#f28f8f;}.cls-14{fill:#7fa8e6;}.cls-15{fill:#3a2c6d;}.cls-16{fill:#eff6fe;}.cls-17{fill:#aad1fc;}.cls-18{fill:#aeb5b7;}</style></defs><g class="cls-1"><g id="Layer_2" data-name="Layer 2"><g id="Objects"><path class="cls-2" d="M124.46,64.73,105.79,54a4.58,4.58,0,0,0-4.17,0L83,64.73a1.27,1.27,0,0,0,0,2.41l18.67,10.78a4.64,4.64,0,0,0,4.17,0l18.67-10.78A1.27,1.27,0,0,0,124.46,64.73Z"/><path class="cls-3" d="M124.46,42.54,105.79,31.76a4.58,4.58,0,0,0-4.17,0L83,42.54A1.27,1.27,0,0,0,83,45l18.67,10.78a4.64,4.64,0,0,0,4.17,0L124.46,45A1.27,1.27,0,0,0,124.46,42.54Z"/><path class="cls-4" d="M103.7,32.26a3.31,3.31,0,0,1,1.59.36L124,43.4a.86.86,0,0,1,.37.34s-.08.18-.37.34L105.29,54.86a3.58,3.58,0,0,1-3.17,0L83.45,44.08c-.29-.16-.37-.31-.37-.34s.08-.17.37-.34l18.67-10.78a3.29,3.29,0,0,1,1.58-.36m0-1a4.27,4.27,0,0,0-2.08.5L83,42.54A1.27,1.27,0,0,0,83,45l18.67,10.78a4.6,4.6,0,0,0,4.17,0L124.46,45a1.27,1.27,0,0,0,0-2.41L105.79,31.76a4.28,4.28,0,0,0-2.09-.5Z"/><path class="cls-5" d="M125.33,62.59a1.5,1.5,0,0,1-.87,1.2L105.79,74.57a4.21,4.21,0,0,1-2.09.5V56.23a4.33,4.33,0,0,0,2.09-.5L124.46,45a1.46,1.46,0,0,0,.87-1.21Z"/><path class="cls-6" d="M82.08,62.59a1.48,1.48,0,0,0,.86,1.2l18.68,10.78a4.2,4.2,0,0,0,2.08.5V56.23a4.32,4.32,0,0,1-2.08-.5L82.94,45a1.47,1.47,0,0,1-.86-1.21Z"/><path class="cls-7" d="M90.08,32.93a29.17,29.17,0,0,1-4.17,5.67c-.45.52-.66,1-1.4,2.11a8.26,8.26,0,0,1-2.88,2.65c-1,.47-1.44.49-1.63.33s-.12-.48.31-.75a6.66,6.66,0,0,0,1.9-1.48s-.91.64-1.5,1a6.8,6.8,0,0,1-1.65.67c-.56.13-1.2-.44-.77-.72s.84-.38,1.7-.89a6.4,6.4,0,0,0,1.26-.94,13.49,13.49,0,0,1-1.84.76,2.86,2.86,0,0,1-1.57.13c-.27-.06-.53-.51,0-.78a10.25,10.25,0,0,0,2.2-1c.67-.46,1.08-.88.92-.92s-.53.26-1.23.35-1.38-.23-1.4-.61.14-.2.81-.4a19,19,0,0,1,2.16-.81,7.07,7.07,0,0,0,2.14-.69c.72-.37,2.23-2.71,3.36-4.82a69.77,69.77,0,0,0,2.43-7.7C90,21.5,91,16.24,91.5,14.45A2.93,2.93,0,0,1,93.93,12c1.25-.29,1.9,1.28,1.67,2.79C95.2,17.44,93.13,27.73,90.08,32.93Z"/><path class="cls-8" d="M85,34.74l-1.09,1.41a2.66,2.66,0,0,0,1.27,1.26c1,.61,1.44.52,1.44.52l1.06-1.35Z"/><path class="cls-9" d="M94,11.74c-1.27-.2-2.32,1-2.86,2.83s-1.65,7.22-2,8.64c-1.78,7.9-4.78,12.12-4.78,12.12a4.73,4.73,0,0,0,2.9,1.79,40.66,40.66,0,0,0,5.4-8.87,48.34,48.34,0,0,0,2.74-10.44C96.06,14.32,96.32,12.1,94,11.74Z"/><path class="cls-10" d="M81.34,67a9.9,9.9,0,0,0,.24,1.29,5.55,5.55,0,0,1,.19,2c-.11.47-1.46,1.15-2.2,1.24A4.67,4.67,0,0,0,77.24,73,4.31,4.31,0,0,1,74,74.17c-1-.11-2.22-.36-2.47-.78s.09-.9,2.28-2.46,3.66-2.5,4.35-4Z"/><path class="cls-10" d="M89.27,81.76a3.41,3.41,0,0,1-2.44,1.3,8.56,8.56,0,0,1-1.52.06c-.53,0-1.35-.32-1.3-1a1,1,0,0,1,.28-.56c.85-1.11,1.78-2.18,2.56-3.34a10.63,10.63,0,0,0,2.08-4.52l3.29,0c0,.28.08.67.13,1s.15.72.23,1.08A2.92,2.92,0,0,1,92.49,78a4.8,4.8,0,0,1-1.26,1.15A12.05,12.05,0,0,0,89.27,81.76Z"/><path class="cls-11" d="M106.42,38.79c1.19,7.43-2.11,10.21-6.41,11.79-3.08,1.13-7.49,2.88-7.49,2.88s.06,1.63.09,5.3c0,3.22-.39,15-.39,15a3.61,3.61,0,0,1-3.29,0s-1.73-9-2.1-13.09c-.5-5.52-1.34-9.13-1.06-10.31s6.28-4,8.19-5.6L81.33,49a21.9,21.9,0,0,1,.36,4.16C81.58,57.48,81.34,67,81.34,67a2.74,2.74,0,0,1-3.21,0S75,48.23,75.33,45.74s11.5-7.17,13.46-8.83C89.91,36,91.16,35,91.16,35Z"/><path class="cls-12" d="M94,44.72a7.55,7.55,0,0,1-2.84-3.53,5.51,5.51,0,0,0,.68,2.94c.09.52-10.47,4.82-10.47,4.82Z"/><path class="cls-7" d="M102.08,10.37s-.18,3.54-.1,3.86,1.62,1.35,2.07,1.72-2.44,3.23-3.85,3.88-5.88-1.06-6-3.25.77-4,1.45-4.14S102.08,10.37,102.08,10.37Z"/><path class="cls-13" d="M96.26,14.42c-.46-.42.08-1.35.4-2,1.46-.44,5.42-2.06,5.42-2.06s0,.82-.06,1.39h0a2.33,2.33,0,0,1-1,1.74,6.39,6.39,0,0,1-1.58.92C98.91,14.65,97.34,15.39,96.26,14.42Z"/><path class="cls-8" d="M102.48,14.75s-1.52,2.51-6.4,3a5.44,5.44,0,0,1,.58-5.12s-1.44-1.16-2.42-.94A5.14,5.14,0,0,0,92,14.49a23.14,23.14,0,0,0-1.26,8.19c.06,3.76-.12,13.08-.12,13.08S90,38.51,94.58,40.6a12.46,12.46,0,0,0,7.87,1.17c1.81-.42,3.75-1.12,4.14-2-.36-3-1.29-8.26-1-11.4.27-3.33,1-5.76,1.15-8.43s-.35-2.63-1.69-3.58A20.86,20.86,0,0,0,102.48,14.75Z"/><path class="cls-14" d="M96.66,12.6s-4.28,5.58-1.43,12c0,0-.65,13.66-.76,16.9a6.41,6.41,0,0,1-2.69-1.84,4.63,4.63,0,0,1-1.57-3.9s.26-5,.4-9.37-.12-8.07,1-11.19,2.92-3.67,2.92-3.67Z"/><path class="cls-9" d="M96.26,13.25V11.72a8.06,8.06,0,0,0-2,2.51,31.31,31.31,0,0,0-1.5,5.23c-.14.9,1.27,2.87,1.27,2.87s-1,1-.8,1.6S95,28.09,95,29.18c0-.19.24-4.61.24-4.61a23.12,23.12,0,0,1-.6-5.93C95,14.78,96.26,13.25,96.26,13.25Z"/><path class="cls-14" d="M102,14.23c0,1.13-1.7,4.16-6.75,10.34-.36,6.22-.76,16.9-.76,16.9s8.76,4.67,12.84.44c0,0-.27-2-1-5.37a41.54,41.54,0,0,1,0-11.84c.43-3.51,1.45-6.58,0-7.76A30.12,30.12,0,0,0,102,14.23Z"/><path class="cls-7" d="M94.07,5.09h0c.42-2.75,2.4-4.83,5.24-4.67a5.47,5.47,0,0,1,5.15,5.76,5.41,5.41,0,0,1-2.38,4.19,5.52,5.52,0,0,1-.44,1.2c-1,1.18-4,1.9-4.9,1.77a2.59,2.59,0,0,1-2.26-1.84A12.4,12.4,0,0,1,94.07,5.09Z"/><path class="cls-15" d="M94.48,2.88A5.39,5.39,0,0,1,100.14.53a5.51,5.51,0,0,1,4.31,4.83,5.43,5.43,0,0,1-2.37,5c.06-.19,1.49-2.32,0-2.79a1.79,1.79,0,0,0-.31,1.12s-.73-.07-.56-.93c0-.24.09-.45.12-.65a2.56,2.56,0,0,0-.41-1.9,2.17,2.17,0,0,1-.39-1.78,7.36,7.36,0,0,1-4.15.32A3.83,3.83,0,0,1,94.48,2.88Z"/><path class="cls-15" d="M100.55,3.44a6.1,6.1,0,0,1-3.21,1.05,5.24,5.24,0,0,1-4.78-2c-.73-1.41.72-.4,2-1.1s6.21-3,8.28.57c0,0,1.18.19,1.49.89a8,8,0,0,1-.26,4.77Z"/><path class="cls-7" d="M102.08,10.35s.13.29.66.32c1,.05,2.16-1.8,1.36-3a1.29,1.29,0,0,0-2,0Z"/><path class="cls-7" d="M101.3,46a19.62,19.62,0,0,1,1.91-1.32,4.14,4.14,0,0,0,1.63-1.19,18.06,18.06,0,0,0,1.94-5.41,23.26,23.26,0,0,0,.19-7.95c-.59-3.15-2.11-7.5-2.56-9.31a2.92,2.92,0,0,1,.87-3.33c.93-.88,2.34-.65,3.3,1.86a49.3,49.3,0,0,1,2.58,10.72,24.74,24.74,0,0,1-.56,8.13,29,29,0,0,1-2.52,6.57c-.3.62-.37,1.16-.8,2.41a8.18,8.18,0,0,1-2.07,3.31c-.85.73-1.26.85-1.48.75s-.25-.43.09-.8a6.54,6.54,0,0,0,1.45-1.93s-.72.85-1.19,1.33A6.75,6.75,0,0,1,102.66,51c-.51.28-1.27-.1-.93-.49s.71-.59,1.4-1.3a6.55,6.55,0,0,0,1-1.25,12.68,12.68,0,0,1-1.57,1.22,2.75,2.75,0,0,1-1.48.54c-.28,0-.64-.34-.16-.77a9.66,9.66,0,0,0,1.87-1.52c.53-.62.81-1.13.65-1.12s-.45.38-1.1.65-1.39.14-1.51-.22S100.7,46.4,101.3,46Z"/><path class="cls-8" d="M105.81,41.34l-.64,1.46s.15.69,1.47,1.29,1.75.37,1.75.37l.74-1.64Z"/><path class="cls-9" d="M95.23,24.57s3.41-4.86,4.66-6.5A16.75,16.75,0,0,0,102,13.81l0-.88a.81.81,0,0,1,.76.43c.22.47,1.37,2.05,1.37,2.05S103,19.69,101.83,21a6.47,6.47,0,0,1-2.91,1.76s.5,1.83-.07,2.23A16.78,16.78,0,0,0,95,29.18Z"/><path class="cls-9" d="M105.54,17.05c-.88.5-1.82,1.61-1.18,4.23s1.76,5.9,2.28,8.26a19.09,19.09,0,0,1,.11,7.6c-.5,2.26-1.27,4.69-1.27,4.69s1.81,1.68,3.51,1.61a27.45,27.45,0,0,0,2.29-8A35.33,35.33,0,0,0,109,20C107.31,15.81,105.54,17.05,105.54,17.05Z"/><path class="cls-16" d="M76.13,41.89,84.62,37a.48.48,0,0,1,.49,0L100,45.58l-8.73,5Z"/><polygon class="cls-17" points="91.34 49.9 95.92 47.26 82.53 39.53 77.93 42.16 91.34 49.9"/><polygon class="cls-18" points="93.59 42.56 93.51 42.61 91.26 43.9 87.27 41.6 87.19 41.55 89.52 40.21 93.59 42.56"/><polygon class="cls-17" points="93.51 42.61 91.26 43.9 87.27 41.6 89.52 40.3 93.51 42.61"/><path class="cls-5" d="M100,45.58v.2a.83.83,0,0,1-.4.71l-7.92,4.57a.81.81,0,0,1-.41.11.8.8,0,0,1-.4-.11L76.54,42.79a.81.81,0,0,1-.41-.71v-.19l15.13,8.73Z"/><path class="cls-17" d="M91.26,50.62v.55a.8.8,0,0,1-.4-.11L76.54,42.79a.81.81,0,0,1-.41-.71v-.19Z"/><path class="cls-16" d="M91,50.74a.93.93,0,0,1-.83-.06L76,42.45a1,1,0,0,1-.48-.68l-1.56-9.3c0-.06,0-.11,0-.16a.94.94,0,0,1,.29-.69L89,40.17a.75.75,0,0,1,.35.5Z"/><path class="cls-5" d="M91.26,50.62l-.09.06a.84.84,0,0,1-.14.06L89.35,40.67a.75.75,0,0,0-.35-.5L74.19,31.62a.75.75,0,0,1,.2-.15L89.23,40a.75.75,0,0,1,.35.5Z"/><path class="cls-17" d="M83,42.15a3.14,3.14,0,0,0-1.44-1.84c-.69-.4-1.16-.22-1.06.4A3.16,3.16,0,0,0,82,42.56C82.64,43,83.11,42.78,83,42.15Z"/><path class="cls-2" d="M93.71,74.73,86.22,70.4c-5.08-2.93-12.09-3.63-15.67-1.57s-2.35,6.11,2.73,9l7.49,4.32c5.08,2.93,12.09,3.64,15.67,1.57S98.79,77.66,93.71,74.73Z"/><path class="cls-2" d="M.86,73.85,19.54,63.07a4.64,4.64,0,0,1,4.17,0L42.38,73.85a1.27,1.27,0,0,1,0,2.41L23.71,87a4.58,4.58,0,0,1-4.17,0L.86,76.26A1.27,1.27,0,0,1,.86,73.85Z"/><path class="cls-3" d="M.86,52.05,19.54,41.27a4.64,4.64,0,0,1,4.17,0L42.38,52.05a1.27,1.27,0,0,1,0,2.41L23.71,65.24a4.58,4.58,0,0,1-4.17,0L.86,54.46A1.27,1.27,0,0,1,.86,52.05Z"/><path class="cls-4" d="M21.62,41.77a3.31,3.31,0,0,1,1.59.37L41.88,52.92c.29.17.36.31.37.34s-.08.17-.37.34L23.21,64.38a3.67,3.67,0,0,1-3.17,0L1.36,53.6c-.28-.17-.36-.31-.36-.34s.08-.17.36-.34L20,42.14a3.29,3.29,0,0,1,1.58-.37m0-1a4.27,4.27,0,0,0-2.08.5L.86,52.05a1.27,1.27,0,0,0,0,2.41L19.54,65.24a4.6,4.6,0,0,0,4.17,0L42.38,54.46a1.27,1.27,0,0,0,0-2.41L23.71,41.27a4.31,4.31,0,0,0-2.09-.5Z"/><path class="cls-6" d="M0,72.1a1.48,1.48,0,0,0,.86,1.21L19.54,84.09a4.28,4.28,0,0,0,2.08.5V65.74a4.08,4.08,0,0,1-2.08-.5L.86,54.46A1.45,1.45,0,0,1,0,53.26Z"/><path class="cls-5" d="M43.25,72.1a1.5,1.5,0,0,1-.87,1.21L23.71,84.09a4.32,4.32,0,0,1-2.09.5V65.74a4.12,4.12,0,0,0,2.09-.5L42.38,54.46a1.45,1.45,0,0,0,.87-1.2Z"/><path class="cls-10" d="M37.17,74.36a3.56,3.56,0,0,0,0,2.45,11.25,11.25,0,0,1-.06,3.55.73.73,0,0,0,.92.06s.33-3.31,1.18-2.94Z"/><path class="cls-7" d="M44,80.41c-.75-1.42-1.45-5.87-1.62-6.89a7.13,7.13,0,0,1,.06-2c.22-1.45,1.25-5,1.25-5l-3.14-1L39.36,71a3.09,3.09,0,0,1-.68,1.56,15.72,15.72,0,0,0-1.16,1.83,1.6,1.6,0,0,0,.27,2.15,13.65,13.65,0,0,1,2,2.36c.55.89.37,2,1.3,3s3,.61,3.44.33C45.13,81.88,45,81.45,44,80.41Z"/><path class="cls-10" d="M43.69,81.49c-2.29.27-2.7-.08-3-2.66-.25-2-.51-3.41-1.26-4.26-.9-1-.9-1.58-.57-2.21-.22,0-.49,0-.7.49-.46,1.07-1,1.2-1.11,2a2.29,2.29,0,0,0,.88,2,3.78,3.78,0,0,1,1.46,2.07c.39,1.17.13,2.38.36,3.46,1.39,1.39,3,2.39,5.59,1.55C46,82.72,46.42,82.2,44,80.41,44.38,81,44.55,81.39,43.69,81.49Z"/><path class="cls-10" d="M32.58,79.3a3.55,3.55,0,0,0,.33,2.43,11.25,11.25,0,0,1,.38,3.53.69.69,0,0,0,.91-.05s-.07-3.33.81-3.06Z"/><path class="cls-7" d="M40.07,84.48c-.92-1.32-2.16-5.65-2.45-6.64a7.34,7.34,0,0,1-.18-2c0-1.47.4-4.34.51-5.16l-4.22-.81.61,5.8a3,3,0,0,1-.48,1.63,15.23,15.23,0,0,0-.92,2,1.59,1.59,0,0,0,.53,2.1,12.92,12.92,0,0,1,2.26,2.1c.66.82.61,1.9,1.67,2.87s3.07.23,3.46-.1S41.22,85.38,40.07,84.48Z"/><path class="cls-10" d="M39.92,85.59c-2.24.54-2.69.24-3.33-2.28-.49-1.94-.92-3.32-1.77-4.07-1-.89-1.09-1.46-.84-2.13-.22,0-.48.09-.63.58-.33,1.12-.84,1.31-.86,2.11a2.32,2.32,0,0,0,1.12,1.89,3.69,3.69,0,0,1,1.7,1.87c.53,1.12.42,2.35.78,3.39,1.56,1.21,3.23,2,5.74.85.48-1.27.89-1.85-1.76-3.32C40.56,85,40.77,85.38,39.92,85.59Z"/><path class="cls-7" d="M34.42,42.67a22.4,22.4,0,0,0,4.26,4.44,21.7,21.7,0,0,1,1.46,1.68A6.46,6.46,0,0,0,43,50.69c1,.25,1.37.18,1.53,0s.09-.46-.33-.62a5.47,5.47,0,0,1-1.88-1s.9.41,1.47.61a5.35,5.35,0,0,0,1.58.31c.53,0,1.09-.62.67-.8s-.81-.2-1.64-.5A5.32,5.32,0,0,1,43.16,48a10.75,10.75,0,0,0,1.77.36,2.81,2.81,0,0,0,1.47-.16c.25-.11.46-.56-.1-.71A8.94,8.94,0,0,1,44.18,47c-.65-.3-1.06-.61-.92-.68s.52.14,1.18.1,1.26-.47,1.26-.82-.15-.16-.79-.21a13.78,13.78,0,0,0-2.07-.35,6.32,6.32,0,0,1-2-.24c-.7-.21-2.26-2.09-3.47-3.81a24.74,24.74,0,0,1-3.06-6.21c-.72-2.37-1.58-6.8-2.19-8.34a3.13,3.13,0,0,0-2.67-2.27c-1.19,0-1.69,1.51-1.38,2.85C28.59,29.42,31.22,38.46,34.42,42.67Z"/><path class="cls-11" d="M19.17,46.5c-1.45,3.93-1.22,7.16,3.93,10,2.73,1.52,10.8,4.26,10.8,4.26A7.8,7.8,0,0,0,33.08,65c.12,3.23,1.14,10.66,1.14,10.66a3.59,3.59,0,0,0,3.29,0s.67-6.3,1.17-10.7c.63-5.5,1.16-5.52.88-6.71S31.32,53,29.68,51.3l.27-.1,12.21,5.17a12.48,12.48,0,0,0-1.55,4.85c-.58,4.34-1.12,9-1.12,9a2.73,2.73,0,0,0,3.21,0s6.42-14.83,5.55-17C47.1,50.49,32.07,44,31.46,42.78Z"/><path class="cls-12" d="M29.68,51.3a11.67,11.67,0,0,0,2.41-4.15,16.61,16.61,0,0,1-.52,2.92c-.37,1.22,7.91,5.17,7.91,5.17L30,51.2Z"/><path class="cls-7" d="M22.3,20.4s.24,4.28.16,4.59-1.68.61-2.13,1,2.31,4.72,3.72,5.37,5.79-1,6.1-3.15c.28-2-1.24-3.56-1.83-4.11a8.77,8.77,0,0,0-1.21,0L27,22C25.08,21.36,22.3,20.4,22.3,20.4Z"/><path class="cls-8" d="M21.7,25.4c-1.2.18-2.58.82-2.77,1.48A14.25,14.25,0,0,0,19.25,34a51,51,0,0,0,2.68,5.81,12,12,0,0,0,8.91-1.16,27.12,27.12,0,0,0,.45-3.82c3.74-3.24.82-7.24-2.33-10.43A1.33,1.33,0,0,0,28,24l-.6,0a7.94,7.94,0,0,1,1.79,2.42,2.21,2.21,0,0,1-.92,3c-1.52.67-2.63.26-3.92-1.13C23.51,27.41,23.09,26.19,21.7,25.4Z"/><path class="cls-13" d="M27.09,23.65,27,22l-1.36-.44L22.3,20.4l.07,1.34s.13,1.46,2.55,2.6C25.34,24.54,27,24.7,27.09,23.65Z"/><path class="cls-7" d="M30.46,15.09h0a5.16,5.16,0,0,0-5.39-4.64,5.45,5.45,0,0,0-2.77,10,6.35,6.35,0,0,0,.43,1,7.21,7.21,0,0,0,4.55,2.18c.76,0,1.53-.64,2.14-1.88A11.61,11.61,0,0,0,30.46,15.09Z"/><path class="cls-15" d="M29.9,12.9a5.39,5.39,0,0,0-5.66-2.34,5.51,5.51,0,0,0-4.31,4.83,5.45,5.45,0,0,0,2.37,5c-.06-.19-1.49-2.33,0-2.8a1.81,1.81,0,0,1,.31,1.12s.73-.07.56-.92c0-.24-.09-.46-.13-.65a2.52,2.52,0,0,1,.42-1.9,2.19,2.19,0,0,0,.39-1.79,7.31,7.31,0,0,0,4.15.33A3.74,3.74,0,0,0,29.9,12.9Z"/><path class="cls-7" d="M22.3,20.4s-.13.27-.66.3c-1,0-2.16-1.8-1.36-3.06a1.3,1.3,0,0,1,2,0Z"/><path class="cls-8" d="M21.64,39.28c.29.55.14,1.31-.48,2.58a32.32,32.32,0,0,0-2.37,5.61c.08.34.91,1.14,4.32,1.53,4.15.48,9.33-2.17,8.87-5.46-.28-1.76-.93-3.14-1.14-4.87S21.64,39.28,21.64,39.28Z"/><path class="cls-15" d="M21.11,12.5a3.94,3.94,0,0,1,2.58-2.41c1.87-.41,5.2-.06,6.88,2.61a5.38,5.38,0,0,1,.87,3.73,7.5,7.5,0,0,1-7.61-3Z"/><path class="cls-15" d="M18.9,12.64a2.81,2.81,0,0,0,4-.16,2.82,2.82,0,0,0,.46-3.92,2.8,2.8,0,0,0-3.94.16A2.81,2.81,0,0,0,18.9,12.64Z"/><path class="cls-7" d="M23.56,54.2a16,16,0,0,0-1.75-1.38,7.11,7.11,0,0,1-1.76-1.26c-.55-.55-1.37-2.88-1.8-5.15a22.3,22.3,0,0,1,.13-7.65,52.51,52.51,0,0,1,3-8.79c.8-1.7.35-2.74-.39-3.49s-1.76-.87-2.78,1.51a47.82,47.82,0,0,0-3.18,10.35,22.88,22.88,0,0,0,.1,7.8,29,29,0,0,0,2.08,6.54c.26.61.31,1.13.67,2.36a8,8,0,0,0,1.87,3.28c.79.73,1.19.87,1.4.78s.26-.4-.06-.78A6.51,6.51,0,0,1,19.8,56.4s.66.86,1.1,1.33a6.38,6.38,0,0,0,1.32,1.1c.48.29,1.23,0,.92-.43s-.66-.6-1.3-1.31A6.54,6.54,0,0,1,21,55.85a12.72,12.72,0,0,0,1.47,1.23,2.69,2.69,0,0,0,1.4.58c.27,0,.64-.3.19-.73a9.45,9.45,0,0,1-1.74-1.54c-.48-.62-.74-1.12-.58-1.12s.41.4,1,.68,1.34.19,1.47-.15S24.13,54.58,23.56,54.2Z"/><path class="cls-16" d="M48.08,49.48,39.63,44.6a.48.48,0,0,0-.49,0L24.3,53.17l8.7,5Z"/><polygon class="cls-17" points="32.92 57.47 28.36 54.84 41.7 47.14 46.29 49.76 32.92 57.47"/><polygon class="cls-18" points="30.68 50.15 30.77 50.2 33 51.49 36.98 49.2 37.06 49.15 34.74 47.81 30.68 50.15"/><polygon class="cls-17" points="30.77 50.2 33 51.49 36.98 49.2 34.74 47.91 30.77 50.2"/><path class="cls-5" d="M24.3,53.17v.2a.81.81,0,0,0,.41.7l7.88,4.55a.82.82,0,0,0,.82,0l14.27-8.23a.83.83,0,0,0,.4-.71v-.2L33,58.19Z"/><path class="cls-17" d="M33,58.19v.54a.77.77,0,0,0,.41-.11l14.27-8.23a.83.83,0,0,0,.4-.71v-.2Z"/><path class="cls-16" d="M33.23,58.31a1,1,0,0,0,.84-.06l14.2-8.2a1,1,0,0,0,.47-.68l1.55-9.27a.88.88,0,0,0,0-.16,1,1,0,0,0-.29-.69L35.26,47.78a.73.73,0,0,0-.35.5Z"/><path class="cls-5" d="M33,58.19l.1.06.13.06,1.68-10a.73.73,0,0,1,.35-.5L50,39.25l-.2-.15L35,47.64a.71.71,0,0,0-.34.5Z"/><path class="cls-17" d="M41.23,49.75a3.19,3.19,0,0,1,1.43-1.84c.69-.4,1.16-.21,1.06.41a3.19,3.19,0,0,1-1.43,1.84C41.6,50.55,41.13,50.37,41.23,49.75Z"/><path class="cls-2" d="M32.43,83.72l5.17-3c3.51-2,8.35-2.51,10.82-1.09s1.62,4.22-1.88,6.25l-5.18,3c-3.5,2-8.35,2.51-10.82,1.08S28.92,85.74,32.43,83.72Z"/></g></g></g></svg>