<svg width="317" height="591" viewBox="0 0 317 591" fill="none" xmlns="http://www.w3.org/2000/svg">
<path d="M85.7794 398.455L85.7777 398.454L74.4535 404.987C72.154 406.312 70.2715 409.569 70.2715 412.222V427.759C70.2715 428.338 70.6542 428.918 71.4213 429.36C72.952 430.242 75.4368 430.244 76.9658 429.36C77.7346 428.918 78.1173 428.338 78.1156 427.759V412.481C78.1156 412.135 78.2991 411.817 78.5995 411.646L89.7126 405.236C89.7212 405.229 89.728 405.226 89.7349 405.222L89.7623 405.205L89.7606 405.202C90.2394 404.902 90.538 404.297 90.538 403.434C90.538 401.667 89.2956 399.516 87.7631 398.634C87.3187 398.377 86.9 398.257 86.5276 398.257C86.2479 398.257 85.9956 398.325 85.7794 398.455" fill="url(#paint0_linear)"/>
<path d="M102.76 408.293L102.758 408.291L91.4359 414.822C89.1347 416.148 87.2539 419.405 87.2539 422.058V437.595C87.2539 438.173 87.6366 438.752 88.402 439.194C89.9327 440.079 92.4175 440.079 93.9482 439.194C94.7136 438.754 95.098 438.173 95.098 437.593V422.315C95.098 421.971 95.2816 421.652 95.5802 421.48L106.695 415.07C106.702 415.065 106.709 415.062 106.716 415.058L106.745 415.041L106.743 415.036C107.222 414.739 107.519 414.133 107.519 413.271C107.519 411.502 106.278 409.354 104.744 408.47C104.301 408.213 103.882 408.093 103.512 408.093C103.23 408.093 102.978 408.161 102.76 408.293" fill="url(#paint1_linear)"/>
<g opacity="0.149994">
<g opacity="0.149994">
<path opacity="0.149994" d="M314.12 460.974L165.415 546.657C163.496 547.776 160.991 548.308 158.484 548.308C155.977 548.308 153.471 547.776 151.551 546.657L2.87951 460.986C0.959259 459.895 0 458.455 0 456.991C0 455.953 0.506224 454.888 1.51869 453.983C1.89279 453.637 2.34582 453.291 2.87951 452.998L151.585 367.341C155.398 365.13 161.61 365.13 165.449 367.341L314.12 452.986C317.934 455.195 317.934 458.791 314.12 460.974Z" fill="#6B99D1"/>
</g>
</g>
<g opacity="0.149994">
<g opacity="0.149994">
<path opacity="0.149994" d="M73.7111 573.492L61.6096 566.515C53.4034 561.781 42.0672 560.644 36.2927 563.973C30.5182 567.303 32.49 573.84 40.6978 578.572L52.7994 585.55C61.0072 590.284 72.3417 591.422 78.1162 588.092C83.8907 584.76 81.919 578.224 73.7111 573.492Z" fill="#6B99D1"/>
</g>
</g>
<path d="M314.12 448.758L165.415 534.415C163.496 535.534 160.991 536.065 158.484 536.065C155.977 536.065 153.497 535.534 151.578 534.441L2.87951 448.77C0.959259 447.651 0 446.215 0 444.777C0 443.311 0.959259 441.873 2.87951 440.781L23.0362 429.171L151.585 355.097C155.398 352.888 161.61 352.888 165.449 355.097L314.12 440.769C317.934 442.953 317.934 446.549 314.12 448.758Z" fill="#DCEEFF"/>
<path d="M158.484 507.2V536.066C155.978 536.066 153.499 535.533 151.578 534.442L2.87951 448.769C0.960975 447.652 0 446.214 0 444.776V419.769C0 418.732 0.506223 417.668 1.52041 416.761L23.0362 429.172L158.484 507.2Z" fill="#A5CBFA"/>
<path d="M158.483 507.2V536.066C160.989 536.066 163.469 535.533 165.387 534.442L314.12 448.757C316.04 447.64 317 446.202 317 444.764V419.757C317 418.72 316.493 417.656 315.481 416.751L293.964 429.16L158.483 507.2Z" fill="#C8E2FF"/>
<path d="M314.12 423.753L165.415 509.435C163.496 510.555 160.991 511.086 158.484 511.086C155.977 511.086 153.471 510.555 151.551 509.435L2.87951 423.765C0.959259 422.673 0 421.235 0 419.77C0 418.731 0.506224 417.667 1.51869 416.762C1.89279 416.415 2.34582 416.069 2.87951 415.776L151.585 330.119C155.398 327.91 161.61 327.91 165.449 330.119L314.12 415.764C317.934 417.973 317.934 421.569 314.12 423.753Z" fill="#DCEEFF"/>
<g opacity="0.149994">
<g opacity="0.149994">
<path opacity="0.149994" d="M73.7111 573.492L61.6096 566.515C53.4034 561.781 42.0672 560.644 36.2927 563.973C30.5182 567.303 32.49 573.84 40.6978 578.572L52.7994 585.55C61.0072 590.284 72.3417 591.422 78.1162 588.092C83.8907 584.76 81.919 578.224 73.7111 573.492Z" fill="#6B99D1"/>
</g>
</g>
<g opacity="0.149994">
<g opacity="0.149994">
<path opacity="0.149994" d="M244.025 562.434L256.125 555.456C264.332 550.724 275.667 549.586 281.443 552.916C287.218 556.246 285.246 562.782 277.036 567.515L264.936 574.493C256.727 579.227 245.394 580.363 239.62 577.035C233.843 573.703 235.817 567.168 244.025 562.434Z" fill="#6B99D1"/>
</g>
</g>
<path d="M158.508 328.462C155.999 328.462 153.492 329.015 151.585 330.119L2.87951 415.776C2.34754 416.069 1.89279 416.415 1.52041 416.762C0.506223 417.667 0 418.731 0 419.77C0 421.235 0.959259 422.673 2.87951 423.765L151.551 509.435C153.471 510.555 155.977 511.086 158.484 511.086C160.991 511.086 163.496 510.555 165.415 509.435L314.12 423.753C317.934 421.569 317.934 417.973 314.12 415.764L165.449 330.119C163.531 329.015 161.017 328.462 158.508 328.462ZM158.508 330.176C160.797 330.176 163.014 330.697 164.591 331.603L313.259 417.247C314.536 417.987 315.267 418.906 315.263 419.771C315.262 420.632 314.534 421.54 313.262 422.269L164.55 507.956C162.981 508.868 160.828 509.372 158.484 509.372C156.14 509.372 153.984 508.868 152.409 507.951L3.72896 422.275C2.45051 421.549 1.71605 420.635 1.71605 419.77C1.71605 419.201 2.0541 418.585 2.68732 418.016C3.00307 417.725 3.34628 417.475 3.73754 417.26L152.447 331.602C154.01 330.695 156.22 330.176 158.508 330.176Z" fill="white"/>
<path d="M153.893 347.514L33.0577 417.117C30.5094 418.59 30.5094 420.974 33.0577 422.444L153.861 492.036C156.411 493.509 160.546 493.509 163.096 492.036L283.928 422.432C286.48 420.964 286.48 418.578 283.928 417.107L163.129 347.514C160.579 346.043 156.443 346.043 153.893 347.514Z" fill="#344593"/>
<path d="M283.93 417.106L163.129 347.513C161.854 346.779 160.182 346.411 158.511 346.411V351.097L283.132 422.893L283.93 422.432C286.48 420.963 286.48 418.577 283.93 417.106Z" fill="#1E3779"/>
<path d="M158.513 346.412C156.842 346.412 155.169 346.779 153.894 347.514L33.06 417.118C30.5099 418.59 30.5099 420.974 33.06 422.445L33.858 422.904L158.513 351.098V346.412Z" fill="#031F60"/>
<path d="M159.494 387.839L195.265 367.278C195.819 366.958 195.821 366.44 195.265 366.119L159.494 345.492C158.938 345.171 158.037 345.171 157.483 345.492L121.77 366.118C121.216 366.44 121.216 366.958 121.772 367.278L157.483 387.839C158.037 388.159 158.938 388.159 159.494 387.839Z" stroke="white" stroke-width="1.33333" stroke-miterlimit="10" stroke-linecap="round"/>
<path d="M158.519 374.366V456.996C160.641 456.996 162.766 456.53 164.386 455.596L240.921 411.461C244.16 409.591 246.788 405.048 246.788 401.313V374.366H158.519Z" fill="#6CFFE6"/>
<path d="M70.249 374.366V401.313C70.249 405.048 72.8746 409.591 76.1145 411.46L152.655 455.596C154.274 456.53 156.396 456.996 158.519 456.996V374.366H70.249Z" fill="#41E5C9"/>
<path d="M152.624 423.882L72.6789 377.751C69.439 375.883 69.439 372.854 72.6789 370.986L152.654 324.869C155.892 323 161.143 323 164.383 324.869L244.359 370.986C247.597 372.854 247.597 375.883 244.359 377.751L164.354 423.884C161.115 425.752 155.864 425.752 152.624 423.882Z" fill="#ABFFEF"/>
<path d="M89.0797 372.121L154.61 334.319C156.769 333.073 160.27 333.073 162.429 334.317L227.987 372.122C230.145 373.368 230.145 375.386 227.985 376.63L162.401 414.435C160.241 415.681 156.738 415.681 154.579 414.433L89.0797 376.633C86.9192 375.386 86.9209 373.367 89.0797 372.121Z" stroke="white" stroke-width="1.33333" stroke-miterlimit="10" stroke-linecap="round"/>
<path d="M160.445 343.77L212.017 373.24C213.096 373.863 213.096 374.871 212.017 375.495L160.445 404.999C159.365 405.621 157.613 405.621 156.534 404.999L105.401 375.505C104.32 374.881 104.32 373.87 105.401 373.248L156.534 343.77C157.615 343.147 159.365 343.147 160.445 343.77Z" stroke="white" stroke-width="1.33333" stroke-miterlimit="10" stroke-linecap="round"/>
<path d="M119.741 418.13V418.127L108.416 424.659C106.115 425.987 104.234 429.242 104.234 431.895V447.43C104.234 448.011 104.615 448.589 105.384 449.031C106.915 449.915 109.4 449.915 110.93 449.031C111.696 448.589 112.078 448.011 112.078 447.43V432.154C112.078 431.807 112.262 431.49 112.561 431.317L123.675 424.907C123.682 424.902 123.689 424.898 123.696 424.895L123.725 424.878L123.722 424.875C124.202 424.575 124.501 423.968 124.501 423.107C124.501 421.34 123.257 419.189 121.724 418.305C121.282 418.05 120.865 417.93 120.492 417.93C120.212 417.93 119.958 417.998 119.741 418.13" fill="url(#paint2_linear)"/>
<path d="M136.722 427.965L136.72 427.963L125.396 434.496C123.096 435.821 121.214 439.078 121.214 441.731V457.268C121.214 457.847 121.597 458.427 122.362 458.866C123.894 459.75 126.377 459.75 127.91 458.869C128.675 458.427 129.06 457.847 129.058 457.266V441.99C129.058 441.644 129.242 441.325 129.54 441.153L140.657 434.742C140.662 434.738 140.67 434.735 140.676 434.731L140.705 434.714L140.703 434.709C141.183 434.411 141.48 433.806 141.48 432.944C141.48 431.175 140.238 429.025 138.705 428.143C138.261 427.886 137.842 427.766 137.47 427.766C137.19 427.766 136.938 427.834 136.722 427.965" fill="url(#paint3_linear)"/>
<path d="M229.275 398.634C227.742 399.516 226.5 401.667 226.5 403.434C226.5 404.297 226.799 404.902 227.277 405.202L227.274 405.205L227.303 405.222C227.31 405.226 227.319 405.229 227.324 405.236L238.439 411.646C238.739 411.817 238.922 412.135 238.922 412.481V427.759C238.921 428.338 239.302 428.918 240.07 429.36C241.601 430.244 244.084 430.242 245.618 429.36C246.384 428.918 246.765 428.338 246.765 427.759V412.222C246.765 409.569 244.884 406.312 242.584 404.987L231.26 398.454L231.259 398.455C231.042 398.325 230.79 398.257 230.509 398.257C230.138 398.257 229.718 398.377 229.275 398.634" fill="url(#paint4_linear)"/>
<path d="M212.294 408.47C210.761 409.354 209.521 411.502 209.521 413.271C209.521 414.133 209.819 414.739 210.298 415.036L210.294 415.041L210.322 415.058C210.33 415.062 210.337 415.065 210.344 415.07L221.459 421.48C221.758 421.652 221.943 421.971 221.943 422.315V437.593C221.941 438.173 222.322 438.754 223.089 439.194C224.622 440.079 227.105 440.079 228.637 439.194C229.404 438.752 229.785 438.173 229.785 437.595V422.058C229.785 419.405 227.905 416.148 225.603 414.822L214.281 408.291L214.279 408.293C214.063 408.161 213.809 408.093 213.528 408.093C213.157 408.093 212.738 408.213 212.294 408.47" fill="url(#paint5_linear)"/>
<path d="M195.313 418.305C193.781 419.189 192.538 421.34 192.538 423.107C192.538 423.968 192.837 424.575 193.315 424.875L193.314 424.878L193.341 424.895C193.35 424.898 193.355 424.902 193.362 424.907L204.478 431.317C204.777 431.49 204.961 431.807 204.961 432.154V447.43C204.959 448.011 205.343 448.589 206.109 449.031C207.641 449.915 210.124 449.915 211.657 449.031C212.422 448.589 212.803 448.011 212.803 447.43V431.895C212.803 429.242 210.922 425.987 208.623 424.659L197.298 418.127L197.297 418.13C197.08 417.998 196.827 417.93 196.545 417.93C196.174 417.93 195.756 418.05 195.313 418.305" fill="url(#paint6_linear)"/>
<path d="M178.331 428.143C176.801 429.025 175.557 431.175 175.557 432.944C175.557 433.806 175.857 434.411 176.336 434.709L176.334 434.714L176.361 434.731C176.368 434.735 176.375 434.738 176.382 434.742L187.499 441.153C187.797 441.325 187.981 441.644 187.981 441.99V457.266C187.981 457.847 188.363 458.427 189.127 458.869C190.66 459.75 193.143 459.75 194.675 458.866C195.44 458.427 195.825 457.847 195.825 457.268V441.731C195.825 439.078 193.944 435.821 191.641 434.496L180.319 427.963L180.317 427.965C180.101 427.834 179.848 427.766 179.569 427.766C179.196 427.766 178.778 427.886 178.331 428.143" fill="url(#paint7_linear)"/>
<path d="M228.936 166.017C244.459 204.747 225.594 248.712 186.815 264.215C162.918 273.77 137.016 270.289 117.049 257.14C104.591 248.957 94.4422 237.033 88.4858 222.171C72.9624 183.441 91.8218 139.459 130.599 123.955C145.498 117.999 161.186 117.109 175.711 120.47C199.013 125.873 219.377 142.165 228.936 166.017Z" fill="#B5DEFF"/>
<path d="M149.659 129.622C146.2 129.682 141.76 130.906 144.974 132.868C148.187 134.832 150.243 135.014 150.267 137.561C150.293 140.108 148.626 142.785 149.445 144.592C150.263 146.398 151.617 148.505 152.93 147.894C154.245 147.284 157.85 143.268 159.906 143.452C161.962 143.635 168.961 143.949 169.977 141.662C170.993 139.376 172.026 139.535 173.703 136.994C175.379 134.452 175.29 131.062 173.248 131.048C171.204 131.034 170.931 131.905 167.51 131.656C164.088 131.408 162.506 129.149 159.171 129.744C155.839 130.338 152.199 129.577 149.659 129.622Z" fill="#3A52AA"/>
<path d="M132.22 141.827C131.201 144.117 130.32 143.674 128.644 146.178C126.959 148.693 124.349 150.074 122.66 150.285C120.97 150.486 118.19 147.486 118.047 145.632C117.905 143.777 120.589 143.225 123.619 142.831C126.652 142.427 129.246 141.115 132 138.957C134.176 137.252 133.239 139.545 132.22 141.827ZM136.795 130.527C132.872 132.621 124.611 135.782 120.783 134.717C118.885 134.179 116.621 133.425 114.209 132.977C99.6256 143.573 89.0856 159.215 84.9551 177.107C85.9109 179.073 87.0813 180.89 88.37 182.393C91.3645 185.905 94.462 186.352 98.2544 187.08C102.055 187.81 100.863 189.941 102.726 192.174C104.604 194.406 105.386 195.712 107.519 196.905C109.654 198.098 106.764 200.358 105.93 202.808C105.096 205.247 104.856 206.621 106.603 211.587C108.341 216.55 113.417 220.588 114.922 222.511C116.427 224.436 113.884 226.669 114.529 230.699C115.175 234.727 114.974 245.417 118.844 251.433C122.705 257.449 125.028 256.741 124.718 252.687C124.407 248.632 123.092 244.798 125.442 241.752C127.791 238.708 132.558 239.517 134.173 233.949C135.79 228.39 136.831 228.647 139.41 226.757C141.981 224.858 140.836 223.243 143.232 218.941C145.628 214.639 146.338 210.587 142.794 208.82C139.259 207.051 136.895 207.231 133.849 203.049C130.803 198.867 126.072 194.805 121.663 192.43C117.265 190.044 110.279 192.952 107.492 192.145C104.705 191.34 102.941 186.04 103.121 183.987C103.31 181.933 101.228 181.409 99.2257 181.909C97.2214 182.4 96.1042 181.128 95.5517 178.449C95.0077 175.768 99.1708 172.39 102.56 172.131C105.939 171.874 107.765 173.436 108.436 177.799C109.107 182.173 111.998 184.328 115.12 185.109C118.241 185.889 116.288 182.643 114.078 180.427C111.866 178.221 111.712 176.193 113.378 171.305C115.046 166.427 119.158 166.785 122.222 162.288C125.277 157.784 125.872 161.174 128.968 161.619C132.066 162.067 131.601 160.399 132.744 157.59C133.897 154.789 137.818 157.203 141.053 154.916C144.275 152.63 137.542 149.066 137.977 145.974C138.425 142.881 141.497 142.994 139.784 138.363C138.062 133.733 140.437 133.552 141.662 131.827C142.889 130.112 140.718 128.432 136.795 130.527" fill="#3A52AA"/>
<path d="M234.119 188.352L234.136 188.564C232.93 189.075 231.773 189.968 231.139 191.536C229.419 195.746 229.103 193.905 225.067 196.762C221.038 199.619 222.57 201.877 222.788 204.746C223.01 207.623 218.328 210.868 216.017 211.89C213.717 212.921 212.688 219.455 213.441 222.629C214.194 225.793 210.385 227.104 208.056 230.004C205.724 232.906 204.392 237.758 202.865 240.088C201.348 242.415 198.556 243.812 195.807 243.349C193.044 242.876 190.479 238.312 188.991 234.348C187.494 230.383 186.985 226.007 187.848 221.69C188.713 217.381 188.406 217.916 187.381 211.194C186.357 204.471 181.607 202.458 179.007 201.811C176.404 201.153 172.1 202.675 169.781 201.323C167.473 199.971 166.464 198.008 164.959 191.67C163.451 185.32 166.579 183.899 169.042 180.479C171.496 177.058 176.325 173.468 180.664 172.28C184.994 171.102 187.968 172.232 190.623 173.559C193.276 174.885 194.525 177.849 196.418 178.049C198.3 178.243 199.931 177.271 201.828 177.636C203.723 178.001 204.988 178.925 206.832 178.61C208.688 178.294 207.503 176.183 207.241 175.01C206.978 173.838 205.305 174.14 203.09 174.124C200.874 174.121 200.317 173.5 199.531 172.031C198.733 170.563 197.475 171.851 196.406 171.25C195.34 170.648 195.548 173.355 195.455 174.402C195.361 175.449 194.546 173.605 194.546 173.605C194.546 173.605 193.634 175.031 193.238 174.378C192.852 173.735 193.751 172.136 193.626 170.515C193.502 168.903 191.151 169.277 189.687 168.022C188.236 166.776 186.178 166.598 184.188 167.26C182.197 167.921 181.823 167.44 180.939 169.2C180.052 170.97 175.714 172.148 174.337 171.918C172.961 171.685 173.932 168.89 175.11 166.425C176.278 163.948 178.722 164.781 180.235 162.289C181.749 159.799 179.679 159.447 178.283 159.045C176.893 158.642 176.453 157.308 177.905 154.139C179.369 150.969 181.303 151.839 182.099 153.308C182.895 154.777 184.646 155.5 186.527 155.519C188.395 155.55 187.958 154.227 187.911 151.508C187.879 148.788 189.123 147.337 191.597 146.301C194.069 145.256 198.197 143.585 199.788 142.107C201.37 140.62 204.171 141.6 205.65 143.189C207.138 144.767 210.412 145.374 213.865 145.957C214.848 146.125 215.625 145.741 216.303 145.148C226.328 156.882 232.851 171.798 234.119 188.352Z" fill="#3A52AA"/>
<path d="M219.958 225.526C218.118 225.213 218.278 225.825 217.199 227.266C216.118 228.707 214.544 230.358 214.829 231.866C215.114 233.373 215.256 235.233 216.531 234.115C217.808 232.998 217.365 231.671 219.174 230.853C220.984 230.036 222.714 225.994 219.958 225.526Z" fill="#3A52AA"/>
<g opacity="0.399994">
<g opacity="0.399994">
<path opacity="0.399994" d="M178.409 127.138C130.24 113.25 121.246 146.045 146.774 166.713C172.302 187.384 216.059 194.192 221.956 180.564C227.852 166.938 214.216 137.461 178.409 127.138Z" fill="white"/>
</g>
</g>
<g opacity="0.149994">
<g opacity="0.149994">
<path opacity="0.149994" d="M138.195 231.937C100.765 201.257 101.927 141.697 134.744 122.449C133.358 122.912 131.975 123.404 130.6 123.954C91.8227 139.459 72.9634 183.441 88.4867 222.171C94.4431 237.033 104.59 248.957 117.05 257.139C137.017 270.289 162.919 273.77 186.816 264.216C206.408 256.382 220.909 241.276 228.466 223.258C217.89 237.915 175.607 262.6 138.195 231.937Z" fill="#344593"/>
</g>
</g>
<g opacity="0.300003">
<g opacity="0.300003">
<g opacity="0.300003">
<g opacity="0.300003">
<g opacity="0.300003">
<g opacity="0.300003">
<path opacity="0.300003" d="M166.844 68.5483C164.431 70.0823 161.603 70.6427 158.49 70.5382C158.444 70.5399 158.401 70.533 158.356 70.533C158.398 70.533 158.437 70.5382 158.478 70.5382V493.149C160.335 493.149 162.228 492.634 164.049 491.463L282.475 423.174C284.678 421.958 285.74 420.887 285.74 419.411V0.00868875L166.844 68.5483Z" fill="url(#paint8_linear)"/>
</g>
</g>
</g>
</g>
</g>
</g>
<g opacity="0.5">
<g opacity="0.5">
<g opacity="0.5">
<g opacity="0.5">
<g opacity="0.5">
<g opacity="0.5">
<path opacity="0.5" d="M158.356 70.5331C157.639 70.5416 156.934 70.5193 156.247 70.4508C156.204 70.4456 156.163 70.4354 156.119 70.4302C155.437 70.3548 154.77 70.2503 154.121 70.0977C153.692 69.9966 153.282 69.8475 152.868 69.7121C152.611 69.6281 152.345 69.5716 152.095 69.4739C151.434 69.2202 150.794 68.9237 150.169 68.5792L31.2266 0.000144874V419.408C31.2798 420.769 32.1275 421.809 33.5329 422.62L152.929 491.473C154.866 492.757 156.527 493.108 158.326 493.132C158.377 493.132 158.428 493.149 158.478 493.149V70.5382C158.437 70.5382 158.398 70.5331 158.356 70.5331" fill="url(#paint9_linear)"/>
</g>
</g>
</g>
</g>
</g>
</g>
<path d="M286.153 439.63C286.483 442.51 289.92 454.926 289.184 459.178C288.446 463.432 276.703 470.547 276.703 470.547L275.074 463.266L281.578 456.902L279.821 444.841L286.153 439.63Z" fill="#FFA8A7"/>
<path d="M277.068 425.681C278.747 424.956 281.878 424.793 283.606 427.654C285.335 430.513 287.128 440.318 287.291 441.993C287.291 441.993 284.868 445.339 281.231 444.78L277.068 425.681Z" fill="#E4F2F2"/>
<path d="M278.707 557.626C278.707 557.626 278.841 558.896 279.231 560.5C279.533 561.745 279.6 563.371 278.194 563.818C276.792 564.268 275.186 564.122 274.288 562.908C273.166 561.395 272.581 559.511 270.952 558.041C269.393 556.632 267.46 555.034 266.899 552.789C266.391 550.758 266.716 549.49 268.104 549.288C269.858 549.03 272.632 550.501 274.055 551.545C275.081 552.299 278.707 557.626 278.707 557.626Z" fill="#2D2979"/>
<path d="M262.643 563.495C262.643 563.495 262.748 565.109 262.842 566.391C262.94 567.677 263.395 569.723 262.985 570.671C262.573 571.62 260.457 572.321 257.967 572.303C256.355 572.289 253.229 573.535 252.122 574.495C250.54 575.869 246.912 576.418 244.772 575.746C242.631 575.078 240.262 574.089 239.904 573.103C239.547 572.119 240.659 571.631 245.877 569.243C251.097 566.856 254.947 565.209 256.97 562.454L262.643 563.495Z" fill="#2D2979"/>
<path d="M279.971 529.921C279.081 523.1 277.677 519.048 277.677 519.048C277.677 519.048 278.362 509.668 278.703 500.772C279.093 490.677 282.599 481.792 279.832 473.738L248.648 480.664C248.648 480.664 250.536 520.908 250.951 525.781C251.178 528.422 251.253 531.058 252.35 537.081C253.774 544.893 256.087 563.477 256.087 563.477C259.386 565.39 262.643 563.495 262.643 563.495C262.643 563.495 263.477 540.829 263.264 535.2C263.003 528.326 262.794 528.852 262.794 528.852L263.825 511.73L264.5 503.213C264.5 503.213 265.363 509.464 265.924 515.048C266.415 519.914 267.592 524.319 268.906 533.382C270.046 541.242 273.02 557.437 273.02 557.437C276.318 559.352 278.708 557.626 278.708 557.626C278.708 557.626 280.864 536.741 279.971 529.921" fill="#C4D9FF"/>
<path d="M264.5 503.213C264.5 503.213 265.363 509.464 265.924 515.048C266.161 517.392 266.556 519.636 267.05 522.339C267.05 522.332 266.609 511.939 266.777 507.023C266.944 502.106 267.441 496.784 267.441 496.784C273.99 494.005 275.347 490.02 275.347 490.02C270.487 494.177 265.358 495.437 265.358 495.437L264.5 503.213Z" fill="#9EBCE8"/>
<path d="M275.416 425.853C273.041 425.967 271.273 426.579 270.977 425.88C270.743 425.333 270.438 422.174 270.436 422.173C270.709 421.484 270.944 420.745 270.944 420.745C273.927 418.911 276.061 415.817 276.453 412.067C277.122 405.66 272.463 399.925 266.048 399.255C260.016 398.628 255.579 402.861 254.394 408.675C253.758 411.544 252.896 417.636 254.612 422.358C255.572 424.996 256.404 426.158 257.64 426.566C258.072 426.656 260.368 426.605 261.205 426.519L261.202 426.523C261.202 426.523 261.521 428.302 261.741 429.443C261.962 430.587 261.875 431.19 259.598 432.592C257.319 433.99 263.042 436.873 266.779 436.589C270.517 436.306 274.721 434.052 275.874 431.639C277.16 428.946 277.046 425.774 275.416 425.853Z" fill="#FFA8A7"/>
<path d="M259.597 432.591C259.517 432.639 259.47 432.694 259.41 432.747L262.666 433.861L272.312 432.377L274.556 426.628C274.556 426.628 274.471 426.352 274.338 425.939C272.523 426.13 271.225 426.467 270.977 425.879C270.8 425.468 270.582 423.562 270.486 422.657C268.754 422.962 266.704 423.327 266.209 423.343C265.322 423.375 262.242 418.859 262.242 418.859C262.242 418.859 261.813 422.649 261.401 423.692C260.991 424.733 258.182 426.371 257.15 426.347C257.307 426.435 257.468 426.51 257.638 426.565C258.07 426.656 260.368 426.606 261.205 426.519L261.202 426.522C261.202 426.522 261.521 428.301 261.741 429.443C261.962 430.586 261.875 431.191 259.597 432.591Z" fill="#F28F8F"/>
<path d="M276.518 404.781C276.233 403.389 275.255 401.586 267.745 399.483C260.569 397.472 254.954 396.626 253.578 397.544C252.203 398.461 251.861 405.555 258.633 408.918C258.901 409.434 259.077 410.036 259.077 410.85C259.077 411.955 258.962 412.817 259.077 414.017C259.244 415.705 261.068 415.829 261.068 415.829C261.068 415.829 261.078 414.845 261.078 412.822C261.72 411.422 264.171 411.055 265.053 413.016C265.938 414.974 265.449 416.6 264.824 417.772C264.028 419.262 262.702 419.389 262.244 418.859C262.244 420.563 262.575 423.094 264.478 425.232C267.012 425.945 269.523 424.855 270.628 423.886C270.906 423.13 271.774 421.754 272.907 419.951C274.302 417.733 275.744 416.292 276.518 412.716C277.219 409.467 277.068 407.485 276.518 404.781" fill="#3A2C6D"/>
<path d="M271.981 426.204C272.638 427.842 270.966 429.846 266.506 431.246C262.045 432.648 261.645 430.845 261.645 430.845C261.645 430.845 255.105 433.82 252.975 435.306C250.297 437.175 249.111 442.584 248.75 451.716C248.333 462.282 248.296 477.958 248.647 480.663C248.647 480.663 253.65 485.645 260.054 485.119C266.457 484.595 277.228 478.935 279.842 474.565C279.77 465.301 278.685 463.792 280.187 458.453C283.624 446.235 285.436 441.233 283.765 433.113C282.387 426.42 280.456 425.588 277.808 425.653C275.16 425.718 271.981 426.204 271.981 426.204Z" fill="#F5FBFB"/>
<path d="M270.835 425.296C269.913 426.467 266.673 429.012 261.687 429.151C260.722 428.99 260.194 430.854 259.645 431.777C259.645 431.777 261.896 433.612 266.886 432.347C271.877 431.084 273.642 427.403 273.217 426.035C273.217 426.035 271.623 424.297 270.835 425.296" fill="#E4F2F2"/>
<path d="M238.686 462.166C243.94 463.488 245.174 460.18 245.865 457.439C247.535 450.806 248.438 444.814 249.682 441.05C251.149 436.608 252.688 435.902 254.849 435.036C257.384 434.02 259.568 436.161 258.724 441.813C257.725 448.498 256.412 453.196 253.909 461.106C253.255 463.171 251.789 466.844 249.593 468.616C246.883 470.805 242.799 470.711 236.623 469.177C233.989 468.52 231.099 466.948 226.116 464.628C224.779 464.004 223.737 463.589 221.17 462.396C218.604 461.203 215.929 459.206 214.584 457.261C213.237 455.314 213.058 454.401 213.334 453.957C213.679 453.4 214.289 453.523 215.006 454.342C215.721 455.16 216.773 456.636 218.786 457.835C218.786 457.835 217.127 456.125 216.228 455.011C215.328 453.9 214.625 452.683 214.241 451.768C213.767 450.633 214.745 449.092 215.486 449.9C216.235 450.71 216.586 451.533 217.945 453.16C219.183 454.64 220.379 455.48 220.379 455.48C220.379 455.48 218.997 453.636 218.136 451.876C217.273 450.116 217.281 449.211 217.319 448.618C217.355 448.023 218.194 447.32 218.982 448.443C219.691 449.452 220.152 451.033 221.803 452.748C223.003 453.993 224.024 454.707 224.055 454.363C224.082 454.018 223.327 453.336 222.898 451.89C222.488 450.508 222.908 448.909 223.703 448.741C224.496 448.571 224.35 448.619 224.993 449.973C225.635 451.327 226.625 452.33 227.379 454.308C228.043 456.053 228.346 456.761 229.539 458.024C230.833 459.393 233.69 460.91 238.686 462.166Z" fill="#FFA8A7"/>
<path d="M256.794 434.129C253.285 433.611 250.807 435.19 249.255 440.5C247.706 445.808 246.623 450.167 246.623 450.167C246.623 450.167 248.303 453.053 252.501 454.068C256.698 455.082 258.208 453.08 258.208 453.08C258.208 453.08 259.373 447.515 260.099 443.727C260.827 439.939 261.134 434.77 256.794 434.129Z" fill="#E4F2F2"/>
<path d="M47.2421 572.442C47.2421 572.442 46.7101 573.372 43.8357 572.166C40.9596 570.957 40.1514 569.524 40.1514 569.524C40.1514 569.524 40.8996 563.759 42.6791 565.209C44.4586 566.659 47.2421 572.442 47.2421 572.442Z" fill="#291D51"/>
<path d="M40.0208 552.265C40.0706 555.29 40.1444 557.602 38.9946 559.223C37.8449 560.843 37.7471 561.945 37.7471 561.945C37.7471 561.945 41.1671 562.429 42.9038 564.778C44.6404 567.128 44.5443 569.478 46.1557 569.867C47.7671 570.256 50.4578 568.407 50.4578 568.407C50.4578 568.407 48.7521 568.34 48.0862 566.203C47.4204 564.067 45.7061 559.499 45.6426 558.298C45.5808 557.096 45.6426 552.46 45.6426 552.46L40.0208 552.265Z" fill="#FFA8A7"/>
<path d="M39.9852 560.008C41.4713 560.101 43.7537 561.762 44.5139 563.483C45.2741 565.203 46.5302 567.622 47.4981 568.165C48.4676 568.705 50.1803 567.917 51.6423 567.906C53.1044 567.899 54.1375 568.575 54.2198 569.639C54.2198 569.639 49.5384 571.854 48.1347 572.519C46.731 573.184 45.5469 573.202 44.4452 570.292C43.3435 567.382 42.9248 565.743 42.0513 567.721C41.1744 569.701 40.8124 574.155 40.8124 574.155C40.8124 574.155 39.6128 574.598 39.0414 573.415C39.0414 573.415 39.0791 571.321 38.8269 569.529C38.5763 567.74 36.9495 565.486 37.0731 563.33C37.1966 561.177 38.3704 559.907 39.9852 560.008Z" fill="#2D2979"/>
<path d="M69.9098 584.114C69.9098 584.114 69.3607 585.077 66.3868 583.829C63.4129 582.58 62.5771 581.097 62.5771 581.097C62.5771 581.097 63.3511 575.136 65.1907 576.636C67.0303 578.136 69.9098 584.114 69.9098 584.114Z" fill="#291D51"/>
<path d="M62.4408 563.25C62.4923 566.377 62.5695 568.771 61.3803 570.446C60.1911 572.122 60.0898 573.262 60.0898 573.262C60.0898 573.262 63.6266 573.76 65.4233 576.191C67.22 578.621 67.1205 581.052 68.7868 581.454C70.4513 581.856 73.2347 579.944 73.2347 579.944C73.2347 579.944 71.4706 579.872 70.7825 577.663C70.0927 575.454 68.3217 570.732 68.2565 569.489C68.1913 568.247 67.9613 563.25 67.9613 563.25H62.4408Z" fill="#FFA8A7"/>
<path d="M62.4044 571.256C63.942 571.352 66.3015 573.071 67.0875 574.852C67.8752 576.631 69.1742 579.134 70.1747 579.692C71.1768 580.251 72.9495 579.435 74.4596 579.427C75.9715 579.418 77.0406 580.117 77.1264 581.218C77.1264 581.218 72.2837 583.508 70.8336 584.195C69.3819 584.881 68.1566 584.905 67.0171 581.893C65.8777 578.882 65.4452 577.188 64.5409 579.233C63.6348 581.283 63.259 585.887 63.259 585.887C63.259 585.887 62.02 586.344 61.428 585.124C61.428 585.124 61.4674 582.956 61.2066 581.103C60.9475 579.252 59.264 576.924 59.3928 574.695C59.5197 572.465 60.7347 571.153 62.4044 571.256Z" fill="#2D2979"/>
<path d="M38.5242 428.259C35.7923 429.048 34.2272 432.071 31.8265 438.533C29.4257 444.998 26.9272 454.42 27.2429 456.91C28.0134 463.003 31.8042 468.205 38.3354 472.522L41.2493 467.189C41.2493 467.189 34.845 462.04 34.2324 455.948C33.8875 452.526 38.3354 440.881 38.3354 440.569C38.3354 440.255 38.5242 428.259 38.5242 428.259Z" fill="#FFA8A7"/>
<path d="M36.4654 534.023C36.4654 528.416 37.7473 524.671 37.7473 524.671C37.7473 524.671 35.4083 513.179 34.5469 504.32C33.2787 491.252 30.962 488.123 33.0505 480.384C34.9724 473.257 38.0133 468.284 40.0434 463.275L61.3978 464.957C61.3978 464.957 63.2529 471.002 65.6519 483.044C68.0527 495.083 69.1406 509.299 68.909 528.269C68.8489 533.157 68.8111 537.521 68.5228 549.704C68.3307 557.895 68.2397 568.924 68.2397 568.924C64.9415 570.838 62.1632 568.667 62.1632 568.667C62.1632 568.667 57.1094 544.371 56.2995 538.796C55.4603 533.032 57.0442 529.59 57.0442 529.59C57.0442 529.59 55.4414 521.967 54.2505 515.971C52.8004 508.661 49.2122 492.863 49.2122 492.863C49.2122 492.863 49.1075 517.034 48.7643 521.912C48.4245 526.79 48.6202 530.685 47.7175 537.188C46.6227 545.055 45.6428 558.297 45.6428 558.297C42.2227 559.115 39.8031 557.267 39.8031 557.267C39.8031 557.267 36.4654 540.902 36.4654 534.023Z" fill="#7FA8E6"/>
<path d="M49.2126 492.864C49.2126 492.864 49.1062 517.033 48.7647 521.911C48.7218 522.523 48.6823 523.065 48.6411 523.567L48.6377 523.608C48.6308 523.697 48.6223 523.781 48.6154 523.87L46.1271 495.602C39.2492 493.624 37.0664 489.018 37.0664 489.018C41.7049 493.673 49.2126 492.864 49.2126 492.864Z" fill="#597BC6"/>
<path d="M39.7882 428.136C44.334 427.861 44.7716 428.614 45.1371 427.004C45.2658 426.427 45.5198 422.428 45.5198 422.428C45.1165 422.001 44.3837 420.75 44.3837 420.75C41.3995 418.918 39.2648 415.822 38.8735 412.076C38.2043 405.669 42.8633 399.932 49.2779 399.264C55.3081 398.635 59.7458 402.868 60.9316 408.68C61.5682 411.551 62.2289 417.415 60.4459 422.111C59.4352 424.771 58.4999 426.632 56.0906 426.536C55.6359 426.519 54.7675 426.37 53.7156 426.116C53.6229 426.982 53.52 428.274 53.5852 429.452C53.647 430.612 53.4496 431.197 55.7285 432.599C58.0074 433.999 52.2844 436.88 48.5469 436.596C44.8093 436.313 40.605 434.061 39.4518 431.646C38.1665 428.953 37.6466 428.264 39.7882 428.136Z" fill="#FFA8A7"/>
<path d="M39.4518 431.645C38.1665 428.952 37.6466 428.263 39.7882 428.135C44.334 427.86 44.7716 428.613 45.1371 427.003C45.2658 426.426 45.5198 422.427 45.5198 422.427C45.1165 422 44.3837 420.751 44.3837 420.751C42.7449 419.745 41.3772 418.346 40.3991 416.68C40.557 416.533 40.6702 416.425 40.6702 416.425L50.3848 421.43L52.1866 421.035L53.6281 419.414C53.6281 419.414 53.858 422.22 54.2973 423.493C54.7349 424.761 57.6625 426.22 57.6865 426.234C57.2352 426.45 56.7135 426.559 56.0906 426.537C55.6359 426.518 54.7675 426.369 53.7156 426.115C53.6212 426.981 53.52 428.273 53.5835 429.451C53.647 430.611 53.4496 431.196 55.7285 432.598C58.0074 433.998 52.2844 436.879 48.5469 436.595C44.8093 436.312 40.605 434.06 39.4518 431.645Z" fill="#F28F8F"/>
<path d="M43.1139 421.144C40.188 418.472 39.2648 415.824 38.8735 412.076C38.2043 405.669 42.8633 399.932 49.2779 399.264C53.4342 398.83 56.8337 400.707 58.9324 403.818C58.9307 403.821 58.5017 404.685 57.841 405.331C57.841 405.331 58.3661 406.821 57.4257 407.876C56.7479 408.634 56.5505 409.705 56.7015 410.71C56.8663 411.803 56.9915 413.155 56.8766 414.352C56.7101 416.042 55.1211 416.81 55.1211 416.81C55.1211 416.81 54.8894 414.23 54.2476 412.83C53.6058 411.43 51.157 411.063 50.2732 413.024C49.3895 414.981 49.7378 416.508 50.6628 418.111C51.5071 419.574 52.8507 419.677 53.6281 419.415C53.8203 420.066 53.6024 422.269 51.0695 422.982C48.5366 423.693 46.1702 423.036 44.8711 422.363C44.0903 421.97 43.1139 421.144 43.1139 421.144Z" fill="#543354"/>
<path d="M56.0615 400.906C57.6489 400.601 62.1432 401.511 62.0951 406.178C62.054 409.987 59.5365 412.683 56.2486 413.588L56.0615 400.906Z" fill="#543354"/>
<path d="M44.3034 428.038C43.466 429.082 43.3699 430.4 46.6184 431.216C50.857 432.282 53.7177 430.671 53.7177 430.671C53.7177 430.671 58.0884 432.495 61.0675 434.56C68.3247 439.592 70.075 448.335 62.7544 451.346C62.3099 454.63 61.7659 463.085 61.6269 465.008C55.4371 469.328 42.8637 467.854 40.0442 463.276C40.015 461.723 39.7182 459.085 39.6152 458.705C36.6602 447.768 34.3538 444.863 35.1775 436.615C35.6494 431.895 36.0115 429.521 38.5238 428.259C40.0408 427.786 43.3888 427.978 44.3034 428.038Z" fill="#F5FBFB"/>
<path d="M55.2366 431.348C55.2366 431.348 54.4816 429.306 54.31 428.818C54.1418 428.331 53.5686 428.259 53.5686 428.259C53.5686 428.259 52.7278 429.298 50.0027 429.022C47.2793 428.746 45.1102 427.505 45.2012 426.54L45.263 425.92C45.263 425.92 44.4925 425.784 43.9382 426.37C43.3822 426.955 42.5877 428.023 42.5877 428.023C42.5877 428.023 42.1398 430.263 45.7967 431.622C49.4518 432.983 52.7792 432.434 55.2366 431.348Z" fill="#E4F2F2"/>
<path d="M89.7334 484.86C88.2491 484.641 87.0461 483.895 84.9302 483.751C83.0666 483.624 81.8585 483.48 80.2197 482.896C78.5809 482.315 76.664 480.253 73.6661 476.121C70.1293 471.249 67.4437 464.01 66.7093 460.721C65.1271 453.627 64.4681 443.747 64.4732 440.285C64.4801 436.134 62.5925 434.487 60.4114 433.676C57.851 432.723 56.068 433.611 56.2637 439.322C56.4576 445.034 57.4203 455.548 59.6666 463.009C60.7563 466.625 62.7126 472.201 67.2344 478.482C70.3919 482.87 71.5845 484.219 75.6447 487.791C76.7516 488.763 77.3316 489.759 79.2227 491.863C81.1155 493.966 83.8045 495.941 86.0611 496.661C88.3177 497.38 89.2461 497.283 89.591 496.892C90.0235 496.398 89.7266 495.852 88.733 495.406C87.7411 494.96 86.0216 494.386 84.285 492.813C84.285 492.813 86.4095 493.896 87.736 494.434C89.0642 494.969 90.4336 495.288 91.422 495.387C92.6473 495.511 93.8365 494.124 92.8481 493.651C91.8528 493.174 90.9638 493.077 89.0093 492.252C87.2297 491.503 86.0783 490.605 86.0783 490.605C86.0783 490.605 88.2439 491.387 90.183 491.695C92.1205 492.007 92.9836 491.736 93.5413 491.529C94.1008 491.32 94.5298 490.316 93.2239 489.889C92.0501 489.505 90.4044 489.524 88.2782 488.446C86.7355 487.664 85.7539 486.896 86.0765 486.768C86.3974 486.639 87.2726 487.164 88.7827 487.152C90.2242 487.141 91.6331 486.272 91.5627 485.465C91.4941 484.658 91.2178 485.081 89.7334 484.86Z" fill="#FFA8A7"/>
<defs>
<linearGradient id="paint0_linear" x1="70.2714" y1="414.139" x2="90.538" y2="414.139" gradientUnits="userSpaceOnUse">
<stop stop-color="#C8E2FF"/>
<stop offset="0.381869" stop-color="#C8E2FF"/>
<stop offset="1" stop-color="#6B99D1"/>
</linearGradient>
<linearGradient id="paint1_linear" x1="87.253" y1="423.976" x2="107.52" y2="423.976" gradientUnits="userSpaceOnUse">
<stop stop-color="#C8E2FF"/>
<stop offset="0.381869" stop-color="#C8E2FF"/>
<stop offset="1" stop-color="#6B99D1"/>
</linearGradient>
<linearGradient id="paint2_linear" x1="104.234" y1="433.812" x2="124.5" y2="433.812" gradientUnits="userSpaceOnUse">
<stop stop-color="#C8E2FF"/>
<stop offset="0.381869" stop-color="#C8E2FF"/>
<stop offset="1" stop-color="#6B99D1"/>
</linearGradient>
<linearGradient id="paint3_linear" x1="121.214" y1="443.647" x2="141.48" y2="443.647" gradientUnits="userSpaceOnUse">
<stop stop-color="#C8E2FF"/>
<stop offset="0.381869" stop-color="#C8E2FF"/>
<stop offset="1" stop-color="#6B99D1"/>
</linearGradient>
<linearGradient id="paint4_linear" x1="246.766" y1="414.139" x2="226.5" y2="414.139" gradientUnits="userSpaceOnUse">
<stop stop-color="#C8E2FF"/>
<stop offset="0.381869" stop-color="#C8E2FF"/>
<stop offset="1" stop-color="#6B99D1"/>
</linearGradient>
<linearGradient id="paint5_linear" x1="229.785" y1="423.976" x2="209.52" y2="423.976" gradientUnits="userSpaceOnUse">
<stop stop-color="#C8E2FF"/>
<stop offset="0.381869" stop-color="#C8E2FF"/>
<stop offset="1" stop-color="#6B99D1"/>
</linearGradient>
<linearGradient id="paint6_linear" x1="212.804" y1="433.812" x2="192.538" y2="433.812" gradientUnits="userSpaceOnUse">
<stop stop-color="#C8E2FF"/>
<stop offset="0.381869" stop-color="#C8E2FF"/>
<stop offset="1" stop-color="#6B99D1"/>
</linearGradient>
<linearGradient id="paint7_linear" x1="195.825" y1="443.647" x2="175.557" y2="443.647" gradientUnits="userSpaceOnUse">
<stop stop-color="#C8E2FF"/>
<stop offset="0.381869" stop-color="#C8E2FF"/>
<stop offset="1" stop-color="#6B99D1"/>
</linearGradient>
<linearGradient id="paint8_linear" x1="313.231" y1="406.89" x2="168.157" y2="151.042" gradientUnits="userSpaceOnUse">
<stop stop-color="#57F7E0"/>
<stop offset="0.956929" stop-color="#57F7E0"/>
<stop offset="1" stop-color="#57F7E0"/>
</linearGradient>
<linearGradient id="paint9_linear" x1="4.03714" y1="407.894" x2="120.408" y2="200.679" gradientUnits="userSpaceOnUse">
<stop stop-color="#57F7E0"/>
<stop offset="0.956929" stop-color="#57F7E0"/>
<stop offset="1" stop-color="#57F7E0"/>
</linearGradient>
</defs>
</svg>
