<svg width="428" height="466" viewBox="0 0 428 466" fill="none" xmlns="http://www.w3.org/2000/svg">
<path fill-rule="evenodd" clip-rule="evenodd" d="M128.411 0.484863C64.7492 30.5996 12.7013 99.3018 109.822 156.282C114.198 143.272 123.947 128.41 124.051 128.429C116.21 116.373 76.9212 97.1958 128.411 0.484863ZM298.316 0.484863C349.807 97.1968 310.517 116.373 302.676 128.429C302.781 128.41 312.529 143.272 316.905 156.282C414.026 99.3018 361.979 30.5997 298.316 0.484863ZM45.0934 52.3769C-13.2132 97.1658 0.606018 192.865 141.066 213.866C141.82 214.396 122.587 201.358 105.462 170.693C66.8702 149.017 49.4386 132.797 45.0934 52.3769ZM381.634 52.3769C377.289 132.797 359.857 149.017 321.265 170.693C304.14 201.358 284.908 214.396 285.661 213.866C426.122 192.865 439.941 97.1658 381.634 52.3769ZM157.233 123.827C170.03 149.016 173.759 156.31 188.962 189.04C192.822 229.964 186.09 233.673 179.94 261.519C179.443 263.214 175.635 254.682 163.894 228.338C99.8862 214.663 57.2685 211.087 1.86013 149.258C-16.1644 291.742 173.532 320.395 193.503 326.127C190.802 331.7 154.993 373.538 154.993 373.538L180.121 409.99L215.725 335.755L250.905 409.808L275.549 374.628C275.549 374.628 229.756 327.22 235.646 327.762C264.168 320.57 444.114 282.477 426.078 146.715C339.502 233.23 273.55 219.461 264.105 230.094C255.858 250.826 254.255 248.105 249.391 263.154C233.054 238.783 234.528 200.548 233.89 189.948C252.756 189.239 258.099 213.125 256.779 204.42C248.318 148.655 201.496 155.313 201.496 155.313L157.233 123.827ZM215.725 348.834L162.138 459.641L215.301 427.61L268.465 459.641L215.725 348.834ZM215.665 434.876L201.617 443.293L215.665 465.515L229.712 443.293L215.665 434.876Z" fill="white"/>
</svg>
