<svg xmlns="http://www.w3.org/2000/svg" viewBox="0 0 118.9 156.93"><defs><style>.cls-1{isolation:isolate;}.cls-2{fill:#c8e2ff;}.cls-3{fill:#a5cbfa;}.cls-4{fill:#dceeff;}.cls-5{fill:#031f60;}.cls-6{fill:#1e3779;}.cls-7{fill:#2b3d89;}.cls-8{fill:#344593;}.cls-9{fill:#e9fffb;opacity:0.2;}.cls-10,.cls-12{fill:none;stroke:#e9fffb;stroke-miterlimit:10;}.cls-11{fill:#57f7e0;}.cls-11,.cls-13,.cls-14{opacity:0.8;}.cls-12{stroke-linecap:round;}.cls-13,.cls-15{fill:#0b3fa5;}.cls-16{fill:#ffa8a7;}.cls-17{fill:#6a89ce;}.cls-18{fill:#2d2979;}.cls-19{fill:#c4d9ff;}.cls-20{fill:#aacaf9;}.cls-21{fill:#f28f8f;}.cls-22{fill:#543354;}.cls-23{fill:#7fa8e6;}.cls-24{fill:#f5fbfb;}.cls-25{fill:#6b99d1;opacity:0.15;mix-blend-mode:multiply;}</style></defs><g class="cls-1"><g id="Layer_2" data-name="Layer 2"><g id="Objects"><path class="cls-2" d="M2.05,142h0l5.22,3,.9-7.31L49.36,113.9A5.9,5.9,0,0,0,52,109.28V19.12L55.74,3.19l-5.22-3h0a1.9,1.9,0,0,0-1.88.19L3.91,26.19a5.88,5.88,0,0,0-2.67,4.62V140.25A1.85,1.85,0,0,0,2.05,142Z"/><path class="cls-3" d="M55.74,3.19l-5.22-3h0a1.9,1.9,0,0,0-1.88.19L3.91,26.19a5.34,5.34,0,0,0-1.89,2L25.88,42,52,27.22v-8.1Z"/><path class="cls-4" d="M56.54,4.93c0-1.7-1.19-2.39-2.66-1.54L9.16,29.21a5.88,5.88,0,0,0-2.67,4.62V143.28c0,1.69,1.19,2.38,2.66,1.54L53.88,119a5.88,5.88,0,0,0,2.67-4.62Zm-3.91,110-42.3,24.43c-1,.57-1.78.12-1.78-1l0-101.84a3.93,3.93,0,0,1,1.78-3.08l10.84-6.28L21.4,27c1-.56,1.77-.1,1.77,1v.71a1.35,1.35,0,0,0,.43,1.09l.1.06h0A1.26,1.26,0,0,0,25,29.71l13.13-7.58a3.91,3.91,0,0,0,1.77-3.08v-.71a4,4,0,0,1,1.78-3.08l11-6.32c1-.57,1.77-.12,1.77,1l0,101.83A4,4,0,0,1,52.63,114.88Z"/><path class="cls-5" d="M27.05,23.7,33.42,20c.55-.31,1-.17,1,.32a2,2,0,0,1-1,1.47l-6.37,3.68c-.54.31-1,.17-1-.33A2,2,0,0,1,27.05,23.7Z"/><path class="cls-5" d="M35.12,19.9c0,.48.34.67.75.43a1.64,1.64,0,0,0,.75-1.3c0-.47-.33-.67-.75-.43A1.67,1.67,0,0,0,35.12,19.9Z"/><path class="cls-5" d="M54.41,111.79a4,4,0,0,1-1.78,3.09l-42.3,24.43c-1,.57-1.78.12-1.78-1v-.39l0-101.45a3.93,3.93,0,0,1,1.78-3.08l10.84-6.28L21.4,27c1-.56,1.77-.1,1.77,1v.71c0,1.14.81,1.6,1.79,1l13.13-7.58a3.91,3.91,0,0,0,1.77-3.08v-.71a4,4,0,0,1,1.78-3.08L52.35,9.08l.26-.14c1-.57,1.77-.12,1.77,1Z"/><path class="cls-6" d="M52.61,8.94l-.26.14L50.23,10.3V110.76L54.14,113a3.25,3.25,0,0,0,.27-1.23L54.38,10C54.38,8.82,53.58,8.37,52.61,8.94Z"/><path class="cls-7" d="M52.37,110.52a3.94,3.94,0,0,1-1.78,3.09l-42,24.29,0-101.45a3.93,3.93,0,0,1,1.78-3.08l10.84-6.28v.32c0,1.14.8,1.61,1.79,1l.24-.14v.39c0,1.14.81,1.6,1.79,1l13.13-7.58a3.91,3.91,0,0,0,1.77-3.08v-.71a4,4,0,0,1,1.78-3.08L52.35,9.08Z"/><path class="cls-8" d="M44.56,78.1c4.91-18.53,7.1-51.36,7.79-64v-5L41.64,15.26a4,4,0,0,0-1.78,3.08v.71a3.91,3.91,0,0,1-1.77,3.08L25,29.71c-1,.58-1.79.12-1.79-1V28.3l-.24.14c-1,.58-1.79.11-1.79-1v-.32L10.3,33.37a3.93,3.93,0,0,0-1.78,3.08l0,89.43C9.13,125.51,36.69,107.81,44.56,78.1Z"/><path class="cls-5" d="M23.6,29.78l-2-1.24a1.26,1.26,0,0,1-.48-1.13v-.32L21.4,27c1-.56,1.77-.1,1.77,1v.71A1.35,1.35,0,0,0,23.6,29.78Z"/><path class="cls-9" d="M68.8,107.18a4,4,0,0,0,.17-.56l0-.1a3.68,3.68,0,0,0,.06-.57L69,4.13c0-1.14-.8-1.59-1.78-1L67,3.25,64.89,4.47h0l-8.59,5a4,4,0,0,0-1.78,3.08v.71a3.91,3.91,0,0,1-1.78,3.08L39.62,23.88c-1,.57-1.79.11-1.79-1v-.71c0-1.13-.79-1.59-1.78-1l-.25.15L25,27.53a4,4,0,0,0-1.77,3.08l0,101.45v.39c0,1.14.79,1.59,1.77,1l42.3-24.43a3.89,3.89,0,0,0,1.52-1.87Z"/><path class="cls-10" d="M68.8,107.18a4,4,0,0,0,.17-.56l0-.1a3.68,3.68,0,0,0,.06-.57L69,4.13c0-1.14-.8-1.59-1.78-1L67,3.25,64.89,4.47h0l-8.59,5a4,4,0,0,0-1.78,3.08v.71a3.91,3.91,0,0,1-1.78,3.08L39.62,23.88c-1,.57-1.79.11-1.79-1v-.71c0-1.13-.79-1.59-1.78-1l-.25.15L25,27.53a4,4,0,0,0-1.77,3.08l0,101.45v.39c0,1.14.79,1.59,1.77,1l42.3-24.43a3.89,3.89,0,0,0,1.52-1.87Z"/><path class="cls-11" d="M46.35,32.63v75.73c0,1.7,1.19,2.39,2.66,1.54l36.38-21a5.88,5.88,0,0,0,2.67-4.62V8.55c0-1.7-1.19-2.39-2.67-1.54L49,28A5.9,5.9,0,0,0,46.35,32.63Z"/><path class="cls-12" d="M46.35,32.63v75.73c0,1.7,1.19,2.39,2.66,1.54l36.38-21a5.88,5.88,0,0,0,2.67-4.62V8.55c0-1.7-1.19-2.39-2.67-1.54L49,28A5.9,5.9,0,0,0,46.35,32.63Z"/><path class="cls-13" d="M51.59,78.41,66.14,70c.59-.34,1.06-.06,1.06.62v.06a2.35,2.35,0,0,1-1.06,1.85l-14.55,8.4c-.59.34-1.07.06-1.07-.62v-.06A2.36,2.36,0,0,1,51.59,78.41Z"/><path class="cls-13" d="M70.28,67.62l12.54-7.24c.59-.34,1.07-.06,1.07.62v.06a2.35,2.35,0,0,1-1.07,1.84L70.28,70.14c-.58.35-1.06.07-1.06-.61v-.06A2.38,2.38,0,0,1,70.28,67.62Z"/><g class="cls-14"><path class="cls-15" d="M51.59,90.29l14.55-8.4c.59-.34,1.06-.07,1.06.62v.06a2.33,2.33,0,0,1-1.06,1.84L51.59,92.82c-.59.34-1.07.06-1.07-.62v-.06A2.36,2.36,0,0,1,51.59,90.29Z"/><path class="cls-15" d="M70.28,79.5l12.54-7.24c.59-.34,1.07-.07,1.07.61v.06a2.36,2.36,0,0,1-1.07,1.85L70.28,82c-.58.34-1.06.07-1.06-.61v-.06A2.36,2.36,0,0,1,70.28,79.5Z"/></g><g class="cls-14"><path class="cls-15" d="M51.59,84.35l7.87-4.55c.59-.34,1.07-.06,1.07.62v.06a2.36,2.36,0,0,1-1.07,1.85l-7.87,4.55c-.59.34-1.07.06-1.07-.62V86.2A2.36,2.36,0,0,1,51.59,84.35Z"/><path class="cls-15" d="M63,77.76l6.68-3.88c.59-.34,1.07-.06,1.07.62v.06a2.36,2.36,0,0,1-1.07,1.85L63,80.29c-.59.34-1.07.06-1.07-.62v-.06A2.36,2.36,0,0,1,63,77.76Z"/><path class="cls-15" d="M73.47,71.69l9.35-5.37c.59-.34,1.07-.07,1.07.61V67a2.35,2.35,0,0,1-1.07,1.85l-9.35,5.37c-.59.34-1.07.07-1.07-.61v-.07A2.35,2.35,0,0,1,73.47,71.69Z"/></g><g class="cls-14"><path class="cls-15" d="M51.59,96.3,64.28,89c.59-.34,1.07-.06,1.07.62v.06a2.36,2.36,0,0,1-1.07,1.85L51.59,98.82c-.59.34-1.07.06-1.07-.62v-.06A2.35,2.35,0,0,1,51.59,96.3Z"/><path class="cls-15" d="M67.82,86.94l6.68-3.88c.59-.34,1.06-.07,1.06.61v.06a2.35,2.35,0,0,1-1.06,1.85l-6.68,3.88c-.59.35-1.07.07-1.07-.61v-.06A2.36,2.36,0,0,1,67.82,86.94Z"/><path class="cls-15" d="M78.29,80.87l4.53-2.61c.59-.34,1.07-.06,1.07.62v.06a2.35,2.35,0,0,1-1.07,1.84l-4.53,2.61c-.59.34-1.07.06-1.07-.62v-.06A2.35,2.35,0,0,1,78.29,80.87Z"/></g><polygon class="cls-13" points="52.61 69.28 81.8 52.43 81.8 18.73 52.56 35.6 52.61 69.28"/><path class="cls-16" d="M116.86,65.4c.19,1.65,2.21,8.44,1.79,10.87s-7.19,6.81-7.19,6.81l-.93-4.17,2.86-2.8a2.34,2.34,0,0,0,.68-2l-.83-5.71Z"/><path class="cls-17" d="M113.31,73.69l-2.78-12.53c-.37-4.65,3.89-4.24,4.87-2.61s3,12.34,3.09,13.3a12.78,12.78,0,0,1,.21,4.59c-.21,1-2.58,3.83-7.24,6.64l-.93-4.17Z"/><path class="cls-18" d="M112.61,132.87a13.43,13.43,0,0,0,.29,1.64c.18.71.21,1.64-.59,1.9a2,2,0,0,1-2.23-.52,14.84,14.84,0,0,0-1.9-2.79,6.58,6.58,0,0,1-2.32-3c-.29-1.16-.1-1.89.69-2a5.88,5.88,0,0,1,3.4,1.29A31.62,31.62,0,0,1,112.61,132.87Z"/><path class="cls-18" d="M101.8,139.62s.06.92.12,1.65a7.35,7.35,0,0,1,.08,2.45c-.24.54-1.45.94-2.87.93a7,7,0,0,0-3.33,1.26,5.24,5.24,0,0,1-4.2.71c-1.23-.38-2.58-1-2.78-1.51s.43-.84,3.41-2.21,5.18-2.3,6.33-3.88Z"/><path class="cls-19" d="M113.33,117a34.55,34.55,0,0,0-1.31-6.21s.39-5.37.58-10.45c.21-5.5.55-12.38.65-13.75l-17.81,4s1.12,21.3,1.31,24.09.42,6.65.71,10.23c.36,4.53.75,14.56.75,14.56a5.46,5.46,0,0,0,3.63.7s1.54-12.51,1.8-15.72a24.72,24.72,0,0,0-.75-8s.49-5.52.92-10.06c.39-4,.86-6.47.93-8.45l.35-.19s.36,7.86.56,10.65.61,5.46,1.36,10.64c.65,4.5,2.35,13.76,2.35,13.76a3,3,0,0,0,3.25.11S113.84,120.92,113.33,117Z"/><path class="cls-20" d="M104.74,97.9a34.16,34.16,0,0,0,6-4,13.58,13.58,0,0,1-4.3,4.06s-.87,9.76-.86,9.57l-.5-9.61Z"/><path class="cls-16" d="M110.73,57.52c-1.36.07-2.37.42-2.54,0a17.92,17.92,0,0,1-.31-2.11c.16-.4.29-.82.29-.82a6.65,6.65,0,0,0-2.79-12.29c-3.45-.36-6,2.06-6.66,5.39a17.55,17.55,0,0,0,.13,7.82c.43,1.57.81,2,1.47,2.23a12,12,0,0,0,2.29.15h0s.18,1,.31,1.67.07,1-1.23,1.8,2,2.45,4.1,2.29,4.54-1.45,5.2-2.83C111.72,59.29,111.66,57.48,110.73,57.52Z"/><path class="cls-21" d="M110.73,57.52c-1.36.07-2.37.42-2.54,0a17.92,17.92,0,0,1-.31-2.11c.16-.4.29-.82.29-.82a7,7,0,0,0,1.6-1.37l-4.5,1.48L104,54.45l-.53-.31-.35-.62a8.67,8.67,0,0,1-.65,2.72,3.79,3.79,0,0,1-2.17,1.48l.07,0a12,12,0,0,0,2.29.15h0s.18,1,.31,1.67.07.94-.9,1.59l1.83,1.4,5.47-.09a4.61,4.61,0,0,0,.43-.29l1.63-2.51C111.64,58.51,111.43,57.49,110.73,57.52Z"/><path class="cls-22" d="M108.9,54.82a7.25,7.25,0,0,0,2.42-5.18,6.68,6.68,0,0,0-5.94-7.33,5.77,5.77,0,0,0-5.52,2.61,3.75,3.75,0,0,0,.63.86,1.59,1.59,0,0,0,.23,1.46,2.16,2.16,0,0,1,.42,1.62c0,.63-.09,1.74,0,2.43.1,1,1.17,1.17,1.17,1.17a11.62,11.62,0,0,1,.25-2.39,1.25,1.25,0,0,1,2.27.11,3.87,3.87,0,0,1-.13,2.72,1.08,1.08,0,0,1-1.61.62c0,.44-.16,1.95,1.28,2.35a5,5,0,0,0,3.54-.35A6.07,6.07,0,0,0,108.9,54.82Z"/><path class="cls-22" d="M100.49,45.78a4.19,4.19,0,0,1-3.31-1.64c-1.58-1.81-.69-3.48,1.21-2.73s5.09.33,6.7.17,5.89.7,5.44,4.16Z"/><path class="cls-23" d="M108.76,57.72c.38.94-.57,2.08-3.12,2.89s-2.78-.24-2.78-.24a51.15,51.15,0,0,0-5,2.56C96.38,64,95.7,67.09,95.5,72.31c-.24,6-.74,18-.54,19.5,0,0,1.73,1,3.29-1.27A8.36,8.36,0,0,0,103.1,94a9.49,9.49,0,0,0,11-5c0-5.3-1.53-9.75-.67-12.8,2-7,3-9.85,2-14.49-.78-3.83-1.89-4.3-3.4-4.26A30,30,0,0,0,108.76,57.72Z"/><path class="cls-17" d="M108,56.66a.49.49,0,0,1,.52,0c.27.2,1,.91,1,.91A2.79,2.79,0,0,1,108,60.23a6.23,6.23,0,0,1-6.18.64,16.4,16.4,0,0,1,.56-1.7.62.62,0,0,1,.43-.28s.56.73,2.72,0,2.56-1.77,2.56-1.77Z"/><path class="cls-16" d="M89.75,78.28c3,.76,3.71-1.13,4.1-2.7,1-3.79,1.47-7.22,2.18-9.37.84-2.54,1.72-2.94,3-3.44,1.45-.58,2.69.64,2.21,3.88a64.9,64.9,0,0,1-2.75,11A9.75,9.75,0,0,1,96,82c-1.55,1.25-3.88,1.2-7.41.32a40.06,40.06,0,0,1-6-2.6c-.76-.35-1.36-.59-2.82-1.27A10,10,0,0,1,76,75.48c-.77-1.11-.88-1.64-.72-1.89s.55-.25,1,.22a8.27,8.27,0,0,0,2.16,2s-1-1-1.47-1.62a8.22,8.22,0,0,1-1.13-1.85c-.27-.65.29-1.53.71-1.07s.63.93,1.41,1.86a8,8,0,0,0,1.38,1.33A15.94,15.94,0,0,1,78,72.4a3.4,3.4,0,0,1-.46-1.86c0-.34.5-.74,1-.1a12.1,12.1,0,0,0,1.61,2.46c.68.71,1.27,1.12,1.28.92s-.41-.59-.66-1.41,0-1.71.46-1.8.37-.07.74.7a22.89,22.89,0,0,1,1.36,2.48,5.09,5.09,0,0,0,1.24,2.12C85.27,76.7,86.9,77.57,89.75,78.28Z"/><path class="cls-24" d="M87.8,77.67l-1.68-.76c-1,.42-1.78,2.12-1.47,3.88l2,.83Z"/><path class="cls-17" d="M99.2,62.17c-2,.23-2.82.79-3.76,5.09s-1.54,8.51-2.28,9.45-1.09,2.29-5.59.61c0,0-2.09.81-1.88,4.3a35.07,35.07,0,0,0,5.15,1.46c2.72.52,5.21.28,6.86-3.14a53.37,53.37,0,0,0,3.7-12.82C101.68,64.39,101,62,99.2,62.17Z"/><path class="cls-25" d="M90.15,136.21l8.54-4.93c5.79-3.35,13.79-4.15,17.87-1.8s2.68,7-3.11,10.32l-8.54,4.93c-5.8,3.35-13.8,4.15-17.87,1.8S84.35,139.55,90.15,136.21Z"/><path class="cls-25" d="M.35,153.33l50.33-28.91a1.83,1.83,0,0,1,1.69,0l4.28,2.42a.52.52,0,0,1,0,1L6.32,156.72a1.89,1.89,0,0,1-1.7,0L.35,154.31A.52.52,0,0,1,.35,153.33Z"/></g></g></g></svg>